<svg width="60" height="54" viewBox="0 0 60 54" fill="none" xmlns="http://www.w3.org/2000/svg">
<path fill-rule="evenodd" clip-rule="evenodd" d="M18.9676 0.195923C16.2076 0.195923 13.6573 1.66836 12.2773 4.05858L1.2225 23.2061C-0.157499 25.5963 -0.157499 28.5412 1.2225 30.9314L12.2773 50.0789C13.6573 52.4691 16.2076 53.9415 18.9676 53.9415H41.0772C43.8372 53.9415 46.3876 52.4691 47.7676 50.0789L58.8224 30.9314C60.2024 28.5412 60.2024 25.5963 58.8224 23.2061L47.7676 4.05858C46.3876 1.66836 43.8372 0.195923 41.0772 0.195923H18.9676ZM29.8725 37.3391C35.5613 37.3391 40.173 32.7275 40.173 27.0387C40.173 21.3499 35.5613 16.7383 29.8725 16.7383C24.1838 16.7383 19.5721 21.3499 19.5721 27.0387C19.5721 32.7275 24.1838 37.3391 29.8725 37.3391Z" fill="#02BBA9"/>
</svg>
