<svg width="56" height="56" viewBox="0 0 56 56" fill="none" xmlns="http://www.w3.org/2000/svg">
<g clip-path="url(#clip0)">
<path fill-rule="evenodd" clip-rule="evenodd" d="M17.4987 0C14.9214 0 12.832 2.08934 12.832 4.66667V38.5C12.832 41.0773 14.9214 43.1667 17.4987 43.1667H51.332C53.9094 43.1667 55.9987 41.0773 55.9987 38.5V4.66667C55.9987 2.08934 53.9094 0 51.332 0H17.4987ZM33.4029 22.3677C33.1714 22.0861 33.0325 21.7174 33.0314 21.3329L33.0312 21.3281L33.0312 11.4844C33.0312 10.5783 33.7658 9.84375 34.6718 9.84375C35.5779 9.84375 36.3124 10.5783 36.3124 11.4844V17.3673L46.6368 7.04309C46.957 6.72262 47.3769 6.5625 47.7968 6.5625C48.2167 6.5625 48.6366 6.72263 48.957 7.04298C49.5977 7.6837 49.5977 8.72244 48.957 9.36316L38.6326 19.6875H44.5156C45.4216 19.6875 46.1562 20.4221 46.1562 21.3281C46.1562 22.2342 45.4216 22.9688 44.5156 22.9688L34.6724 22.9688C34.2093 22.9688 33.7296 22.7659 33.4029 22.3677Z" fill="#02BBA9"/>
<rect y="25.668" width="30.3333" height="30.3333" rx="4.66667" fill="#02BBA9" fill-opacity="0.4"/>
</g>
<defs>
<clipPath id="clip0">
<rect width="56" height="56" fill="white"/>
</clipPath>
</defs>
</svg>
