<svg width="420" height="400" viewBox="0 0 420 400" fill="none" xmlns="http://www.w3.org/2000/svg">
<g clip-path="url(#clip0)">
<path d="M333.732 358.902C354 358.902 370.43 349.44 370.43 337.768C370.43 326.095 354 316.633 333.732 316.633C313.465 316.633 297.035 326.095 297.035 337.768C297.035 349.44 313.465 358.902 333.732 358.902Z" fill="#E0E0E0"/>
<path d="M29.3015 355.25L21.4241 350.639C18.9264 349.198 18.9264 346.892 21.4241 345.451L258.419 208.557C260.916 207.116 264.951 207.116 267.449 208.557L275.326 213.168C277.824 214.609 277.824 216.915 275.326 218.356L38.3317 355.25C35.834 356.691 31.7992 356.691 29.3015 355.25Z" fill="#E0E0E0"/>
<path d="M66.479 32.8548L59.6583 36.7935C59.6583 36.4092 59.7544 36.121 59.7544 35.7367V33.4312C59.7544 29.3964 57.2567 27.4751 54.2787 29.3003C53.0298 29.9728 51.877 31.2216 51.0124 32.6626C50.5321 27.4751 47.0737 25.2656 42.8468 27.7633C38.3317 30.3571 34.5852 37.4659 34.5852 43.5181V46.9764C34.5852 48.5135 34.8734 49.8584 35.2576 51.0112L29.5897 54.2775C27.8605 55.2381 26.5156 57.8319 26.5156 60.1375C26.5156 62.347 27.8605 63.4037 29.5897 62.4431L66.5751 41.1164C68.3043 40.1558 69.6492 37.562 69.6492 35.2564C69.5531 32.9508 68.1121 31.8941 66.479 32.8548Z" fill="#EBEBEB"/>
<path d="M110.287 44.7669L105.099 47.745C105.099 47.4568 105.099 47.2646 105.099 46.9764V45.2473C105.099 42.1731 103.274 40.7322 100.968 42.0771C100.007 42.6535 99.1429 43.5181 98.4704 44.5748C98.0861 40.6361 95.4924 39.003 92.3222 40.8282C88.8638 42.8456 86.0779 48.1292 86.0779 52.7404V55.3342C86.0779 56.487 86.27 57.5437 86.5582 58.4083L82.2353 60.906C80.9864 61.6745 79.9297 63.5958 79.9297 65.325C79.9297 67.0542 80.9864 67.8227 82.2353 67.0542L110.19 50.9151C111.439 50.1466 112.496 48.2253 112.496 46.4961C112.688 44.863 111.631 44.0945 110.287 44.7669Z" fill="#EBEBEB"/>
<path d="M31.4147 164.561L277.535 22.4798V8.06989C277.535 7.78169 277.535 7.39743 277.439 7.2053V7.10923C277.343 6.82104 277.343 6.6289 277.247 6.43677C277.247 6.43677 277.247 6.34071 277.151 6.34071C277.055 6.14857 276.959 5.95644 276.863 5.86038L276.767 5.76431C276.671 5.66825 276.479 5.47611 276.383 5.38005C276.287 5.28398 276.191 5.28398 276.094 5.18792C276.094 5.18792 276.191 5.18792 276.191 5.28398C275.614 4.99578 274.077 4.03513 272.54 3.17053C270.619 2.01774 268.505 0.864952 267.929 0.480688L267.833 0.384622C267.737 0.288557 267.641 0.288557 267.545 0.192491C266.776 -0.0957069 265.719 0.00035898 264.663 0.67282L46.401 126.615L27.476 137.567C27.1878 137.759 26.8996 137.951 26.6114 138.239C24.5941 139.872 22.9609 142.946 22.9609 145.444V159.854L31.4147 164.561Z" fill="#02BBA9"/>
<path d="M276.477 5.47595C276.381 5.47595 276.381 5.37988 276.285 5.37988C276.381 5.37988 276.477 5.37988 276.477 5.47595Z" fill="#F5F5F5"/>
<path d="M276.384 5.28393C276.287 5.18787 276.287 5.18787 276.191 5.18787C276.191 5.18787 276.287 5.18787 276.287 5.28393C276.287 5.28393 276.287 5.28393 276.384 5.28393Z" fill="#F5F5F5"/>
<path d="M276.769 5.66808C276.673 5.57201 276.577 5.47595 276.48 5.37988C276.577 5.47595 276.673 5.57201 276.769 5.66808Z" fill="#F5F5F5"/>
<path d="M35.9292 142.37L273.02 5.47608C275.517 4.03509 277.535 5.18788 277.535 8.06985V208.271C277.535 211.153 275.517 214.708 273.02 216.149L35.9292 353.042C33.4314 354.483 31.4141 353.331 31.4141 350.449V150.247C31.4141 147.365 33.4314 143.811 35.9292 142.37Z" fill="#F0F0F0"/>
<path d="M273.02 5.47438L35.9292 142.368C33.4314 143.809 31.4141 147.364 31.4141 150.246V164.656L277.535 22.478V8.06816C277.535 5.28225 275.517 4.03339 273.02 5.47438Z" fill="#02BBA9"/>
<path opacity="0.1" d="M24.3059 140.833C23.4413 142.274 22.9609 143.811 22.9609 145.252V159.662L31.4147 164.561V150.151C31.4147 148.71 31.8951 147.077 32.7597 145.732L24.3059 140.833Z" fill="black"/>
<path opacity="0.4" d="M267.736 0.288487C266.967 -0.191842 265.814 -0.0957764 264.565 0.576685L27.4749 137.471C26.226 138.239 25.0732 139.392 24.3047 140.833L32.7585 145.732C33.6231 144.291 34.6798 143.042 35.9287 142.37L273.019 5.47604C274.268 4.80358 275.325 4.70752 276.093 5.09178C274.941 4.41932 268.504 0.768816 267.736 0.288487Z" fill="white"/>
<path d="M32.6636 353.329C31.5108 352.656 24.9783 348.91 24.2098 348.43C23.4413 347.949 22.9609 346.989 22.9609 345.548V159.66L31.4147 164.56V350.447C31.4147 351.792 31.8951 352.849 32.6636 353.329Z" fill="#E6E6E6"/>
<path d="M248.428 25.3618C246.987 26.2264 245.738 28.7241 245.738 31.0297C245.738 33.3352 246.891 34.488 248.428 33.6234C249.869 32.7588 251.118 30.2611 251.118 27.9555C251.022 25.65 249.869 24.4972 248.428 25.3618Z" fill="#455A64"/>
<path d="M258.034 19.7901C256.593 20.6547 255.344 23.1524 255.344 25.458C255.344 27.7636 256.497 28.9164 258.034 28.0518C259.475 27.1872 260.723 24.6895 260.723 22.3839C260.723 20.0783 259.475 19.0216 258.034 19.7901Z" fill="#455A64"/>
<path d="M267.643 14.3142C266.202 15.1788 264.953 17.6765 264.953 19.982C264.953 22.2876 266.106 23.4404 267.643 22.5758C269.084 21.7112 270.333 19.2135 270.333 16.9079C270.333 14.6024 269.084 13.4496 267.643 14.3142Z" fill="#455A64"/>
<path opacity="0.15" d="M44.1914 176.856L158.702 110.667V262.547L44.1914 328.737V176.856Z" fill="#02BBA9"/>
<path d="M44.1914 178.298V176.857L45.4403 176.088" stroke="#02BBA9" stroke-width="1.5" stroke-linecap="round" stroke-linejoin="round"/>
<path d="M49.5703 173.686L155.339 112.588" stroke="#02BBA9" stroke-width="1.5" stroke-linecap="round" stroke-linejoin="round" stroke-dasharray="3.04 3.04"/>
<path d="M157.453 111.436L158.702 110.667V112.108" stroke="#02BBA9" stroke-width="1.5" stroke-linecap="round" stroke-linejoin="round"/>
<path d="M158.703 116.913V258.803" stroke="#02BBA9" stroke-width="1.5" stroke-linecap="round" stroke-linejoin="round" stroke-dasharray="2.96 2.96"/>
<path d="M158.702 261.105V262.546L157.453 263.314" stroke="#02BBA9" stroke-width="1.5" stroke-linecap="round" stroke-linejoin="round"/>
<path d="M153.227 265.717L47.5547 326.815" stroke="#02BBA9" stroke-width="1.5" stroke-linecap="round" stroke-linejoin="round" stroke-dasharray="3.04 3.04"/>
<path d="M45.4403 327.968L44.1914 328.737V327.296" stroke="#02BBA9" stroke-width="1.5" stroke-linecap="round" stroke-linejoin="round"/>
<path d="M44.1914 322.494V180.605" stroke="#02BBA9" stroke-width="1.5" stroke-linecap="round" stroke-linejoin="round" stroke-dasharray="2.96 2.96"/>
<path d="M109.42 202.508V211.442L93.4727 220.664V211.73" stroke="#02BBA9" stroke-width="2" stroke-miterlimit="10" stroke-linecap="round" stroke-linejoin="round"/>
<path d="M105.962 198.281L101.159 191.46L96.3555 203.853" stroke="#02BBA9" stroke-width="2" stroke-miterlimit="10" stroke-linecap="round" stroke-linejoin="round"/>
<path d="M101.156 192.901V210.193" stroke="#02BBA9" stroke-width="2" stroke-miterlimit="10" stroke-linecap="round" stroke-linejoin="round"/>
<path d="M80.4071 253.902L122.58 229.597C123.829 228.829 124.886 229.501 124.886 230.942V242.854C124.886 244.295 123.829 246.024 122.58 246.793L80.4071 271.098C79.1583 271.866 78.1016 271.194 78.1016 269.753V257.84C78.1016 256.399 79.1583 254.67 80.4071 253.902Z" fill="#02BBA9"/>
<path d="M87.2266 255.538C87.2266 255.442 87.2266 255.346 87.3226 255.25C87.4187 255.154 87.4187 255.058 87.5148 255.058L88.1872 254.673C88.2833 254.673 88.2833 254.673 88.3793 254.673C88.4754 254.673 88.4754 254.769 88.4754 254.866V258.516C88.4754 259.092 88.5715 259.477 88.6675 259.765C88.8597 260.053 89.0518 260.053 89.4361 259.861C89.7243 259.669 90.0125 259.381 90.2046 258.9C90.3967 258.42 90.4928 257.94 90.4928 257.363V253.617C90.4928 253.521 90.4928 253.425 90.5889 253.328C90.6849 253.232 90.6849 253.136 90.781 253.136L91.4535 252.752C91.5495 252.752 91.5495 252.752 91.6456 252.752C91.7417 252.848 91.7417 252.848 91.7417 252.944V259.669C91.7417 259.765 91.7417 259.861 91.6456 259.957C91.5495 260.053 91.5495 260.149 91.4535 260.149L90.781 260.533C90.6849 260.533 90.6849 260.533 90.5889 260.533C90.4928 260.533 90.4928 260.437 90.4928 260.341V260.053C90.3967 260.341 90.2046 260.629 89.9164 260.918C89.7243 261.206 89.4361 261.494 89.1479 261.59C88.7636 261.782 88.4754 261.878 88.1872 261.878C87.899 261.878 87.7069 261.686 87.6108 261.494C87.4187 261.302 87.3226 261.014 87.3226 260.629C87.2266 260.245 87.2266 259.861 87.2266 259.381V255.538Z" fill="#FAFAFA"/>
<path d="M95.586 257.939C95.3938 258.035 95.2017 258.131 95.1056 258.131C94.9135 258.131 94.8174 258.131 94.7214 258.131C94.6253 258.131 94.5292 258.035 94.4332 258.035C94.3371 257.939 94.241 257.939 94.241 257.843V260.917C94.241 261.013 94.241 261.109 94.145 261.205C94.0489 261.301 94.0489 261.397 93.9528 261.397L93.2804 261.781C93.1843 261.781 93.1843 261.781 93.0883 261.781C92.9922 261.781 92.9922 261.685 92.9922 261.589V252.079C92.9922 251.983 92.9922 251.887 93.0883 251.791C93.1843 251.694 93.1843 251.598 93.2804 251.598L93.9528 251.214C94.0489 251.214 94.0489 251.214 94.145 251.214C94.241 251.31 94.241 251.31 94.241 251.406V251.694C94.3371 251.598 94.3371 251.406 94.4332 251.31C94.5292 251.118 94.6253 251.022 94.7214 250.83C94.8174 250.638 95.0096 250.542 95.1056 250.35C95.2978 250.157 95.3938 250.061 95.586 249.965C95.8742 249.773 96.1624 249.677 96.4506 249.773C96.7388 249.773 96.9309 249.965 97.123 250.157C97.3151 250.35 97.4112 250.638 97.5073 251.022C97.6033 251.406 97.6994 251.791 97.6994 252.175C97.6994 252.271 97.6994 252.463 97.6994 252.655C97.6994 252.847 97.6994 253.039 97.6994 253.135C97.6994 253.616 97.6033 254 97.5073 254.48C97.4112 254.961 97.2191 255.441 97.123 255.825C96.9309 256.21 96.7388 256.594 96.4506 256.978C96.2584 257.458 95.9702 257.747 95.586 257.939ZM96.4506 253.904C96.4506 253.616 96.4506 253.328 96.4506 253.135C96.4506 252.559 96.2584 252.175 96.0663 251.983C95.8742 251.791 95.586 251.887 95.2978 251.983C95.0096 252.175 94.7214 252.463 94.5292 252.847C94.3371 253.232 94.241 253.712 94.145 254.288C94.145 254.48 94.145 254.672 94.145 254.865C94.145 255.057 94.145 255.249 94.145 255.441C94.145 255.921 94.3371 256.21 94.5292 256.402C94.7214 256.594 95.0096 256.594 95.2978 256.402C95.586 256.21 95.8742 255.921 96.0663 255.537C96.3545 255.057 96.4506 254.576 96.4506 253.904Z" fill="#FAFAFA"/>
<path d="M100.003 254.864C100.003 254.96 100.003 255.057 99.9067 255.153C99.8106 255.249 99.8106 255.345 99.7146 255.345L99.0421 255.729C98.946 255.729 98.946 255.729 98.85 255.729C98.7539 255.633 98.7539 255.633 98.7539 255.537V246.026C98.7539 245.93 98.7539 245.834 98.85 245.738C98.946 245.642 98.946 245.546 99.0421 245.546L99.7146 245.162C99.8106 245.162 99.8106 245.162 99.9067 245.162C100.003 245.258 100.003 245.258 100.003 245.354V254.864Z" fill="#FAFAFA"/>
<path d="M103.46 245.544C103.845 245.352 104.133 245.256 104.421 245.256C104.709 245.256 104.901 245.352 105.189 245.544C105.382 245.736 105.574 245.928 105.67 246.313C105.766 246.601 105.862 246.985 105.862 247.465C105.862 247.562 105.862 247.658 105.862 247.754C105.862 247.85 105.862 248.042 105.862 248.138C105.862 248.234 105.862 248.426 105.862 248.522C105.862 248.618 105.862 248.81 105.862 248.81C105.862 249.291 105.766 249.771 105.67 250.155C105.574 250.636 105.382 251.02 105.189 251.404C104.997 251.788 104.709 252.173 104.421 252.461C104.133 252.749 103.845 253.037 103.46 253.229C103.076 253.422 102.788 253.518 102.5 253.518C102.211 253.518 102.019 253.422 101.731 253.229C101.539 253.037 101.347 252.845 101.251 252.461C101.155 252.173 101.059 251.788 101.059 251.308C101.059 251.212 101.059 251.116 101.059 251.02C101.059 250.924 101.059 250.732 101.059 250.636C101.059 250.54 101.059 250.347 101.059 250.251C101.059 250.155 101.059 249.963 101.059 249.867C101.059 249.387 101.155 249.003 101.251 248.522C101.347 248.042 101.539 247.658 101.731 247.273C101.923 246.889 102.211 246.505 102.5 246.217C102.788 246.024 103.076 245.736 103.46 245.544ZM104.613 248.138C104.613 247.85 104.517 247.658 104.517 247.465C104.421 247.273 104.325 247.177 104.229 247.177C104.133 247.081 104.037 247.081 103.845 247.177C103.748 247.177 103.556 247.273 103.46 247.369C103.364 247.465 103.172 247.562 103.076 247.658C102.98 247.754 102.788 247.946 102.692 248.138C102.596 248.33 102.5 248.522 102.404 248.81C102.307 249.003 102.307 249.291 102.307 249.675C102.307 249.771 102.307 249.867 102.307 249.963C102.307 250.059 102.307 250.155 102.307 250.347C102.307 250.444 102.307 250.636 102.307 250.732C102.307 250.828 102.307 250.924 102.307 251.02C102.307 251.308 102.404 251.5 102.404 251.692C102.5 251.885 102.596 251.981 102.692 251.981C102.788 252.077 102.884 252.077 103.076 251.981C103.172 251.981 103.364 251.885 103.46 251.788C103.556 251.692 103.748 251.596 103.845 251.5C103.941 251.404 104.133 251.212 104.229 251.02C104.325 250.828 104.421 250.636 104.517 250.347C104.613 250.155 104.613 249.867 104.613 249.483C104.613 249.387 104.613 249.291 104.613 249.195C104.613 249.099 104.613 248.906 104.613 248.81C104.613 248.714 104.613 248.522 104.613 248.426C104.613 248.33 104.613 248.234 104.613 248.138Z" fill="#FAFAFA"/>
<path d="M106.919 245.546C106.919 245.354 107.015 245.066 107.112 244.777C107.208 244.489 107.304 244.201 107.496 243.913C107.688 243.625 107.88 243.337 108.072 243.048C108.36 242.76 108.553 242.568 108.937 242.376C109.225 242.184 109.513 242.088 109.801 242.088C110.09 242.088 110.282 242.088 110.474 242.28C110.666 242.376 110.762 242.664 110.858 242.952C110.954 243.24 111.05 243.721 111.05 244.201V248.428C111.05 248.524 111.05 248.62 110.954 248.716C110.858 248.812 110.858 248.908 110.762 248.908L110.09 249.293C109.994 249.293 109.994 249.293 109.897 249.293C109.801 249.293 109.801 249.197 109.801 249.1V248.62C109.705 249.004 109.513 249.293 109.225 249.677C108.937 250.061 108.649 250.253 108.264 250.541C107.976 250.734 107.784 250.734 107.496 250.83C107.304 250.83 107.112 250.83 106.919 250.638C106.727 250.541 106.631 250.349 106.631 250.157C106.535 249.965 106.535 249.677 106.535 249.293C106.535 248.62 106.727 248.044 107.015 247.467C107.304 246.891 107.688 246.411 108.264 246.026L109.801 244.777C109.801 244.393 109.705 244.105 109.513 244.105C109.321 244.009 109.129 244.105 108.841 244.201C108.649 244.297 108.553 244.393 108.456 244.489C108.36 244.585 108.264 244.777 108.168 244.874C108.072 244.97 108.072 245.066 107.976 245.162C107.976 245.258 107.88 245.258 107.784 245.258L106.919 245.738C106.823 245.738 106.823 245.738 106.727 245.738C106.919 245.738 106.919 245.642 106.919 245.546ZM108.456 248.716C108.649 248.62 108.841 248.428 109.033 248.236C109.225 248.044 109.321 247.852 109.417 247.659C109.513 247.467 109.609 247.179 109.705 246.987C109.801 246.795 109.801 246.507 109.801 246.315V246.122L108.553 247.179C108.264 247.371 108.072 247.563 107.976 247.756C107.88 247.948 107.784 248.14 107.784 248.428C107.784 248.62 107.88 248.716 107.976 248.716C108.168 248.908 108.264 248.908 108.456 248.716Z" fill="#FAFAFA"/>
<path d="M114.125 239.398C114.317 239.302 114.509 239.206 114.606 239.206C114.798 239.206 114.894 239.206 114.99 239.206C115.086 239.206 115.182 239.302 115.278 239.302C115.374 239.398 115.47 239.398 115.47 239.494V236.324C115.47 236.228 115.47 236.132 115.566 236.035C115.662 235.939 115.662 235.843 115.758 235.843L116.431 235.459C116.527 235.459 116.527 235.459 116.623 235.459C116.719 235.555 116.719 235.555 116.719 235.651V245.162C116.719 245.258 116.719 245.354 116.623 245.45C116.527 245.546 116.527 245.642 116.431 245.642L115.758 246.026C115.662 246.026 115.662 246.026 115.566 246.026C115.47 246.026 115.47 245.93 115.47 245.834V245.546C115.374 245.642 115.374 245.834 115.278 245.93C115.182 246.122 115.086 246.218 114.99 246.411C114.894 246.603 114.702 246.699 114.606 246.891C114.413 247.083 114.317 247.179 114.125 247.275C113.837 247.467 113.549 247.563 113.261 247.467C112.972 247.467 112.78 247.275 112.588 247.083C112.396 246.891 112.3 246.603 112.204 246.218C112.108 245.834 112.012 245.45 112.012 245.066C112.012 244.97 112.012 244.778 112.012 244.585C112.012 244.393 112.012 244.201 112.012 244.105C112.012 243.625 112.108 243.24 112.204 242.76C112.3 242.28 112.492 241.799 112.588 241.415C112.78 241.031 112.972 240.647 113.261 240.262C113.549 239.878 113.837 239.59 114.125 239.398ZM113.261 243.433C113.261 243.721 113.261 244.009 113.261 244.201C113.261 244.777 113.453 245.162 113.645 245.354C113.837 245.546 114.125 245.45 114.413 245.354C114.702 245.162 114.99 244.874 115.182 244.489C115.374 244.105 115.47 243.625 115.566 243.048C115.566 242.856 115.566 242.664 115.566 242.472C115.566 242.28 115.566 242.088 115.566 241.896C115.566 241.415 115.374 241.127 115.182 240.935C114.99 240.743 114.702 240.743 114.413 240.935C114.125 241.127 113.837 241.415 113.645 241.799C113.453 242.28 113.357 242.76 113.261 243.433Z" fill="#FAFAFA"/>
<path d="M167.25 106.151L201.161 86.5538V115.95L167.25 135.547V106.151Z" stroke="#02BBA9" stroke-miterlimit="10" stroke-linecap="round" stroke-linejoin="round"/>
<path d="M167.25 129.687L178.49 107.496L190.786 115.374" stroke="#02BBA9" stroke-miterlimit="10" stroke-linecap="round" stroke-linejoin="round"/>
<path d="M187.137 112.972L193.093 103.846L201.162 108.841" stroke="#02BBA9" stroke-miterlimit="10" stroke-linecap="round" stroke-linejoin="round"/>
<path d="M186.945 99.7145C188.29 98.9459 189.346 99.5223 189.346 101.155C189.346 102.789 188.29 104.614 186.945 105.382C185.6 106.151 184.543 105.574 184.543 103.941C184.543 102.308 185.6 100.483 186.945 99.7145Z" stroke="#02BBA9" stroke-miterlimit="10" stroke-linecap="round" stroke-linejoin="round"/>
<path d="M265.622 62.8274L264.373 61.6746L265.718 58.7926C265.91 58.5044 265.718 58.1202 265.43 57.928C265.142 57.7359 264.758 57.928 264.565 58.2162L263.413 60.714L262.452 59.8494C262.164 59.6572 261.78 59.6572 261.587 59.8494C261.395 60.1376 261.395 60.5218 261.587 60.714L262.836 61.8667L261.491 64.7487C261.299 65.0369 261.491 65.4212 261.78 65.6133C261.876 65.6133 261.972 65.7094 262.068 65.7094C262.26 65.7094 262.548 65.6133 262.644 65.3251L263.797 62.8274L264.758 63.692C264.854 63.7881 265.046 63.8841 265.142 63.8841C265.334 63.8841 265.43 63.7881 265.622 63.692C265.91 63.4999 265.91 63.1156 265.622 62.8274Z" fill="#455A64"/>
<path d="M206.926 105.482C206.926 106.827 207.983 107.307 209.231 106.635L259.858 77.4307C261.107 76.6622 262.164 75.0291 262.164 73.6842C262.164 72.3393 261.107 71.8589 259.858 72.5314L209.231 101.735C207.983 102.408 206.926 104.137 206.926 105.482Z" fill="#E0E0E0"/>
<path d="M206.926 105.48C206.926 106.825 207.983 107.306 209.231 106.633L237.475 90.3018C238.724 89.5333 239.78 87.9002 239.78 86.5553C239.78 85.2103 238.724 84.73 237.475 85.4025L209.231 101.734C207.983 102.406 206.926 104.135 206.926 105.48Z" fill="#02BBA9"/>
<path d="M207.694 89.6279C207.79 89.6279 207.79 89.6279 207.79 89.6279C207.79 89.6279 207.886 89.724 207.886 89.8201V90.5886C207.886 90.6847 207.886 90.7807 207.79 90.7807C207.79 90.8768 207.694 90.8768 207.694 90.9728L207.118 91.3571C207.022 91.3571 207.022 91.3571 207.022 91.3571C207.022 91.3571 206.926 91.261 206.926 91.165V90.3004C206.926 90.2043 206.926 90.1083 207.022 90.1083C207.022 90.0122 207.118 90.0122 207.118 89.9161L207.694 89.6279ZM207.79 96.6407C207.79 96.7368 207.79 96.8329 207.694 96.8329C207.694 96.9289 207.598 96.9289 207.598 97.025L207.118 97.3132C207.022 97.3132 207.022 97.3132 207.022 97.3132C207.022 97.3132 206.926 97.2171 206.926 97.1211V92.2217C206.926 92.1256 206.926 92.0296 207.022 92.0296C207.022 91.9335 207.118 91.9335 207.118 91.8374L207.598 91.5492C207.694 91.5492 207.694 91.5492 207.694 91.5492C207.694 91.5492 207.79 91.6453 207.79 91.7414V96.6407Z" fill="#455A64"/>
<path d="M209.617 90.975C209.713 90.6868 209.905 90.4947 210.001 90.3025C210.193 90.1104 210.289 89.9183 210.482 89.8222C210.77 89.6301 210.962 89.6301 211.154 89.6301C211.346 89.7261 211.442 89.8222 211.538 90.0143C211.634 89.8222 211.634 89.6301 211.73 89.534C211.826 89.3419 211.922 89.2458 212.019 89.0537C212.115 88.9576 212.211 88.7655 212.307 88.6694C212.403 88.5734 212.499 88.4773 212.595 88.4773C212.883 88.2852 213.075 88.2852 213.267 88.2852C213.46 88.2852 213.556 88.3812 213.652 88.5733C213.748 88.7655 213.844 88.9576 213.844 89.2458C213.844 89.534 213.94 89.8222 213.94 90.1104V92.8963C213.94 92.9924 213.94 93.0884 213.844 93.0884C213.844 93.1845 213.748 93.1845 213.748 93.2806L213.267 93.5688C213.171 93.5688 213.171 93.5688 213.171 93.5688C213.171 93.5688 213.075 93.4727 213.075 93.3766V90.5907C213.075 90.1104 212.979 89.8222 212.883 89.7261C212.787 89.6301 212.595 89.6301 212.403 89.7261C212.211 89.8222 212.115 90.0143 211.922 90.3025C211.826 90.5907 211.73 90.8789 211.73 91.3593V94.1452C211.73 94.2412 211.73 94.3373 211.634 94.3373C211.634 94.4334 211.538 94.4334 211.538 94.5294L211.058 94.8176C210.962 94.8176 210.962 94.8176 210.962 94.8176C210.962 94.8176 210.866 94.7216 210.866 94.6255V91.8396C210.866 91.3593 210.77 91.0711 210.674 90.975C210.578 90.8789 210.385 90.8789 210.193 90.975C210.001 91.0711 209.809 91.2632 209.713 91.5514C209.617 91.8396 209.521 92.2239 209.521 92.6081V95.394C209.521 95.4901 209.521 95.5862 209.425 95.5862C209.425 95.6822 209.329 95.6822 209.329 95.7783L208.848 96.0665C208.752 96.0665 208.752 96.0665 208.752 96.0665C208.752 96.0665 208.656 95.9704 208.656 95.8744V91.2632C208.656 91.1671 208.656 91.0711 208.752 91.0711C208.752 90.975 208.848 90.975 208.848 90.8789L209.329 90.5907C209.425 90.5907 209.425 90.5907 209.425 90.5907C209.425 90.5907 209.521 90.6868 209.521 90.7829V90.975H209.617Z" fill="#455A64"/>
<path d="M214.995 88.6692C214.995 88.4771 215.091 88.285 215.091 88.0928C215.187 87.9007 215.283 87.7086 215.379 87.4204C215.476 87.2282 215.668 87.0361 215.86 86.844C216.052 86.6518 216.244 86.4597 216.436 86.3636C216.628 86.2676 216.917 86.1715 217.013 86.1715C217.205 86.1715 217.397 86.1715 217.493 86.2676C217.589 86.3636 217.685 86.5558 217.781 86.7479C217.877 86.94 217.877 87.2282 217.877 87.6125V90.6866C217.877 90.7827 217.877 90.8787 217.781 90.8787C217.781 90.9748 217.685 90.9748 217.685 91.0709L217.205 91.3591C217.109 91.3591 217.109 91.3591 217.109 91.3591C217.109 91.3591 217.013 91.263 217.013 91.1669V90.7827C216.917 91.0709 216.82 91.263 216.628 91.5512C216.436 91.8394 216.244 92.0315 215.956 92.1276C215.764 92.2237 215.572 92.3197 215.476 92.3197C215.283 92.3197 215.187 92.3197 215.091 92.2237C214.995 92.1276 214.899 92.0315 214.803 91.8394C214.707 91.6473 214.707 91.4551 214.707 91.263C214.707 90.7827 214.803 90.3023 214.995 89.9181C215.187 89.5338 215.476 89.1496 215.86 88.8614L216.917 87.9007C216.917 87.6125 216.82 87.4204 216.724 87.4204C216.628 87.4204 216.436 87.4204 216.244 87.5164C216.148 87.6125 216.052 87.6125 215.956 87.7086C215.86 87.8046 215.86 87.9007 215.764 87.9968C215.764 88.0928 215.668 88.0928 215.668 88.1889L215.572 88.285L214.899 88.6692H214.803C214.995 88.7653 214.995 88.7653 214.995 88.6692ZM216.148 90.9748C216.34 90.8787 216.436 90.7827 216.532 90.5905C216.628 90.4945 216.724 90.3024 216.82 90.1102C216.917 89.9181 216.917 89.822 217.013 89.6299C217.013 89.4378 217.109 89.3417 217.109 89.1496V89.0535L216.148 89.822C215.956 90.0142 215.86 90.1102 215.764 90.3023C215.668 90.3984 215.668 90.5905 215.668 90.7827C215.668 90.9748 215.764 90.9748 215.86 90.9748C215.86 91.0709 215.956 91.0709 216.148 90.9748Z" fill="#455A64"/>
<path d="M220.375 90.6866C220.471 90.5906 220.567 90.5906 220.664 90.4945C220.76 90.3984 220.856 90.3024 220.952 90.1102C221.048 89.9181 221.144 89.822 221.144 89.6299C221.24 89.4378 221.24 89.2456 221.24 89.0535V88.6692C221.24 88.7653 221.144 88.8614 221.144 88.9574C221.048 89.0535 221.048 89.1496 220.952 89.2456C220.856 89.3417 220.76 89.4378 220.664 89.5338C220.567 89.6299 220.471 89.726 220.279 89.822C220.087 89.9181 219.895 90.0142 219.703 90.0142C219.511 90.0142 219.319 89.9181 219.223 89.726C219.126 89.5338 219.03 89.3417 218.934 89.1496C218.838 88.8614 218.838 88.5732 218.838 88.285C218.838 88.1889 218.838 88.0928 218.838 87.9007C218.838 87.8046 218.838 87.6125 218.838 87.5164C218.838 87.2282 218.934 86.844 218.934 86.5558C219.03 86.1715 219.126 85.8833 219.223 85.5951C219.319 85.3069 219.511 85.0187 219.703 84.8266C219.895 84.5384 220.087 84.4423 220.279 84.2502C220.375 84.1541 220.567 84.1541 220.664 84.0581C220.76 84.0581 220.856 84.0581 220.952 84.0581C221.048 84.0581 221.144 84.0581 221.144 84.1541C221.24 84.1541 221.24 84.2502 221.24 84.2502V84.0581C221.24 83.962 221.24 83.8659 221.336 83.8659C221.336 83.7699 221.432 83.7699 221.432 83.6738L221.912 83.3856C222.008 83.3856 222.008 83.3856 222.008 83.3856C222.008 83.3856 222.105 83.4817 222.105 83.5777V88.381C222.105 89.2456 221.912 89.9181 221.624 90.5906C221.336 91.167 220.856 91.6473 220.375 91.9355C220.183 92.0315 219.895 92.1276 219.703 92.1276C219.511 92.1276 219.319 92.1276 219.223 92.0315C219.03 91.9355 218.934 91.8394 218.838 91.7433C218.742 91.5512 218.742 91.4551 218.742 91.167C218.742 91.0709 218.742 90.9748 218.838 90.9748C218.838 90.8787 218.934 90.8788 218.934 90.7827L219.415 90.4945C219.511 90.4945 219.511 90.4945 219.607 90.4945L219.703 90.5906C219.799 90.6866 219.799 90.6866 219.991 90.7827C219.991 90.8788 220.183 90.7827 220.375 90.6866ZM219.607 87.1322C219.607 87.3243 219.607 87.5165 219.607 87.7086C219.607 88.1889 219.703 88.381 219.895 88.5732C220.087 88.6692 220.279 88.6692 220.471 88.5732C220.664 88.4771 220.856 88.1889 221.048 87.9007C221.24 87.6125 221.24 87.2283 221.336 86.844C221.336 86.7479 221.336 86.5558 221.336 86.4597C221.336 86.2676 221.336 86.1715 221.336 86.0755C221.336 85.6912 221.24 85.4991 221.048 85.403C220.856 85.3069 220.664 85.3069 220.471 85.403C220.279 85.4991 220.087 85.6912 219.895 85.9794C219.703 86.2676 219.607 86.6519 219.607 87.1322Z" fill="#455A64"/>
<path d="M222.871 85.4989C222.871 85.1146 222.871 84.7304 222.967 84.3461C223.063 83.9618 223.159 83.5776 223.255 83.2894C223.447 82.9051 223.544 82.6169 223.736 82.4248C223.928 82.1366 224.216 81.9444 224.408 81.8484C224.696 81.6562 224.888 81.6562 225.081 81.6562C225.273 81.6562 225.465 81.7523 225.561 81.9445C225.753 82.1366 225.849 82.3287 225.945 82.6169C226.041 82.9051 226.041 83.1933 226.041 83.5776V84.0579C226.041 84.154 226.041 84.25 225.945 84.25C225.945 84.3461 225.849 84.3461 225.849 84.4422L223.544 85.7871C223.544 85.9792 223.544 86.0753 223.64 86.1713C223.64 86.2674 223.736 86.3635 223.832 86.3635C223.928 86.3635 224.024 86.4595 224.12 86.3635C224.216 86.3635 224.312 86.3635 224.408 86.2674C224.6 86.1713 224.696 86.0753 224.792 85.9792C224.888 85.8831 224.985 85.7871 224.985 85.691C225.081 85.5949 225.081 85.4989 225.081 85.4989L225.177 85.4028L225.753 85.1146C225.849 85.1146 225.849 85.1146 225.849 85.1146C225.849 85.1146 225.945 85.2107 225.945 85.3068C225.945 85.4028 225.945 85.595 225.849 85.7871C225.753 85.9792 225.657 86.1713 225.561 86.3635C225.465 86.5556 225.273 86.8438 225.081 87.0359C224.888 87.2281 224.696 87.4202 224.408 87.6123C224.12 87.8045 223.928 87.8045 223.736 87.8045C223.544 87.8045 223.351 87.7084 223.255 87.5163C223.063 87.3241 222.967 87.132 222.967 86.8438C222.967 86.2674 222.871 85.8831 222.871 85.4989ZM224.6 83.0012C224.504 83.0972 224.312 83.1933 224.216 83.2894C224.12 83.3854 224.024 83.4815 224.024 83.6736C223.928 83.7697 223.928 83.9618 223.832 84.0579C223.832 84.154 223.736 84.3461 223.736 84.4422L225.273 83.5776C225.273 83.4815 225.273 83.3854 225.177 83.2894C225.177 83.1933 225.081 83.0972 225.081 83.0012C224.985 82.9051 224.985 82.9051 224.888 82.9051C224.792 82.809 224.696 82.9051 224.6 83.0012Z" fill="#455A64"/>
<path d="M227.005 86.4597C226.909 86.4597 226.909 86.4597 226.909 86.4597C226.909 86.4597 226.813 86.3636 226.813 86.2676V85.5951C226.813 85.499 226.812 85.403 226.909 85.403C226.909 85.3069 227.005 85.3069 227.005 85.2108L230.943 82.9053C231.039 82.9053 231.039 82.9053 231.039 82.9053C231.039 82.9053 231.135 83.0013 231.135 83.0974V83.7699C231.135 83.8659 231.135 83.962 231.039 83.962C231.039 84.0581 230.943 84.0581 230.943 84.1541L227.005 86.4597Z" fill="#455A64"/>
<path d="M231.711 78.198C231.711 78.198 231.711 78.1019 231.711 78.0059C231.711 77.9098 231.711 77.8137 231.807 77.8137L233.248 75.22C233.248 75.1239 233.344 75.1239 233.344 75.0278C233.344 74.9318 233.44 74.9318 233.44 74.9318L234.017 74.6436C234.113 74.6436 234.113 74.6436 234.113 74.6436C234.113 74.6436 234.209 74.7396 234.209 74.8357V81.5603C234.209 81.6564 234.209 81.7524 234.113 81.7524C234.113 81.8485 234.017 81.8485 234.017 81.9446L233.44 82.2328C233.344 82.2328 233.344 82.2328 233.344 82.2328C233.344 82.2328 233.248 82.1367 233.248 82.0406V76.8531L232.287 78.5823C232.287 78.6783 232.191 78.6783 232.191 78.6783C232.095 78.6783 232.095 78.6783 232.095 78.6783L231.711 78.198Z" fill="#455A64"/>
<path d="M167.25 146.787L201.161 127.19V156.586L167.25 176.183V146.787Z" stroke="#02BBA9" stroke-miterlimit="10" stroke-linecap="round" stroke-linejoin="round"/>
<path d="M167.25 170.323L178.49 148.132L190.786 155.913" stroke="#02BBA9" stroke-miterlimit="10" stroke-linecap="round" stroke-linejoin="round"/>
<path d="M187.137 153.607L193.093 144.385L201.162 149.38" stroke="#02BBA9" stroke-miterlimit="10" stroke-linecap="round" stroke-linejoin="round"/>
<path d="M186.945 140.256C188.29 139.488 189.346 140.064 189.346 141.697C189.346 143.235 188.29 145.156 186.945 145.924C185.6 146.693 184.543 146.116 184.543 144.483C184.543 142.946 185.6 141.025 186.945 140.256Z" stroke="#02BBA9" stroke-miterlimit="10" stroke-linecap="round" stroke-linejoin="round"/>
<path d="M265.622 103.463L264.373 102.31L265.718 99.4284C265.91 99.1402 265.718 98.7559 265.43 98.5638C265.142 98.3717 264.758 98.5638 264.565 98.852L263.413 101.35L262.452 100.485C262.164 100.293 261.78 100.293 261.587 100.485C261.395 100.773 261.395 101.158 261.587 101.35L262.836 102.502L261.491 105.384C261.299 105.673 261.491 106.057 261.78 106.249C261.876 106.249 261.972 106.345 262.068 106.345C262.26 106.345 262.548 106.249 262.644 105.961L263.797 103.463L264.758 104.328C264.854 104.424 265.046 104.52 265.142 104.52C265.334 104.52 265.43 104.424 265.622 104.328C265.91 104.136 265.91 103.655 265.622 103.463Z" fill="#455A64"/>
<path d="M206.926 146.02C206.926 147.365 207.983 147.846 209.231 147.173L259.858 117.969C261.107 117.201 262.164 115.567 262.164 114.223C262.164 112.878 261.107 112.397 259.858 113.07L209.231 142.274C207.983 143.042 206.926 144.675 206.926 146.02Z" fill="#E0E0E0"/>
<path d="M206.926 146.019C206.926 147.363 207.983 147.844 209.231 147.171L247.37 125.172C248.618 124.404 249.675 122.771 249.675 121.426C249.675 120.081 248.618 119.6 247.37 120.273L209.231 142.272C207.983 143.04 206.926 144.674 206.926 146.019Z" fill="#02BBA9"/>
<path d="M207.694 130.17C207.79 130.17 207.79 130.17 207.79 130.17C207.79 130.17 207.886 130.266 207.886 130.362V131.131C207.886 131.227 207.886 131.323 207.79 131.323C207.79 131.419 207.694 131.419 207.694 131.515L207.118 131.899C207.022 131.899 207.022 131.899 207.022 131.899C207.022 131.899 206.926 131.803 206.926 131.707V130.939C206.926 130.843 206.926 130.746 207.022 130.746C207.022 130.65 207.118 130.65 207.118 130.554L207.694 130.17ZM207.79 137.279C207.79 137.375 207.79 137.471 207.694 137.471C207.694 137.567 207.598 137.567 207.598 137.663L207.118 137.951C207.022 137.951 207.022 137.951 207.022 137.951C207.022 137.951 206.926 137.855 206.926 137.759V132.86C206.926 132.764 206.926 132.668 207.022 132.668C207.022 132.572 207.118 132.572 207.118 132.476L207.598 132.187C207.694 132.187 207.694 132.187 207.694 132.187C207.694 132.187 207.79 132.283 207.79 132.38V137.279Z" fill="#455A64"/>
<path d="M209.617 131.516C209.713 131.228 209.905 131.036 210.001 130.844C210.193 130.652 210.289 130.459 210.482 130.363C210.77 130.171 210.962 130.171 211.154 130.171C211.346 130.267 211.442 130.363 211.538 130.555C211.634 130.363 211.634 130.171 211.73 130.075C211.826 129.883 211.922 129.787 212.019 129.595C212.115 129.499 212.211 129.307 212.307 129.211C212.403 129.114 212.499 129.018 212.595 129.018C212.883 128.826 213.075 128.826 213.267 128.826C213.46 128.826 213.556 128.922 213.652 129.114C213.748 129.307 213.844 129.499 213.844 129.787C213.844 130.075 213.94 130.363 213.94 130.652V133.437C213.94 133.534 213.94 133.63 213.844 133.63C213.844 133.726 213.748 133.726 213.748 133.822L213.267 134.11C213.171 134.11 213.171 134.11 213.171 134.11C213.171 134.11 213.075 134.014 213.075 133.918V131.132C213.075 130.652 212.979 130.363 212.883 130.267C212.787 130.171 212.595 130.171 212.403 130.267C212.211 130.363 212.115 130.555 211.922 130.844C211.826 131.132 211.73 131.42 211.73 131.9V134.686C211.73 134.782 211.73 134.878 211.634 134.878C211.634 134.974 211.538 134.975 211.538 135.071L211.058 135.359C210.962 135.359 210.962 135.359 210.962 135.359C210.962 135.359 210.866 135.263 210.866 135.167V132.381C210.866 131.9 210.77 131.612 210.674 131.516C210.578 131.42 210.385 131.42 210.193 131.516C210.001 131.612 209.809 131.804 209.713 132.093C209.617 132.381 209.521 132.765 209.521 133.149V135.935C209.521 136.031 209.521 136.127 209.425 136.127C209.425 136.223 209.329 136.223 209.329 136.319L208.848 136.608C208.752 136.608 208.752 136.608 208.752 136.608C208.752 136.608 208.656 136.512 208.656 136.415V131.516C208.656 131.42 208.656 131.324 208.752 131.324C208.752 131.228 208.848 131.228 208.848 131.132L209.329 130.844C209.425 130.844 209.425 130.844 209.425 130.844C209.425 130.844 209.521 130.94 209.521 131.036V131.516H209.617Z" fill="#455A64"/>
<path d="M214.995 129.308C214.995 129.116 215.091 128.924 215.091 128.732C215.187 128.54 215.283 128.348 215.379 128.06C215.476 127.867 215.668 127.675 215.86 127.483C216.052 127.291 216.244 127.099 216.436 127.003C216.628 126.907 216.917 126.811 217.013 126.811C217.205 126.811 217.397 126.811 217.493 126.907C217.589 127.003 217.685 127.195 217.781 127.387C217.877 127.579 217.877 127.867 217.877 128.252V131.326C217.877 131.422 217.877 131.518 217.781 131.518C217.781 131.614 217.685 131.614 217.685 131.71L217.205 131.998C217.109 131.998 217.109 131.998 217.109 131.998C217.109 131.998 217.013 131.902 217.013 131.806V131.422C216.917 131.71 216.82 131.902 216.628 132.19C216.436 132.479 216.244 132.671 215.956 132.767C215.764 132.863 215.572 132.959 215.476 132.959C215.283 132.959 215.187 132.959 215.091 132.863C214.995 132.767 214.899 132.671 214.803 132.479C214.707 132.286 214.707 132.094 214.707 131.902C214.707 131.422 214.803 130.941 214.995 130.557C215.187 130.173 215.476 129.789 215.86 129.501L216.917 128.54C216.917 128.252 216.82 128.06 216.724 128.06C216.628 128.06 216.436 128.06 216.244 128.156C216.148 128.252 216.052 128.252 215.956 128.348C215.86 128.444 215.86 128.54 215.764 128.636C215.764 128.732 215.668 128.732 215.668 128.828L215.572 128.924L214.899 129.308H214.803C214.995 129.404 214.995 129.308 214.995 129.308ZM216.148 131.614C216.34 131.518 216.436 131.422 216.532 131.23C216.628 131.134 216.724 130.942 216.82 130.749C216.917 130.557 216.917 130.461 217.013 130.269C217.013 130.077 217.109 129.981 217.109 129.789V129.693L216.148 130.461C215.956 130.653 215.86 130.749 215.764 130.941C215.668 131.038 215.668 131.23 215.668 131.422C215.668 131.614 215.764 131.614 215.86 131.614C215.86 131.71 215.956 131.614 216.148 131.614Z" fill="#455A64"/>
<path d="M220.375 131.323C220.471 131.227 220.567 131.227 220.664 131.13C220.76 131.034 220.856 130.938 220.952 130.746C221.048 130.554 221.144 130.458 221.144 130.266C221.24 130.074 221.24 129.882 221.24 129.689V129.305C221.24 129.401 221.144 129.497 221.144 129.593C221.048 129.689 221.048 129.786 220.952 129.882C220.856 129.978 220.76 130.074 220.664 130.17C220.567 130.266 220.471 130.362 220.279 130.458C220.087 130.554 219.895 130.65 219.703 130.65C219.511 130.65 219.319 130.554 219.223 130.362C219.126 130.17 219.03 129.978 218.934 129.786C218.838 129.497 218.838 129.209 218.838 128.921C218.838 128.825 218.838 128.729 218.838 128.537C218.838 128.441 218.838 128.248 218.838 128.152C218.838 127.864 218.934 127.48 218.934 127.192C219.03 126.808 219.126 126.519 219.223 126.231C219.319 125.943 219.511 125.655 219.703 125.463C219.895 125.174 220.087 125.078 220.279 124.886C220.375 124.79 220.567 124.79 220.664 124.694C220.76 124.694 220.856 124.694 220.952 124.694C221.048 124.694 221.144 124.694 221.144 124.79C221.24 124.79 221.24 124.886 221.24 124.886V124.694C221.24 124.598 221.24 124.502 221.336 124.502C221.336 124.406 221.432 124.406 221.432 124.31L221.912 124.022C222.008 124.022 222.008 124.022 222.008 124.022C222.008 124.022 222.105 124.118 222.105 124.214V129.113C222.105 129.978 221.912 130.65 221.624 131.323C221.336 131.899 220.856 132.379 220.375 132.668C220.183 132.764 219.895 132.86 219.703 132.86C219.511 132.86 219.319 132.86 219.223 132.764C219.03 132.668 218.934 132.571 218.838 132.475C218.742 132.283 218.742 132.187 218.742 131.899C218.742 131.803 218.742 131.707 218.838 131.707C218.838 131.611 218.934 131.611 218.934 131.515L219.415 131.227C219.511 131.227 219.511 131.227 219.607 131.227L219.703 131.323C219.799 131.419 219.799 131.419 219.991 131.515C219.991 131.515 220.183 131.419 220.375 131.323ZM219.607 127.672C219.607 127.864 219.607 128.056 219.607 128.249C219.607 128.729 219.703 128.921 219.895 129.113C220.087 129.209 220.279 129.209 220.471 129.113C220.664 129.017 220.856 128.729 221.048 128.441C221.24 128.152 221.24 127.768 221.336 127.384C221.336 127.288 221.336 127.096 221.336 127C221.336 126.904 221.336 126.711 221.336 126.615C221.336 126.231 221.24 126.039 221.048 125.943C220.856 125.847 220.664 125.847 220.471 125.943C220.279 126.039 220.087 126.231 219.895 126.519C219.703 126.904 219.607 127.288 219.607 127.672Z" fill="#455A64"/>
<path d="M222.871 126.137C222.871 125.752 222.871 125.368 222.967 124.984C223.063 124.6 223.159 124.215 223.255 123.927C223.447 123.543 223.544 123.255 223.736 123.063C223.928 122.774 224.216 122.582 224.408 122.486C224.696 122.294 224.888 122.294 225.081 122.294C225.273 122.294 225.465 122.39 225.561 122.582C225.753 122.774 225.849 122.967 225.945 123.255C226.041 123.543 226.041 123.831 226.041 124.215V124.696C226.041 124.792 226.041 124.888 225.945 124.888C225.945 124.984 225.849 124.984 225.849 125.08L223.544 126.425C223.544 126.617 223.544 126.713 223.64 126.809C223.64 126.905 223.736 127.001 223.832 127.001C223.928 127.001 224.024 127.097 224.12 127.001C224.216 127.001 224.312 127.001 224.408 126.905C224.6 126.809 224.696 126.713 224.792 126.617C224.888 126.521 224.985 126.425 224.985 126.329C225.081 126.233 225.081 126.137 225.081 126.137L225.177 126.041L225.753 125.752C225.849 125.752 225.849 125.752 225.849 125.752C225.849 125.752 225.945 125.849 225.945 125.945C225.945 126.041 225.945 126.233 225.849 126.425C225.753 126.617 225.657 126.809 225.561 127.001C225.465 127.193 225.273 127.482 225.081 127.674C224.888 127.866 224.696 128.058 224.408 128.25C224.12 128.442 223.928 128.442 223.736 128.442C223.544 128.442 223.351 128.346 223.255 128.154C223.063 127.962 222.967 127.77 222.967 127.482C222.967 126.905 222.871 126.521 222.871 126.137ZM224.6 123.543C224.504 123.639 224.312 123.735 224.216 123.831C224.12 123.927 224.024 124.023 224.024 124.215C223.928 124.311 223.928 124.504 223.832 124.6C223.832 124.696 223.736 124.888 223.736 124.984L225.273 124.119C225.273 124.023 225.273 123.927 225.177 123.831C225.177 123.735 225.081 123.639 225.081 123.543C224.985 123.447 224.985 123.447 224.888 123.447C224.792 123.447 224.696 123.447 224.6 123.543Z" fill="#455A64"/>
<path d="M227.005 127.097C226.909 127.097 226.909 127.097 226.909 127.097C226.909 127.097 226.813 127 226.813 126.904V126.232C226.813 126.136 226.812 126.04 226.909 126.04C226.909 125.944 227.005 125.944 227.005 125.848L230.943 123.542C231.039 123.542 231.039 123.542 231.039 123.542C231.039 123.542 231.135 123.638 231.135 123.734V124.407C231.135 124.503 231.135 124.599 231.039 124.599C231.039 124.695 230.943 124.695 230.943 124.791L227.005 127.097Z" fill="#455A64"/>
<path d="M234.018 118.259C234.114 117.971 234.21 117.779 234.306 117.586C234.306 117.394 234.402 117.202 234.402 117.106C234.402 116.818 234.306 116.626 234.21 116.434C234.114 116.338 233.922 116.338 233.634 116.434C233.346 116.53 233.25 116.818 233.057 117.01C232.961 117.298 232.865 117.586 232.769 117.875C232.769 117.971 232.769 118.067 232.673 118.163C232.673 118.259 232.577 118.259 232.577 118.259L232.001 118.547C231.905 118.547 231.905 118.547 231.905 118.547C231.905 118.547 231.809 118.451 231.809 118.355C231.809 118.067 231.905 117.683 232.001 117.394C232.097 117.106 232.193 116.722 232.385 116.434C232.577 116.145 232.673 115.857 232.961 115.665C233.154 115.473 233.346 115.281 233.634 115.089C233.922 114.897 234.21 114.897 234.402 114.897C234.595 114.897 234.787 114.993 234.883 115.185C234.979 115.377 235.075 115.569 235.171 115.761C235.267 115.953 235.267 116.242 235.267 116.53C235.267 116.722 235.267 116.914 235.267 117.01C235.267 117.202 235.267 117.394 235.171 117.49C235.075 117.683 235.075 117.875 234.979 118.067C234.883 118.259 234.787 118.547 234.595 118.835L233.346 121.333L235.267 120.276C235.363 120.276 235.363 120.276 235.363 120.276C235.363 120.276 235.459 120.372 235.459 120.468V121.237C235.459 121.333 235.459 121.429 235.363 121.429C235.363 121.525 235.267 121.525 235.267 121.621L232.097 123.446C232.001 123.446 232.001 123.446 232.001 123.446C232.001 123.446 231.905 123.35 231.905 123.254V122.582C231.905 122.486 231.905 122.39 232.001 122.198C232.001 122.102 232.097 122.005 232.097 121.909L234.018 118.259Z" fill="#455A64"/>
<path d="M167.25 188.386L201.161 168.788V198.184L167.25 217.782V188.386Z" stroke="#02BBA9" stroke-miterlimit="10" stroke-linecap="round" stroke-linejoin="round"/>
<path d="M167.25 211.922L178.49 189.731L190.786 197.608" stroke="#02BBA9" stroke-miterlimit="10" stroke-linecap="round" stroke-linejoin="round"/>
<path d="M187.137 195.206L193.093 186.08L201.162 191.076" stroke="#02BBA9" stroke-miterlimit="10" stroke-linecap="round" stroke-linejoin="round"/>
<path d="M186.945 181.949C188.29 181.18 189.346 181.757 189.346 183.39C189.346 184.927 188.29 186.848 186.945 187.617C185.6 188.385 184.543 187.809 184.543 186.176C184.543 184.543 185.6 182.717 186.945 181.949Z" stroke="#02BBA9" stroke-miterlimit="10" stroke-linecap="round" stroke-linejoin="round"/>
<path d="M265.622 145.062L264.373 143.909L265.718 141.027C265.91 140.739 265.718 140.355 265.43 140.162C265.142 139.97 264.758 140.162 264.565 140.451L263.413 142.948L262.452 142.084C262.164 141.892 261.78 141.892 261.587 142.084C261.395 142.372 261.395 142.756 261.587 142.948L262.836 144.101L261.491 146.983C261.299 147.271 261.491 147.656 261.78 147.848C261.876 147.848 261.972 147.944 262.068 147.944C262.26 147.944 262.548 147.848 262.644 147.559L263.797 145.062L264.758 145.926C264.854 146.022 265.046 146.119 265.142 146.119C265.334 146.119 265.43 146.022 265.622 145.926C265.91 145.734 265.91 145.35 265.622 145.062Z" fill="#455A64"/>
<path d="M206.926 187.716C206.926 189.061 207.983 189.542 209.231 188.869L259.858 159.665C261.107 158.897 262.164 157.263 262.164 155.919C262.164 154.574 261.107 154.093 259.858 154.766L209.231 183.97C207.983 184.642 206.926 186.371 206.926 187.716Z" fill="#E0E0E0"/>
<path d="M206.926 187.716C206.926 189.061 207.983 189.542 209.231 188.869L225.082 179.743C226.331 178.974 227.388 177.341 227.388 175.996C227.388 174.651 226.331 174.171 225.082 174.844L209.231 183.97C207.983 184.642 206.926 186.371 206.926 187.716Z" fill="#02BBA9"/>
<path d="M207.694 171.864C207.79 171.864 207.79 171.864 207.79 171.864C207.79 171.864 207.886 171.96 207.886 172.056V172.825C207.886 172.921 207.886 173.017 207.79 173.017C207.79 173.113 207.694 173.113 207.694 173.209L207.118 173.593C207.022 173.593 207.022 173.593 207.022 173.593C207.022 173.593 206.926 173.497 206.926 173.401V172.633C206.926 172.537 206.926 172.441 207.022 172.441C207.022 172.344 207.118 172.344 207.118 172.248L207.694 171.864ZM207.79 178.877C207.79 178.973 207.79 179.069 207.694 179.069C207.694 179.165 207.598 179.165 207.598 179.261L207.118 179.549C207.022 179.549 207.022 179.549 207.022 179.549C207.022 179.549 206.926 179.453 206.926 179.357V174.458C206.926 174.362 206.926 174.266 207.022 174.266C207.022 174.17 207.118 174.17 207.118 174.074L207.598 173.785C207.694 173.785 207.694 173.785 207.694 173.785C207.694 173.785 207.79 173.882 207.79 173.978V178.877Z" fill="#455A64"/>
<path d="M209.617 173.209C209.713 172.921 209.905 172.729 210.001 172.537C210.193 172.345 210.289 172.153 210.482 172.057C210.77 171.864 210.962 171.864 211.154 171.864C211.346 171.961 211.442 172.057 211.538 172.249C211.634 172.057 211.634 171.864 211.73 171.768C211.826 171.576 211.922 171.48 212.019 171.288C212.115 171.192 212.211 171 212.307 170.904C212.403 170.808 212.499 170.712 212.595 170.712C212.883 170.52 213.075 170.52 213.267 170.52C213.46 170.52 213.556 170.616 213.652 170.808C213.748 171 213.844 171.192 213.844 171.48C213.844 171.768 213.94 172.057 213.94 172.345V175.131C213.94 175.227 213.94 175.323 213.844 175.323C213.844 175.419 213.748 175.419 213.748 175.515L213.267 175.803C213.171 175.803 213.171 175.803 213.171 175.803C213.171 175.803 213.075 175.707 213.075 175.611V172.825C213.075 172.345 212.979 172.057 212.883 171.961C212.787 171.864 212.595 171.864 212.403 171.961C212.211 172.057 212.115 172.249 211.922 172.537C211.826 172.825 211.73 173.113 211.73 173.594V176.38C211.73 176.476 211.73 176.572 211.634 176.572C211.634 176.668 211.538 176.668 211.538 176.764L211.058 177.052C210.962 177.052 210.962 177.052 210.962 177.052C210.962 177.052 210.866 176.956 210.866 176.86V174.074C210.866 173.594 210.77 173.305 210.674 173.209C210.578 173.113 210.385 173.113 210.193 173.209C210.001 173.305 209.809 173.498 209.713 173.786C209.617 174.074 209.521 174.458 209.521 174.842V177.628C209.521 177.724 209.521 177.821 209.425 177.821C209.425 177.917 209.329 177.917 209.329 178.013L208.848 178.301C208.752 178.301 208.752 178.301 208.752 178.301C208.752 178.301 208.656 178.205 208.656 178.109V173.209C208.656 173.113 208.656 173.017 208.752 173.017C208.752 172.921 208.848 172.921 208.848 172.825L209.329 172.537C209.425 172.537 209.425 172.537 209.425 172.537C209.425 172.537 209.521 172.633 209.521 172.729V173.209H209.617Z" fill="#455A64"/>
<path d="M214.995 170.904C214.995 170.711 215.091 170.519 215.091 170.327C215.187 170.135 215.283 169.943 215.379 169.655C215.476 169.463 215.668 169.27 215.86 169.078C216.052 168.886 216.244 168.694 216.436 168.598C216.628 168.502 216.917 168.406 217.013 168.406C217.205 168.406 217.397 168.406 217.493 168.502C217.589 168.598 217.685 168.79 217.781 168.982C217.877 169.174 217.877 169.463 217.877 169.847V172.921C217.877 173.017 217.877 173.113 217.781 173.113C217.781 173.209 217.685 173.209 217.685 173.305L217.205 173.593C217.109 173.593 217.109 173.593 217.109 173.593C217.109 173.593 217.013 173.497 217.013 173.401V173.017C216.917 173.305 216.82 173.497 216.628 173.786C216.436 174.074 216.244 174.266 215.956 174.362C215.764 174.458 215.572 174.554 215.476 174.554C215.283 174.554 215.187 174.554 215.091 174.458C214.995 174.362 214.899 174.266 214.803 174.074C214.707 173.882 214.707 173.689 214.707 173.497C214.707 173.017 214.803 172.537 214.995 172.152C215.187 171.768 215.476 171.384 215.86 171.096L216.917 170.135C216.917 169.847 216.82 169.655 216.724 169.655C216.628 169.655 216.436 169.655 216.244 169.751C216.148 169.847 216.052 169.847 215.956 169.943C215.86 170.039 215.86 170.135 215.764 170.231C215.764 170.327 215.668 170.327 215.668 170.423L215.572 170.519L214.899 170.904H214.803C214.995 171 214.995 171 214.995 170.904ZM216.148 173.209C216.34 173.113 216.436 173.017 216.532 172.825C216.628 172.729 216.724 172.537 216.82 172.345C216.917 172.152 216.917 172.056 217.013 171.864C217.013 171.672 217.109 171.576 217.109 171.384V171.288L216.148 172.056C215.956 172.248 215.86 172.345 215.764 172.537C215.668 172.633 215.668 172.825 215.668 173.017C215.668 173.209 215.764 173.209 215.86 173.209C215.86 173.305 215.956 173.305 216.148 173.209Z" fill="#455A64"/>
<path d="M220.375 172.922C220.471 172.826 220.567 172.826 220.664 172.73C220.76 172.634 220.856 172.538 220.952 172.346C221.048 172.154 221.144 172.057 221.144 171.865C221.24 171.673 221.24 171.481 221.24 171.289V170.905C221.24 171.001 221.144 171.097 221.144 171.193C221.048 171.289 221.048 171.385 220.952 171.481C220.856 171.577 220.76 171.673 220.664 171.769C220.567 171.865 220.471 171.961 220.279 172.058C220.087 172.154 219.895 172.25 219.703 172.25C219.511 172.25 219.319 172.154 219.223 171.961C219.126 171.769 219.03 171.577 218.934 171.385C218.838 171.097 218.838 170.809 218.838 170.52C218.838 170.424 218.838 170.328 218.838 170.136C218.838 170.04 218.838 169.848 218.838 169.752C218.838 169.464 218.934 169.079 218.934 168.791C219.03 168.407 219.126 168.119 219.223 167.831C219.319 167.542 219.511 167.254 219.703 167.062C219.895 166.774 220.087 166.678 220.279 166.486C220.375 166.39 220.567 166.39 220.664 166.294C220.76 166.294 220.856 166.294 220.952 166.294C221.048 166.294 221.144 166.294 221.144 166.39C221.24 166.39 221.24 166.486 221.24 166.486V166.294C221.24 166.197 221.24 166.101 221.336 166.101C221.336 166.005 221.432 166.005 221.432 165.909L221.912 165.621C222.008 165.621 222.008 165.621 222.008 165.621C222.008 165.621 222.105 165.717 222.105 165.813V170.713C222.105 171.577 221.912 172.25 221.624 172.922C221.336 173.498 220.856 173.979 220.375 174.267C220.183 174.363 219.895 174.459 219.703 174.459C219.511 174.459 219.319 174.459 219.223 174.363C219.03 174.267 218.934 174.171 218.838 174.075C218.742 173.883 218.742 173.787 218.742 173.498C218.742 173.402 218.742 173.306 218.838 173.306C218.838 173.21 218.934 173.21 218.934 173.114L219.415 172.826C219.511 172.826 219.511 172.826 219.607 172.826L219.703 172.922C219.799 173.018 219.799 173.018 219.991 173.114C219.991 173.114 220.183 173.018 220.375 172.922ZM219.607 169.368C219.607 169.56 219.607 169.752 219.607 169.944C219.607 170.424 219.703 170.617 219.895 170.809C220.087 170.905 220.279 170.905 220.471 170.809C220.664 170.713 220.856 170.424 221.048 170.136C221.24 169.848 221.24 169.464 221.336 169.079C221.336 168.983 221.336 168.791 221.336 168.695C221.336 168.599 221.336 168.407 221.336 168.311C221.336 167.927 221.24 167.735 221.048 167.638C220.856 167.542 220.664 167.542 220.471 167.638C220.279 167.735 220.087 167.927 219.895 168.215C219.703 168.503 219.607 168.887 219.607 169.368Z" fill="#455A64"/>
<path d="M222.871 167.733C222.871 167.349 222.871 166.965 222.967 166.58C223.063 166.196 223.159 165.812 223.255 165.524C223.447 165.139 223.544 164.851 223.736 164.659C223.928 164.371 224.216 164.179 224.408 164.083C224.696 163.891 224.888 163.891 225.081 163.891C225.273 163.891 225.465 163.987 225.561 164.179C225.753 164.371 225.849 164.563 225.945 164.851C226.041 165.139 226.041 165.428 226.041 165.812V166.292C226.041 166.388 226.041 166.484 225.945 166.484C225.945 166.58 225.849 166.58 225.849 166.677L223.544 168.021C223.544 168.214 223.544 168.31 223.64 168.406C223.64 168.502 223.736 168.598 223.832 168.598C223.928 168.598 224.024 168.694 224.12 168.598C224.216 168.598 224.312 168.598 224.408 168.502C224.6 168.406 224.696 168.31 224.792 168.214C224.888 168.118 224.985 168.021 224.985 167.925C225.081 167.829 225.081 167.733 225.081 167.733L225.177 167.637L225.753 167.349C225.849 167.349 225.849 167.349 225.849 167.349C225.849 167.349 225.945 167.445 225.945 167.541C225.945 167.637 225.945 167.829 225.849 168.021C225.753 168.214 225.657 168.406 225.561 168.598C225.465 168.79 225.273 169.078 225.081 169.27C224.888 169.462 224.696 169.655 224.408 169.847C224.12 170.039 223.928 170.039 223.736 170.039C223.544 170.039 223.351 169.943 223.255 169.751C223.063 169.559 222.967 169.366 222.967 169.078C222.967 168.502 222.871 168.118 222.871 167.733ZM224.6 165.236C224.504 165.332 224.312 165.428 224.216 165.524C224.12 165.62 224.024 165.716 224.024 165.908C223.928 166.004 223.928 166.196 223.832 166.292C223.832 166.388 223.736 166.58 223.736 166.677L225.273 165.812C225.273 165.716 225.273 165.62 225.177 165.524C225.177 165.428 225.081 165.332 225.081 165.236C224.985 165.139 224.985 165.139 224.888 165.139C224.792 165.043 224.696 165.139 224.6 165.236Z" fill="#455A64"/>
<path d="M227.005 168.694C226.909 168.694 226.909 168.694 226.909 168.694C226.909 168.694 226.813 168.598 226.813 168.502V167.83C226.813 167.733 226.812 167.637 226.909 167.637C226.909 167.541 227.005 167.541 227.005 167.445L230.943 165.14C231.039 165.14 231.039 165.14 231.039 165.14C231.039 165.14 231.135 165.236 231.135 165.332V166.004C231.135 166.1 231.135 166.196 231.039 166.196C231.039 166.292 230.943 166.292 230.943 166.389L227.005 168.694Z" fill="#455A64"/>
<path d="M235.171 156.109C235.267 156.109 235.267 156.109 235.267 156.109C235.267 156.109 235.363 156.205 235.363 156.302V157.07C235.363 157.166 235.363 157.262 235.267 157.358C235.267 157.454 235.171 157.55 235.171 157.55L234.21 159.76C234.402 159.664 234.594 159.664 234.787 159.664C234.979 159.664 235.075 159.76 235.171 159.856C235.267 159.952 235.363 160.144 235.459 160.336C235.555 160.528 235.555 160.817 235.555 161.105C235.555 161.489 235.555 161.777 235.459 162.162C235.363 162.45 235.267 162.834 235.075 163.122C234.883 163.41 234.691 163.699 234.498 163.891C234.306 164.083 234.018 164.275 233.73 164.467C233.442 164.659 233.154 164.755 232.865 164.755C232.673 164.755 232.481 164.755 232.289 164.659C232.097 164.563 232.001 164.467 231.905 164.275C231.809 164.083 231.809 163.891 231.809 163.699C231.809 163.603 231.809 163.506 231.905 163.506C231.905 163.41 232.001 163.41 232.001 163.314L232.577 163.026H232.673L232.769 163.122C232.769 163.218 232.865 163.218 232.865 163.314C232.865 163.314 232.961 163.41 233.057 163.41C233.154 163.41 233.25 163.41 233.346 163.41C233.442 163.41 233.634 163.314 233.73 163.218C234.018 163.026 234.21 162.834 234.402 162.546C234.595 162.258 234.691 161.969 234.691 161.681C234.691 161.393 234.595 161.201 234.402 161.201C234.21 161.201 234.018 161.201 233.73 161.393L233.154 161.681C233.057 161.681 233.057 161.681 233.057 161.681C233.057 161.681 232.961 161.585 232.961 161.489V160.721C232.961 160.624 232.961 160.528 233.057 160.432C233.057 160.336 233.154 160.24 233.154 160.24L234.114 158.127L232.289 159.183C232.193 159.183 232.193 159.183 232.193 159.183C232.193 159.183 232.097 159.087 232.097 158.991V158.223C232.097 158.127 232.097 158.031 232.193 158.031C232.193 157.935 232.289 157.935 232.289 157.839L235.171 156.109Z" fill="#455A64"/>
<path d="M167.25 229.019L201.161 209.422V238.818L167.25 258.416V229.019Z" stroke="#02BBA9" stroke-miterlimit="10" stroke-linecap="round" stroke-linejoin="round"/>
<path d="M167.25 252.556L178.49 230.364L190.786 238.146" stroke="#02BBA9" stroke-miterlimit="10" stroke-linecap="round" stroke-linejoin="round"/>
<path d="M187.137 235.84L193.093 226.617L201.162 231.613" stroke="#02BBA9" stroke-miterlimit="10" stroke-linecap="round" stroke-linejoin="round"/>
<path d="M186.945 222.485C188.29 221.716 189.346 222.293 189.346 223.926C189.346 225.463 188.29 227.384 186.945 228.153C185.6 228.921 184.543 228.345 184.543 226.712C184.543 225.175 185.6 223.254 186.945 222.485Z" stroke="#02BBA9" stroke-miterlimit="10" stroke-linecap="round" stroke-linejoin="round"/>
<path d="M265.622 185.696L264.373 184.543L265.718 181.661C265.91 181.373 265.718 180.988 265.43 180.796C265.142 180.604 264.758 180.796 264.565 181.084L263.413 183.582L262.452 182.718C262.164 182.525 261.78 182.525 261.587 182.718C261.395 183.006 261.395 183.39 261.587 183.582L262.836 184.735L261.491 187.617C261.299 187.905 261.491 188.289 261.78 188.481C261.876 188.481 261.972 188.578 262.068 188.578C262.26 188.578 262.548 188.481 262.644 188.193L263.797 185.696L264.758 186.56C264.854 186.656 265.046 186.752 265.142 186.752C265.334 186.752 265.43 186.656 265.622 186.56C265.91 186.368 265.91 185.888 265.622 185.696Z" fill="#455A64"/>
<path d="M206.926 228.253C206.926 229.598 207.983 230.078 209.231 229.406L259.858 200.201C261.107 199.433 262.164 197.8 262.164 196.455C262.164 195.11 261.107 194.63 259.858 195.302L209.231 224.506C207.983 225.275 206.926 226.908 206.926 228.253Z" fill="#E0E0E0"/>
<path d="M206.926 228.253C206.926 229.598 207.983 230.078 209.231 229.405L253.326 203.948C254.574 203.18 255.631 201.546 255.631 200.201C255.631 198.857 254.574 198.376 253.326 199.049L209.231 224.506C207.983 225.275 206.926 226.908 206.926 228.253Z" fill="#02BBA9"/>
<path d="M207.694 212.399C207.79 212.399 207.79 212.399 207.79 212.399C207.79 212.399 207.886 212.495 207.886 212.591V213.359C207.886 213.455 207.886 213.551 207.79 213.551C207.79 213.647 207.694 213.647 207.694 213.743L207.118 214.128C207.022 214.128 207.022 214.128 207.022 214.128C207.022 214.128 206.926 214.032 206.926 213.936V213.167C206.926 213.071 206.926 212.975 207.022 212.975C207.022 212.879 207.118 212.879 207.118 212.783L207.694 212.399ZM207.79 219.507C207.79 219.603 207.79 219.7 207.694 219.7C207.694 219.796 207.598 219.796 207.598 219.892L207.118 220.18C207.022 220.18 207.022 220.18 207.022 220.18C207.022 220.18 206.926 220.084 206.926 219.988V215.088C206.926 214.992 206.926 214.896 207.022 214.896C207.022 214.8 207.118 214.8 207.118 214.704L207.598 214.416C207.694 214.416 207.694 214.416 207.694 214.416C207.694 214.416 207.79 214.512 207.79 214.608V219.507Z" fill="#455A64"/>
<path d="M209.617 213.746C209.713 213.457 209.905 213.265 210.001 213.073C210.193 212.881 210.289 212.689 210.482 212.593C210.77 212.401 210.962 212.401 211.154 212.401C211.346 212.497 211.442 212.593 211.538 212.785C211.634 212.593 211.634 212.401 211.73 212.305C211.826 212.113 211.922 212.016 212.019 211.824C212.115 211.728 212.211 211.536 212.307 211.44C212.403 211.344 212.499 211.248 212.595 211.248C212.883 211.056 213.075 211.056 213.267 211.056C213.46 211.056 213.556 211.152 213.652 211.344C213.748 211.536 213.844 211.728 213.844 212.016C213.844 212.305 213.94 212.593 213.94 212.881V215.667C213.94 215.763 213.94 215.859 213.844 215.859C213.844 215.955 213.748 215.955 213.748 216.051L213.267 216.339C213.171 216.339 213.171 216.339 213.171 216.339C213.171 216.339 213.075 216.243 213.075 216.147V213.361C213.075 212.881 212.979 212.593 212.883 212.497C212.787 212.401 212.595 212.401 212.403 212.497C212.211 212.593 212.115 212.785 211.922 213.073C211.826 213.361 211.73 213.65 211.73 214.13V216.916C211.73 217.012 211.73 217.108 211.634 217.108C211.634 217.204 211.538 217.204 211.538 217.3L211.058 217.588C210.962 217.588 210.962 217.588 210.962 217.588C210.962 217.588 210.866 217.492 210.866 217.396V214.61C210.866 214.13 210.77 213.842 210.674 213.746C210.578 213.65 210.385 213.65 210.193 213.746C210.001 213.842 209.809 214.034 209.713 214.322C209.617 214.61 209.521 214.994 209.521 215.379V218.165C209.521 218.261 209.521 218.357 209.425 218.357C209.425 218.453 209.329 218.453 209.329 218.549L208.848 218.837C208.752 218.837 208.752 218.837 208.752 218.837C208.752 218.837 208.656 218.741 208.656 218.645V213.746C208.656 213.65 208.656 213.554 208.752 213.554C208.752 213.457 208.848 213.457 208.848 213.361L209.329 213.073C209.425 213.073 209.425 213.073 209.425 213.073C209.425 213.073 209.521 213.169 209.521 213.265V213.746H209.617Z" fill="#455A64"/>
<path d="M214.995 211.537C214.995 211.345 215.091 211.153 215.091 210.961C215.187 210.768 215.283 210.576 215.379 210.288C215.476 210.096 215.668 209.904 215.86 209.712C216.052 209.52 216.244 209.327 216.436 209.231C216.628 209.135 216.917 209.039 217.013 209.039C217.205 209.039 217.397 209.039 217.493 209.135C217.589 209.231 217.685 209.423 217.781 209.616C217.877 209.808 217.877 210.192 217.877 210.48V213.554C217.877 213.65 217.877 213.746 217.781 213.746C217.781 213.842 217.685 213.842 217.685 213.939L217.205 214.227C217.109 214.227 217.109 214.227 217.109 214.227C217.109 214.227 217.013 214.131 217.013 214.035V213.65C216.917 213.939 216.82 214.131 216.628 214.419C216.436 214.707 216.244 214.899 215.956 214.995C215.764 215.091 215.572 215.187 215.476 215.187C215.283 215.187 215.187 215.187 215.091 215.091C214.995 214.995 214.899 214.899 214.803 214.707C214.707 214.515 214.707 214.323 214.707 214.131C214.707 213.65 214.803 213.17 214.995 212.786C215.187 212.401 215.476 212.017 215.86 211.729L216.917 210.768C216.917 210.48 216.82 210.288 216.724 210.288C216.628 210.288 216.436 210.288 216.244 210.384C216.148 210.48 216.052 210.48 215.956 210.576C215.86 210.672 215.86 210.768 215.764 210.864C215.764 210.96 215.668 210.96 215.668 211.057L215.572 211.153L214.899 211.537H214.803C214.995 211.633 214.995 211.537 214.995 211.537ZM216.148 213.842C216.34 213.746 216.436 213.65 216.532 213.458C216.628 213.362 216.724 213.17 216.82 212.978C216.917 212.786 216.917 212.69 217.013 212.498C217.013 212.305 217.109 212.209 217.109 212.017V211.921L216.148 212.69C215.956 212.882 215.86 212.978 215.764 213.17C215.668 213.266 215.668 213.458 215.668 213.65C215.668 213.842 215.764 213.842 215.86 213.842C215.86 213.939 215.956 213.842 216.148 213.842Z" fill="#455A64"/>
<path d="M220.375 213.553C220.471 213.457 220.567 213.457 220.664 213.361C220.76 213.265 220.856 213.169 220.952 212.977C221.048 212.785 221.144 212.689 221.144 212.496C221.24 212.304 221.24 212.112 221.24 211.92V211.536C221.24 211.632 221.144 211.728 221.144 211.824C221.048 211.92 221.048 212.016 220.952 212.112C220.856 212.208 220.76 212.304 220.664 212.4C220.567 212.496 220.471 212.592 220.279 212.689C220.087 212.785 219.895 212.881 219.703 212.881C219.511 212.881 219.319 212.785 219.223 212.592C219.126 212.4 219.03 212.208 218.934 212.016C218.838 211.728 218.838 211.44 218.838 211.151C218.838 211.055 218.838 210.959 218.838 210.767C218.838 210.671 218.838 210.479 218.838 210.383C218.838 210.095 218.934 209.71 218.934 209.422C219.03 209.038 219.126 208.75 219.223 208.462C219.319 208.173 219.511 207.885 219.703 207.693C219.895 207.405 220.087 207.309 220.279 207.117C220.375 207.021 220.567 207.021 220.664 206.925C220.76 206.925 220.856 206.925 220.952 206.925C221.048 206.925 221.144 206.925 221.144 207.021C221.24 207.021 221.24 207.117 221.24 207.117V206.829C221.24 206.732 221.24 206.636 221.336 206.636C221.336 206.54 221.432 206.54 221.432 206.444L221.912 206.156C222.008 206.156 222.008 206.156 222.008 206.156C222.008 206.156 222.105 206.252 222.105 206.348V211.248C222.105 212.112 221.912 212.785 221.624 213.457C221.336 214.033 220.856 214.514 220.375 214.802C220.183 214.898 219.895 214.994 219.703 214.994C219.511 214.994 219.319 214.994 219.223 214.898C219.03 214.802 218.934 214.706 218.838 214.61C218.742 214.418 218.742 214.322 218.742 214.033C218.742 213.937 218.742 213.841 218.838 213.841C218.838 213.745 218.934 213.745 218.934 213.649L219.415 213.361C219.511 213.361 219.511 213.361 219.607 213.361L219.703 213.457C219.799 213.553 219.799 213.553 219.991 213.649C219.991 213.745 220.183 213.649 220.375 213.553ZM219.607 209.903C219.607 210.095 219.607 210.287 219.607 210.479C219.607 210.959 219.703 211.151 219.895 211.344C220.087 211.44 220.279 211.44 220.471 211.344C220.664 211.248 220.856 210.959 221.048 210.671C221.24 210.383 221.24 209.999 221.336 209.614C221.336 209.518 221.336 209.326 221.336 209.23C221.336 209.134 221.336 208.942 221.336 208.846C221.336 208.462 221.24 208.27 221.048 208.173C220.856 208.077 220.664 208.077 220.471 208.173C220.279 208.27 220.087 208.462 219.895 208.75C219.703 209.134 219.607 209.518 219.607 209.903Z" fill="#455A64"/>
<path d="M222.871 208.365C222.871 207.981 222.871 207.597 222.967 207.212C223.063 206.828 223.159 206.444 223.255 206.156C223.447 205.771 223.544 205.483 223.736 205.291C223.928 205.003 224.216 204.811 224.408 204.715C224.696 204.523 224.888 204.523 225.081 204.523C225.273 204.523 225.465 204.619 225.561 204.811C225.753 205.003 225.849 205.195 225.945 205.483C226.041 205.771 226.041 206.06 226.041 206.444V206.924C226.041 207.02 226.041 207.116 225.945 207.116C225.945 207.212 225.849 207.212 225.849 207.309L223.544 208.653C223.544 208.846 223.544 208.942 223.64 209.038C223.64 209.134 223.736 209.23 223.832 209.23C223.928 209.23 224.024 209.326 224.12 209.23C224.216 209.23 224.312 209.23 224.408 209.134C224.6 209.038 224.696 208.942 224.792 208.846C224.888 208.749 224.985 208.653 224.985 208.557C225.081 208.461 225.081 208.365 225.081 208.365L225.177 208.269L225.753 207.981C225.849 207.981 225.849 207.981 225.849 207.981C225.849 207.981 225.945 208.077 225.945 208.173C225.945 208.269 225.945 208.461 225.849 208.653C225.753 208.846 225.657 209.038 225.561 209.23C225.465 209.422 225.273 209.71 225.081 209.902C224.888 210.094 224.696 210.287 224.408 210.479C224.12 210.671 223.928 210.671 223.736 210.671C223.544 210.671 223.351 210.575 223.255 210.383C223.063 210.19 222.967 209.998 222.967 209.71C222.967 209.134 222.871 208.749 222.871 208.365ZM224.6 205.771C224.504 205.868 224.312 205.964 224.216 206.06C224.12 206.156 224.024 206.252 224.024 206.444C223.928 206.54 223.928 206.732 223.832 206.828C223.832 206.924 223.736 207.116 223.736 207.212L225.273 206.348C225.273 206.252 225.273 206.156 225.177 206.06C225.177 205.964 225.081 205.868 225.081 205.771C224.985 205.675 224.985 205.675 224.888 205.675C224.792 205.675 224.696 205.675 224.6 205.771Z" fill="#455A64"/>
<path d="M227.005 209.328C226.909 209.328 226.909 209.328 226.909 209.328C226.909 209.328 226.813 209.232 226.813 209.136V208.463C226.813 208.367 226.812 208.271 226.909 208.271C226.909 208.175 227.005 208.175 227.005 208.079L230.943 205.774C231.039 205.774 231.039 205.774 231.039 205.774C231.039 205.774 231.135 205.87 231.135 205.966V206.638C231.135 206.734 231.135 206.83 231.039 206.83C231.039 206.926 230.943 206.926 230.943 207.022L227.005 209.328Z" fill="#455A64"/>
<path d="M234.209 204.523C234.113 204.523 234.113 204.523 234.113 204.523C234.113 204.523 234.017 204.427 234.017 204.331V203.082L231.903 204.331C231.807 204.331 231.807 204.331 231.807 204.331C231.807 204.331 231.711 204.235 231.711 204.139V203.37C231.711 203.274 231.711 203.178 231.711 203.082C231.711 202.986 231.807 202.89 231.807 202.794L233.92 197.606C234.017 197.414 234.113 197.222 234.209 197.222L234.689 196.934C234.785 196.934 234.785 196.934 234.785 196.934C234.785 196.934 234.881 197.03 234.881 197.126V201.257L235.458 200.872C235.554 200.872 235.554 200.872 235.554 200.872C235.554 200.872 235.65 200.968 235.65 201.065V201.833C235.65 201.929 235.65 202.025 235.554 202.025C235.554 202.121 235.458 202.121 235.458 202.217L234.881 202.602V203.85C234.881 203.947 234.881 204.043 234.785 204.043C234.785 204.139 234.689 204.139 234.689 204.235L234.209 204.523ZM234.017 201.737V199.527L232.864 202.409L234.017 201.737Z" fill="#455A64"/>
<path d="M68.4942 351.505L78.7732 345.549C78.7732 345.549 88.0916 326.048 84.4411 306.643C80.4064 285.412 71.3762 280.417 65.4201 282.818C59.464 285.22 57.0623 292.521 65.2279 307.315C71.9526 319.323 72.0486 335.366 68.4942 351.505Z" fill="#02BBA9"/>
<path d="M73.4885 349.105C73.6806 349.105 73.8728 349.009 73.9688 348.817C80.5974 328.547 80.8856 300.112 68.3009 287.239C68.1088 287.047 67.8206 287.047 67.6285 287.239C67.4363 287.431 67.4363 287.719 67.6285 287.911C79.4446 300.016 79.6367 328.259 73.0082 348.529C72.9121 348.817 73.1042 349.009 73.2964 349.105C73.3924 349.105 73.3924 349.105 73.4885 349.105Z" fill="white"/>
<path d="M50.0492 362.169C48.9925 362.745 46.783 361.4 45.9184 360.92C44.4774 359.959 43.3246 358.614 42.5561 357.077C41.6915 355.252 41.4033 353.331 41.6915 351.313C41.8836 350.257 42.1718 349.296 42.46 348.239C42.7482 347.278 43.0364 346.318 43.3246 345.261C43.6128 344.3 43.901 343.244 43.8049 342.283C43.5167 340.266 41.7875 338.825 40.1544 337.672C38.3292 336.327 36.5039 334.502 36.5039 332.1C36.5039 330.179 37.4646 328.45 38.6174 327.009C39.7701 325.568 41.1151 324.223 42.1718 322.686C42.9403 321.533 43.5167 320.284 43.4207 318.939C43.3246 318.074 43.0364 317.306 42.5561 316.537C41.6915 315 40.5387 313.463 39.9623 311.83C39.3859 310.197 39.4819 307.988 40.8269 306.835C41.8836 305.874 43.5167 305.682 45.0538 305.778C46.3987 305.874 47.7436 306.451 48.8964 307.123C52.739 309.236 54.9486 313.848 59.0794 315.481C60.6164 316.153 62.3456 316.249 64.0748 316.73C65.7079 317.21 67.4371 317.978 68.2056 319.515C69.7427 322.493 66.9568 326.24 68.0135 329.41C68.9742 332.196 71.664 333.349 73.2011 335.847C73.8735 336.999 74.0657 338.248 73.8735 339.497C73.6814 341.707 73.3932 343.34 72.3365 345.741C71.4719 347.759 68.8781 351.313 68.8781 351.313C68.686 351.409 50.2413 362.073 50.0492 362.169Z" fill="#02BBA9"/>
<path d="M61.0986 356.211C61.2907 356.211 61.4828 356.019 61.4828 355.827C63.5002 340.072 55.911 318.841 44.7674 308.466C44.5752 308.274 44.3831 308.274 44.191 308.466C43.9988 308.658 43.9988 308.851 44.191 309.043C55.2385 319.226 62.6356 340.168 60.7143 355.635C60.6182 355.923 60.8104 356.115 61.0986 356.211Z" fill="white"/>
<path d="M59.1765 336.039C59.2726 336.039 59.4647 335.943 59.4647 335.847C59.5608 335.655 59.5608 335.367 59.3687 335.271C53.2204 330.659 43.7099 331.428 43.3257 331.428C43.1335 331.428 42.9414 331.62 42.9414 331.908C42.9414 332.1 43.1335 332.293 43.4217 332.293C43.5178 332.293 52.9323 331.524 58.8883 335.943C58.9844 336.039 59.0805 336.039 59.1765 336.039Z" fill="white"/>
<path d="M58.2147 332.195C58.4068 332.195 58.599 332.003 58.599 331.811C58.8872 324.606 64.3629 320.283 64.3629 320.187C64.5551 320.091 64.5551 319.802 64.459 319.61C64.3629 319.418 64.0747 319.418 63.8826 319.514C63.6905 319.706 58.1186 324.125 57.7344 331.715C57.8304 332.003 58.0226 332.195 58.2147 332.195Z" fill="white"/>
<path d="M317.211 136.316C316.922 141.311 315.866 162.542 316.25 164.655C316.922 168.402 328.258 185.213 328.258 185.213C328.258 185.213 328.931 191.938 319.9 194.916C317.211 190.113 307.796 175.703 305.971 171.572C305.298 170.035 304.914 167.345 305.202 164.079C306.067 154.184 308.469 139.582 308.661 136.412L317.211 136.316Z" fill="#FFA8A7"/>
<path d="M330.179 183.483C329.41 182.714 326.048 180.216 324.895 178.583C321.052 173.204 318.747 168.977 318.747 168.977C314.904 168.593 308.948 173.684 309.044 178.679C311.158 183.579 315.577 189.823 319.323 195.299L330.179 183.483Z" fill="#02BBA9"/>
<path d="M352.756 335.847L345.935 336.135L345.551 322.59L352.467 322.398L352.756 335.847Z" fill="#FFA8A7"/>
<path d="M345.839 332.675V331.714C345.167 332.002 343.341 337.19 341.228 340.36C339.595 342.762 334.888 345.644 334.215 347.853C333.543 350.159 338.442 351.312 340.459 350.831C342.765 350.351 346.416 349.294 348.625 346.7C349.874 345.356 350.546 342.281 351.315 341.129C352.083 339.976 354.005 338.727 354.389 337.382C354.581 336.71 354.293 335.077 353.909 333.828C353.524 332.675 353.14 331.33 352.756 331.426C352.756 331.618 352.756 332.195 352.756 332.195C352.276 332.771 350.931 333.347 349.394 333.443C348.241 333.636 345.839 333.443 345.839 332.675Z" fill="#263238"/>
<path d="M331.718 324.124L324.897 324.605L324.129 310.387L331.334 310.003L331.718 324.124Z" fill="#FFA8A7"/>
<path d="M324.704 322.107C324.319 322.107 323.551 322.78 322.878 323.644C322.014 324.701 320.765 325.758 318.075 327.391C315.673 328.928 310.39 330.945 307.412 332.098C305.971 332.578 305.49 334.692 307.892 336.325C310.582 338.15 313.752 337.862 317.979 336.805C320.285 336.229 324.127 333.635 326.241 333.251C328.066 332.866 331.716 332.77 333.446 331.137C333.734 329.12 333.638 327.967 333.35 326.718C332.869 324.797 332.197 321.819 331.62 321.915V322.587C330.852 323.836 326.625 324.509 324.8 323.644L324.704 322.107Z" fill="#263238"/>
<path d="M351.505 231.613C351.697 238.146 352.466 283.2 352.466 283.2C352.658 285.026 354.579 288.388 354.964 295.113C355.444 304.911 352.946 328.159 352.946 328.159C352.946 328.159 349.68 330.177 345.357 328.543C345.357 328.543 340.746 295.881 339.209 286.178C337.864 277.244 337.576 277.917 335.174 255.053L333.061 275.131C333.061 275.131 334.502 280.126 334.213 285.986C334.021 290.501 332.196 318.361 332.196 318.361C332.196 318.361 329.026 320.666 324.319 319.225C324.319 319.225 319.804 279.646 319.515 275.515C319.323 270.808 318.555 229.788 318.555 229.788L351.505 231.613Z" fill="#455A64"/>
<path d="M333.539 246.792C333.539 246.792 330.369 246.215 326.238 242.373C326.238 242.373 327.391 245.447 331.906 247.752L333.539 255.15L333.155 272.922L335.076 255.15L333.539 246.792Z" fill="#37474F"/>
<path d="M348.434 186.942C351.892 188.96 353.045 190.208 353.717 191.746C354.294 193.09 354.87 193.187 354.87 195.78L351.22 213.168L351.604 231.709C341.805 236.896 329.028 237.665 318.557 229.98C318.557 229.98 317.693 199.143 318.941 193.667C320.19 188.191 323.264 183.292 328.356 182.139C330.181 181.755 344.015 184.733 344.015 184.733C344.015 184.733 345.936 185.597 348.434 186.942Z" fill="#F0F0F0"/>
<path d="M331.813 169.841C337.012 169.841 341.227 165.626 341.227 160.426C341.227 155.227 337.012 151.012 331.813 151.012C326.613 151.012 322.398 155.227 322.398 160.426C322.398 165.626 326.613 169.841 331.813 169.841Z" fill="#263238"/>
<path d="M348.146 167.152C348.146 167.152 346.609 174.26 346.032 175.509C345.456 176.662 344.207 177.046 344.207 177.046L344.303 172.051L348.146 167.152Z" fill="#263238"/>
<path d="M346.222 156.872C346.222 156.872 347.855 156.584 349.104 157.929C350.353 159.177 349.681 163.212 348.144 167.151L345.262 167.439L346.222 156.872Z" fill="#263238"/>
<path d="M344.401 167.438C344.977 167.823 345.842 166.67 346.514 165.901C347.187 165.133 349.492 164.172 350.645 166.574C351.798 169.072 349.588 172.338 347.763 172.914C344.593 173.875 344.112 171.857 344.112 171.857L343.92 184.538C339.982 189.534 329.222 189.149 333.737 183.962V179.447C333.737 179.447 331.24 179.639 329.799 179.447C327.493 179.062 326.148 177.429 325.38 175.028C324.419 171.761 323.939 166.19 324.419 159.849C325.187 151.203 335.563 151.107 340.942 154.566C346.418 158.024 344.401 167.438 344.401 167.438Z" fill="#FFA8A7"/>
<path d="M344.399 168.399C344.687 168.399 345.744 166.574 346.512 165.902C347.473 165.037 346.224 156.871 346.224 156.871C346.224 156.871 347.185 154.854 345.263 152.741C343.919 151.204 342.382 150.339 338.539 150.051C336.233 149.955 332.583 150.243 330.469 150.435C326.627 150.723 325.186 149.763 322.976 149.09C320.767 148.418 320.575 154.47 325.378 156.775C325.378 156.775 326.819 157.64 330.469 158.12C334.12 158.601 339.884 158.024 340.652 157.928C341.709 157.736 341.901 158.793 342.478 161.675C342.958 164.172 343.438 168.399 344.399 168.399Z" fill="#263238"/>
<path d="M346.225 157.544L349.683 155.719C349.203 154.758 348.05 154.374 347.089 154.854C346.033 155.334 345.648 156.583 346.225 157.544Z" fill="#263238"/>
<path d="M333.737 179.543C333.737 179.543 338.924 178.486 340.653 177.525C341.902 176.853 342.863 175.796 343.151 175.028C343.151 175.028 342.767 176.565 341.71 177.91C340.365 179.639 333.641 180.792 333.641 180.792L333.737 179.543Z" fill="#F28F8F"/>
<path d="M334.023 166.193C334.023 166.769 334.504 167.249 335.08 167.249C335.657 167.249 336.137 166.769 336.137 166.193C336.137 165.616 335.657 165.136 335.08 165.136C334.504 165.136 334.023 165.616 334.023 166.193Z" fill="#263238"/>
<path d="M335.082 162.253L337.292 163.502C337.58 162.83 337.388 162.061 336.811 161.773C336.139 161.389 335.466 161.677 335.082 162.253Z" fill="#263238"/>
<path d="M334.218 173.301L331.816 174.166C332.009 174.838 332.777 175.222 333.45 174.934C334.122 174.742 334.41 173.973 334.218 173.301Z" fill="#F28F8F"/>
<path d="M325.09 163.118L327.107 161.581C326.723 161.004 325.955 160.908 325.378 161.292C324.802 161.773 324.706 162.541 325.09 163.118Z" fill="#263238"/>
<path d="M325.668 165.904C325.668 166.48 326.148 166.96 326.725 166.96C327.301 166.96 327.781 166.48 327.781 165.904C327.781 165.327 327.301 164.847 326.725 164.847C326.148 164.847 325.668 165.327 325.668 165.904Z" fill="#263238"/>
<path d="M330.949 164.945L330.661 171.093L327.395 170.036L330.949 164.945Z" fill="#F28F8F"/>
<path d="M309.43 34.4857V106.151C309.43 106.919 310.006 107.784 310.582 108.168L381.863 149.381C382.536 149.765 383.016 149.477 383.016 148.708V144.961L313.176 104.614V35.3503L310.582 33.8133C310.006 33.429 309.43 33.7172 309.43 34.4857Z" fill="#263238"/>
<path d="M330.468 64.941C330.564 64.8449 330.66 64.8449 330.66 64.7489L335.079 62.1551C335.751 61.7708 336.616 61.9629 337.096 62.6354L352.851 101.446L363.322 94.5293C363.418 94.4332 363.418 94.4332 363.514 94.3371L367.934 91.8394C368.606 91.4552 369.471 91.6473 369.951 92.3198L385.225 123.253V143.715L380.806 146.309L312.311 106.634C311.543 106.153 311.062 105.385 311.062 104.424V85.0188L330.468 64.941Z" fill="#02BBA9"/>
<path opacity="0.15" d="M330.468 64.941C330.564 64.8449 330.66 64.8449 330.66 64.7489L335.079 62.1551C335.751 61.7708 336.616 61.9629 337.096 62.6354L352.851 101.446L363.322 94.5293C363.418 94.4332 363.418 94.4332 363.514 94.3371L367.934 91.8394C368.606 91.4552 369.471 91.6473 369.951 92.3198L385.225 123.253V143.715L380.806 146.309L312.311 106.634C311.543 106.153 311.062 105.385 311.062 104.424V85.0188L330.468 64.941Z" fill="black"/>
<path d="M380.805 146.309V125.847L365.53 94.9136C365.05 94.1451 363.993 94.049 363.321 94.6254L348.719 104.232L332.676 65.2292C332.195 64.4607 331.043 64.2686 330.37 64.941L310.965 85.0188V104.424C310.965 105.289 311.445 106.153 312.214 106.634L380.805 146.309Z" fill="#02BBA9"/>
<path opacity="0.15" d="M348.719 104.233L353.33 115.377L350.448 103.08L348.719 104.233Z" fill="black"/>
<path d="M306.547 30.2607V119.89C306.547 120.659 307.123 121.523 307.7 121.908L384.072 166.002C384.168 166.002 384.168 166.098 384.264 166.098H384.36C385.033 166.386 385.897 166.29 386.474 166.002L388.587 164.849C389.26 164.465 389.74 163.504 389.74 162.832V73.2022C389.74 72.8179 389.644 72.4337 389.356 72.0494C389.163 71.6651 388.875 71.3769 388.491 71.1848L312.215 26.9945C311.542 26.6102 310.486 26.6102 309.813 26.9945L307.7 28.1473C307.123 28.4355 306.643 29.204 306.547 29.8765C306.547 29.8765 306.547 29.9725 306.547 30.0686C306.547 30.1647 306.547 30.2607 306.547 30.2607ZM309.429 34.4876C309.429 33.7191 310.005 33.4309 310.582 33.8152L381.862 75.0274C382.151 75.2196 382.439 75.5078 382.727 75.892C382.919 76.2763 383.111 76.6605 383.111 77.0448V148.71C383.111 149.478 382.535 149.767 381.959 149.382L310.678 108.17C310.005 107.786 309.525 106.825 309.525 106.153V34.4876H309.429Z" fill="#455A64"/>
<path d="M384.359 166.29C385.032 166.578 385.896 166.482 386.473 166.194L388.586 165.041C389.259 164.657 389.739 163.696 389.739 163.024V73.2021C389.739 72.8178 389.643 72.4336 389.355 72.0493C388.01 72.8178 386.569 73.6824 384.936 74.6431C385.128 75.0274 385.32 75.4116 385.32 75.7959V165.425C385.32 166.098 384.936 166.386 384.359 166.29Z" fill="#263238"/>
<path d="M306.547 30.2607V119.89C306.547 120.659 307.123 121.523 307.7 121.908L384.072 166.002C384.168 166.002 384.168 166.098 384.264 166.098H384.36C384.841 166.29 385.321 165.906 385.321 165.329V75.796C385.321 75.4117 385.225 75.0274 384.937 74.6432C384.744 74.2589 384.456 73.9707 384.072 73.7786L307.7 29.6843C307.123 29.3962 306.739 29.4922 306.547 30.0686C306.547 30.0686 306.547 30.1647 306.547 30.2607C306.547 30.2607 306.547 30.1647 306.547 30.2607ZM309.429 34.4876C309.429 33.7191 310.005 33.4309 310.582 33.8152L381.863 75.0274C382.151 75.2196 382.439 75.5078 382.727 75.892C382.919 76.2763 383.111 76.6606 383.111 77.0448V148.71C383.111 149.478 382.535 149.767 381.959 149.382L310.678 108.17C310.005 107.786 309.525 106.825 309.525 106.153V34.4876H309.429Z" fill="#37474F"/>
<path d="M355.155 75.892L353.426 73.0101L356.98 70.9927C357.845 70.5124 358.998 70.6084 360.343 71.377C363.032 72.914 365.146 76.5645 365.146 79.6386C365.146 81.1757 364.665 82.2324 363.801 82.7127L360.343 84.7301L358.709 81.9442C356.98 80.3111 355.635 78.1016 355.155 75.892Z" fill="#02BBA9"/>
<path opacity="0.15" d="M355.155 75.892L353.426 73.0101L356.98 70.9927C357.845 70.5124 358.998 70.6084 360.343 71.377C363.032 72.914 365.146 76.5645 365.146 79.6386C365.146 81.1757 364.665 82.2324 363.801 82.7127L360.343 84.7301L358.709 81.9442C356.98 80.3111 355.635 78.1016 355.155 75.892Z" fill="black"/>
<path d="M356.885 73.2006C354.195 71.6636 352.082 72.9124 352.082 75.9865C352.082 79.0606 354.195 82.7111 356.885 84.2482C359.575 85.7853 361.689 84.5364 361.689 81.4623C361.689 78.4843 359.479 74.7377 356.885 73.2006Z" fill="#02BBA9"/>
<path d="M364.665 187.714C365.625 187.522 366.682 190.692 367.066 193.382C367.451 196.071 367.931 200.202 366.682 200.683C365.433 201.163 363.512 197.512 362.839 194.534C362.167 191.652 362.455 187.81 364.665 187.714Z" fill="#02BBA9"/>
<path opacity="0.3" d="M364.665 187.714C365.625 187.522 366.682 190.692 367.066 193.382C367.451 196.071 367.931 200.202 366.682 200.683C365.433 201.163 363.512 197.512 362.839 194.534C362.167 191.652 362.455 187.81 364.665 187.714Z" fill="black"/>
<path d="M376.097 161.776C375.616 161.584 374.656 160.527 374.079 156.877C373.695 154.379 373.503 153.322 372.35 152.938C371.197 152.554 371.581 153.803 371.293 156.685C371.005 159.471 370.237 163.217 370.621 166.291C370.813 169.558 370.525 172.44 369.852 177.147C369.276 181.182 367.547 187.234 367.547 187.234C366.298 188.579 349.486 191.653 349.486 191.653C346.028 198.089 350.447 204.814 350.447 204.814C361.014 201.74 365.145 200.107 370.525 198.377C374.463 197.128 375.52 196.36 376.193 193.67C377.538 187.234 378.114 177.435 378.594 172.632C378.979 169.269 382.725 168.117 383.398 166.195L376.097 161.776Z" fill="#FFA8A7"/>
<path d="M350.736 188.868C349.872 189.061 348.335 190.117 347.758 191.75C347.278 193.191 345.357 204.143 351.697 205.776C352.274 205.68 355.252 204.527 359.382 203.374C363.417 202.222 366.779 200.781 366.779 200.781C364.282 200.396 362.072 189.541 364.762 187.812L350.736 188.868Z" fill="#02BBA9"/>
<path d="M321.821 130.457C320.957 129.881 321.821 127.383 322.013 124.597C322.205 121.715 322.878 120.563 321.629 120.755C320.476 120.947 320.092 121.908 319.227 124.309C318.555 126.135 317.979 127.191 317.402 127.864L312.215 124.79C310.678 126.615 309.237 127.672 308.948 130.842C308.468 136.317 308.372 137.662 307.892 141.985C307.315 146.308 317.114 137.182 317.114 137.182C317.498 133.82 321.533 132.571 322.205 130.746L321.821 130.457Z" fill="#FFA8A7"/>
</g>
<defs>
<clipPath id="clip0">
<rect width="420" height="400" fill="white"/>
</clipPath>
</defs>
</svg>
