<svg width="420" height="400" viewBox="0 0 420 400" fill="none" xmlns="http://www.w3.org/2000/svg">
<g clip-path="url(#clip0)">
<path d="M208.365 374.704L85.3291 303.642C80.557 300.865 80.557 296.353 85.3291 293.577L284.546 178.437C286.542 177.309 289.752 177.309 291.748 178.437L417.82 251.234C420.336 252.709 420.336 256.353 417.82 257.829L215.566 374.704C213.571 375.832 210.36 375.832 208.365 374.704Z" fill="#E0E0E0"/>
<path d="M377.487 246.671L366.962 240.54C366.962 240.54 364.407 217.956 366.144 200.482C368.597 175.854 384.436 146.321 403.341 153.27C422.247 160.219 394.655 185.255 388.524 206.102C382.29 226.949 377.487 246.671 377.487 246.671Z" fill="#27DEBF"/>
<path opacity="0.1" d="M377.487 246.671L366.962 240.54C366.962 240.54 364.407 217.956 366.144 200.482C368.597 175.854 384.436 146.321 403.341 153.27C422.247 160.219 394.655 185.255 388.524 206.102C382.29 226.949 377.487 246.671 377.487 246.671Z" fill="black"/>
<path d="M371.97 243.912C371.765 243.912 371.561 243.81 371.561 243.606C367.984 216.015 377.794 174.321 397.619 158.482C397.824 158.379 398.028 158.379 398.232 158.584C398.335 158.788 398.335 158.993 398.13 159.197C378.51 174.832 368.802 216.219 372.378 243.606C372.481 243.708 372.276 243.912 371.97 243.912C372.072 243.912 372.072 243.912 371.97 243.912Z" fill="white"/>
<path d="M383.108 251.066L375.648 246.774C375.648 246.774 374.421 231.241 381.984 212.438C388.626 196.088 404.976 182.394 413.254 185.256C421.531 188.117 421.327 193.942 417.239 200.073C413.254 206.204 388.728 220.818 383.108 251.066Z" fill="#27DEBF"/>
<path d="M378.51 251.474C378.51 251.474 378.408 251.474 378.51 251.474C378.306 251.474 378.102 251.27 378.102 251.066C380.554 212.438 400.072 193.533 411.824 190.569C412.029 190.467 412.233 190.671 412.335 190.876C412.437 191.08 412.233 191.285 412.029 191.387C399.664 194.453 381.269 214.993 378.919 251.066C378.817 251.27 378.715 251.474 378.51 251.474Z" fill="white"/>
<path d="M73.6721 249.635C73.6721 249.635 75.1028 226.949 61.9203 211.416C48.7378 195.985 31.6721 195.985 25.9495 198.949C20.2269 201.81 16.4459 210.088 26.2561 216.015C36.0663 221.942 56.8108 233.796 60.1831 244.321L73.6721 249.635Z" fill="#27DEBF"/>
<path opacity="0.1" d="M73.6721 249.635C73.6721 249.635 75.1028 226.949 61.9203 211.416C48.7378 195.985 31.6721 195.985 25.9495 198.949C20.2269 201.81 16.4459 210.088 26.2561 216.015C36.0663 221.942 56.8108 233.796 60.1831 244.321L73.6721 249.635Z" fill="black"/>
<path d="M67.541 244.014C67.2345 244.014 67.0301 243.81 67.0301 243.605C64.3732 218.466 39.2345 204.569 29.3221 203.036C29.0155 203.036 28.8111 202.729 28.9133 202.423C28.9133 202.116 29.2199 201.912 29.5264 202.014C39.7454 203.649 65.3951 217.853 68.1542 243.401C68.052 243.707 67.8476 244.014 67.541 244.014Z" fill="white"/>
<path d="M62.6391 238.29C59.369 230.728 55.588 227.356 44.8581 229.195C34.1281 231.035 35.661 230.728 22.4785 227.356C16.9603 225.925 10.7267 225.721 5.41282 228.071C0.916465 230.115 -2.4558 234.203 1.93836 238.597C6.84347 243.502 14.0989 245.137 19.515 249.429C20.6391 250.349 21.7632 251.473 22.3763 252.801C23.807 256.378 20.9457 260.465 21.7632 264.246C22.5807 267.925 26.5661 270.071 30.3471 270.276C34.1281 270.48 37.807 269.356 41.4858 268.947C45.1646 268.538 49.4566 268.947 52.0114 271.706C54.7705 274.67 54.8727 279.37 57.4274 282.436C61.3106 287.137 70.7121 288.363 75.8216 285.502L89.2084 277.838C98.0989 265.881 84.0989 256.48 76.8435 247.181C73.2668 242.786 64.6829 242.786 62.6391 238.29Z" fill="#27DEBF"/>
<path d="M80.9291 270.685C80.7247 270.685 80.6225 270.582 80.5204 270.48C65.2941 245.75 23.805 233.283 8.98751 232.159C8.68094 232.159 8.47656 231.852 8.47656 231.648C8.47656 231.341 8.78313 231.137 8.98751 231.137C23.9072 232.159 65.805 244.831 81.2357 269.867C81.3379 270.071 81.3379 270.378 81.0313 270.582C81.0313 270.685 81.0313 270.685 80.9291 270.685Z" fill="white"/>
<path d="M32.5983 259.035C32.3939 259.035 32.2917 258.933 32.1895 258.831C31.9851 258.626 32.0873 258.32 32.2917 258.116C32.8027 257.707 45.4742 248.408 57.8392 248.203C58.1457 248.203 58.3501 248.408 58.3501 248.714C58.3501 249.021 58.1457 249.225 57.8392 249.225C45.883 249.429 33.007 258.831 32.9049 258.933C32.8027 259.035 32.7005 259.035 32.5983 259.035Z" fill="white"/>
<path d="M79.9141 279.371C79.9141 282.028 81.8557 285.298 84.3082 286.729L208.264 358.262C210.717 359.693 214.702 359.693 217.155 358.262L386.79 260.364C389.243 258.933 391.184 255.663 391.184 253.006C391.184 250.35 389.243 247.079 386.79 245.649L262.834 174.116C260.381 172.685 256.396 172.685 253.943 174.116L84.3082 272.014C81.9579 273.444 79.9141 276.715 79.9141 279.371Z" fill="#37474F"/>
<path d="M131.111 245.035L84.4098 272.013C81.9572 273.444 80.0156 276.714 80.0156 279.371C80.0156 282.028 81.9572 285.298 84.4098 286.729L208.366 358.262C209.592 358.977 211.227 359.283 212.76 359.283V245.035H131.111Z" fill="#263238"/>
<path d="M75.8265 272.218C73.5783 270.889 71.6367 267.517 71.6367 264.758V116.787C71.6367 113.926 73.5783 110.553 76.0309 109.123L245.666 11.225C248.118 9.79436 251.9 9.79436 254.25 11.0206C256.498 12.3491 258.44 15.7214 258.44 18.4805V166.451C258.44 169.313 256.498 172.685 254.046 174.116L84.4104 272.013C81.9579 273.444 78.0747 273.546 75.8265 272.218Z" fill="#455A64"/>
<path d="M92.3812 123.635L72.9652 112.395C72.1477 113.825 71.6367 115.358 71.6367 116.789V264.759C71.6367 267.621 73.4761 270.993 75.8265 272.219C78.0747 273.548 81.9579 273.446 84.4104 272.015L103.724 260.876L92.3812 123.635Z" fill="#263238"/>
<path d="M79.9141 121.488V269.459C79.9141 272.32 81.8557 273.444 84.3082 272.013L253.943 174.116C256.396 172.685 258.337 169.313 258.337 166.451V18.4806C258.337 15.6192 256.396 14.4952 253.943 15.9258L84.3082 113.824C81.9579 115.254 79.9141 118.729 79.9141 121.488Z" fill="#37474F"/>
<path d="M84.4097 277.123L208.366 348.656C210.818 350.086 214.804 350.086 217.256 348.656L386.891 250.758C389.344 249.327 389.344 247.079 386.891 245.648L262.935 174.116C260.483 172.685 256.497 172.685 254.045 174.116L84.4097 272.013C81.9572 273.444 81.9572 275.692 84.4097 277.123Z" fill="#455A64"/>
<path d="M86.7624 122.099L251.595 26.8579C253.025 26.0403 254.251 26.6535 254.251 28.3907V156.435C254.251 158.172 253.025 160.216 251.595 161.033L86.7624 256.274C85.3317 257.091 84.1055 256.478 84.1055 254.741V126.697C84.1055 124.96 85.3317 122.916 86.7624 122.099Z" fill="white"/>
<path d="M98.8181 273.342L256.293 182.393C257.519 181.678 259.46 181.678 260.687 182.393L268.76 187.094C269.986 187.809 269.986 188.933 268.76 189.648L111.285 280.495C110.059 281.21 108.117 281.21 106.891 280.495L98.8181 275.897C97.5919 275.181 97.5919 273.955 98.8181 273.342Z" fill="#263238"/>
<path d="M119.564 285.298L277.039 194.349C278.265 193.634 280.207 193.634 281.433 194.349L330.995 222.962C332.221 223.678 332.221 224.802 330.995 225.517L173.725 316.262C172.499 316.977 170.557 316.977 169.331 316.262L119.564 287.853C118.338 287.137 118.338 286.013 119.564 285.298Z" fill="#263238"/>
<path d="M260.689 235.225L265.594 232.364C265.798 232.261 265.798 232.057 265.594 231.955L259.871 228.685C259.667 228.582 259.258 228.582 259.054 228.685L254.149 231.546C253.944 231.648 253.944 231.853 254.149 231.955L259.871 235.225C260.076 235.429 260.485 235.429 260.689 235.225ZM250.981 223.984L246.076 226.845C245.871 226.947 245.871 227.152 246.076 227.254L251.798 230.524C252.003 230.626 252.412 230.626 252.616 230.524L257.521 227.663C257.725 227.561 257.725 227.356 257.521 227.254L251.798 223.984C251.492 223.882 251.185 223.882 250.981 223.984ZM235.039 233.181L226.66 237.984C226.455 238.086 226.455 238.291 226.66 238.393L232.382 241.663C232.587 241.765 232.996 241.765 233.2 241.663L241.58 236.86C241.784 236.758 241.784 236.553 241.58 236.451L235.857 233.181C235.55 233.079 235.244 233.079 235.039 233.181ZM243.726 228.072L238.82 230.933C238.616 231.035 238.616 231.239 238.82 231.342L244.543 234.612C244.747 234.714 245.156 234.714 245.361 234.612L250.266 231.75C250.47 231.648 250.47 231.444 250.266 231.342L244.543 228.072C244.339 227.969 243.93 227.969 243.726 228.072ZM224.412 239.312L219.507 242.174C219.302 242.276 219.302 242.48 219.507 242.582L225.229 245.853C225.434 245.955 225.842 245.955 226.047 245.853L230.952 242.991C231.156 242.889 231.156 242.685 230.952 242.582L225.229 239.312C224.923 239.21 224.616 239.21 224.412 239.312ZM217.156 243.4L212.251 246.261C212.047 246.364 212.047 246.568 212.251 246.67L217.974 249.94C218.178 250.042 218.587 250.042 218.791 249.94L223.696 247.079C223.901 246.977 223.901 246.772 223.696 246.67L217.974 243.4C217.769 243.298 217.361 243.298 217.156 243.4ZM239.638 256.787L244.543 253.926C244.747 253.823 244.747 253.619 244.543 253.517L238.82 250.247C238.616 250.145 238.207 250.145 238.003 250.247L233.098 253.108C232.893 253.21 232.893 253.415 233.098 253.517L238.82 256.787C239.025 256.991 239.434 256.991 239.638 256.787ZM232.382 260.977L237.288 258.115C237.492 258.013 237.492 257.809 237.288 257.707L231.565 254.437C231.361 254.334 230.952 254.334 230.747 254.437L225.842 257.298C225.638 257.4 225.638 257.604 225.842 257.707L231.565 260.977C231.871 261.079 232.178 261.079 232.382 260.977ZM225.229 265.166L230.134 262.305C230.339 262.203 230.339 261.999 230.134 261.896L224.412 258.626C224.207 258.524 223.799 258.524 223.594 258.626L218.689 261.385C218.485 261.488 218.485 261.692 218.689 261.794L224.412 265.064C224.616 265.269 225.025 265.269 225.229 265.166ZM217.974 269.356L222.879 266.495C223.083 266.393 223.083 266.188 222.879 266.086L217.156 262.816C216.952 262.714 216.543 262.714 216.339 262.816L211.434 265.677C211.229 265.78 211.229 265.984 211.434 266.086L217.156 269.356C217.463 269.458 217.769 269.458 217.974 269.356ZM253.434 239.415L258.339 236.553C258.543 236.451 258.543 236.247 258.339 236.145L252.616 232.874C252.412 232.772 252.003 232.772 251.798 232.874L246.893 235.736C246.689 235.838 246.689 236.042 246.893 236.145L252.616 239.415C252.923 239.517 253.229 239.517 253.434 239.415ZM246.791 252.699L257.828 246.364C258.032 246.261 258.032 246.057 257.828 245.955L244.032 237.984C243.828 237.882 243.419 237.882 243.215 237.984L237.492 241.254C237.288 241.356 237.288 241.561 237.492 241.663L244.85 245.853C245.054 245.955 245.054 246.159 244.85 246.261L240.251 248.918C240.047 249.02 240.047 249.225 240.251 249.327L245.974 252.597C246.28 252.801 246.587 252.801 246.791 252.699ZM210.003 247.59L205.098 250.451C204.893 250.553 204.893 250.758 205.098 250.86L210.82 254.13C211.025 254.232 211.434 254.232 211.638 254.13L216.543 251.269C216.747 251.166 216.747 250.962 216.543 250.86L210.82 247.59C210.514 247.488 210.207 247.488 210.003 247.59ZM202.747 251.78L197.842 254.641C197.638 254.743 197.638 254.947 197.842 255.05L203.565 258.32C203.769 258.422 204.178 258.422 204.382 258.32L209.288 255.458C209.492 255.356 209.492 255.152 209.288 255.05L203.565 251.78C203.361 251.677 202.952 251.677 202.747 251.78ZM166.777 298.378C166.981 298.48 167.39 298.48 167.594 298.378L172.499 295.517C172.704 295.415 172.704 295.21 172.499 295.108L166.777 291.838C166.572 291.736 166.163 291.736 165.959 291.838L161.054 294.699C160.85 294.801 160.85 295.006 161.054 295.108L166.777 298.378ZM145.112 285.093L140.207 287.955C140.003 288.057 140.003 288.261 140.207 288.364L145.93 291.634C146.134 291.736 146.543 291.736 146.747 291.634L151.653 288.772C151.857 288.67 151.857 288.466 151.653 288.364L145.93 285.093C145.726 284.889 145.317 284.889 145.112 285.093ZM156.762 294.801C156.966 294.904 157.375 294.904 157.58 294.801L162.485 291.94C162.689 291.838 162.689 291.634 162.485 291.531L156.762 288.261C156.558 288.159 156.149 288.159 155.944 288.261L151.039 291.123C150.835 291.225 150.835 291.429 151.039 291.531L156.762 294.801ZM179.55 300.933L184.455 298.072C184.66 297.969 184.66 297.765 184.455 297.663L178.733 294.393C178.528 294.291 178.12 294.291 177.915 294.393L173.01 297.254C172.806 297.356 172.806 297.561 173.01 297.663L178.733 300.933C178.937 301.035 179.244 301.035 179.55 300.933ZM171.477 305.123C171.682 305.225 172.09 305.225 172.295 305.123L177.2 302.261C177.404 302.159 177.404 301.955 177.2 301.853L171.477 298.582C171.273 298.48 170.864 298.48 170.66 298.582L165.755 301.444C165.55 301.546 165.55 301.75 165.755 301.853L171.477 305.123ZM152.368 280.904L147.463 283.765C147.258 283.867 147.258 284.072 147.463 284.174L153.185 287.444C153.39 287.546 153.798 287.546 154.003 287.444L158.908 284.582C159.112 284.48 159.112 284.276 158.908 284.174L153.185 280.904C152.879 280.801 152.572 280.801 152.368 280.904ZM188.339 260.057L183.434 262.918C183.229 263.02 183.229 263.225 183.434 263.327L189.156 266.597C189.361 266.699 189.769 266.699 189.974 266.597L194.879 263.736C195.083 263.634 195.083 263.429 194.879 263.327L189.156 260.057C188.952 259.955 188.543 259.955 188.339 260.057ZM159.521 276.714L154.616 279.575C154.412 279.677 154.412 279.882 154.616 279.984L160.339 283.254C160.543 283.356 160.952 283.356 161.156 283.254L166.061 280.393C166.266 280.291 166.266 280.086 166.061 279.984L160.339 276.714C160.134 276.612 159.726 276.612 159.521 276.714ZM195.594 255.969L190.689 258.831C190.485 258.933 190.485 259.137 190.689 259.239L196.412 262.51C196.616 262.612 197.025 262.612 197.229 262.51L202.134 259.648C202.339 259.546 202.339 259.342 202.134 259.239L196.412 255.969C196.105 255.765 195.798 255.765 195.594 255.969ZM181.185 264.247L176.28 267.108C176.076 267.21 176.076 267.415 176.28 267.517L182.003 270.787C182.207 270.889 182.616 270.889 182.82 270.787L187.726 267.926C187.93 267.823 187.93 267.619 187.726 267.517L182.003 264.247C181.696 264.145 181.39 264.145 181.185 264.247ZM173.93 268.436L169.025 271.298C168.82 271.4 168.82 271.604 169.025 271.707L174.747 274.977C174.952 275.079 175.361 275.079 175.565 274.977L180.47 272.115C180.674 272.013 180.674 271.809 180.47 271.707L174.747 268.436C174.543 268.334 174.134 268.334 173.93 268.436ZM166.777 272.524L161.871 275.385C161.667 275.488 161.667 275.692 161.871 275.794L167.594 279.064C167.799 279.166 168.207 279.166 168.412 279.064L173.317 276.203C173.521 276.101 173.521 275.896 173.317 275.794L167.594 272.524C167.288 272.422 166.981 272.422 166.777 272.524ZM203.565 277.634L208.47 274.772C208.674 274.67 208.674 274.466 208.47 274.364L202.747 271.093C202.543 270.991 202.134 270.991 201.93 271.093L197.025 273.955C196.82 274.057 196.82 274.261 197.025 274.364L202.747 277.634C203.054 277.736 203.361 277.736 203.565 277.634ZM266.923 214.787L262.017 217.648C261.813 217.75 261.813 217.955 262.017 218.057L267.74 221.327C267.944 221.429 268.353 221.429 268.558 221.327L273.463 218.466C273.667 218.364 273.667 218.159 273.463 218.057L267.74 214.787C267.434 214.685 267.127 214.685 266.923 214.787ZM258.134 219.794L253.229 222.655C253.025 222.758 253.025 222.962 253.229 223.064L258.952 226.334C259.156 226.437 259.565 226.437 259.769 226.334L264.674 223.473C264.879 223.371 264.879 223.166 264.674 223.064L258.952 219.794C258.747 219.692 258.339 219.692 258.134 219.794ZM274.076 210.597L269.171 213.458C268.966 213.561 268.966 213.765 269.171 213.867L274.893 217.137C275.098 217.239 275.507 217.239 275.711 217.137L280.616 214.276C280.82 214.174 280.82 213.969 280.616 213.867L274.893 210.597C274.689 210.495 274.28 210.495 274.076 210.597ZM236.777 249.02L241.682 246.159C241.886 246.057 241.886 245.853 241.682 245.75L235.959 242.48C235.755 242.378 235.346 242.378 235.142 242.48L230.236 245.342C230.032 245.444 230.032 245.648 230.236 245.75L235.959 249.02C236.266 249.225 236.572 249.225 236.777 249.02ZM282.047 206.407C281.842 206.305 281.434 206.305 281.229 206.407L276.324 209.269C276.12 209.371 276.12 209.575 276.324 209.677L282.047 212.947C282.251 213.05 282.66 213.05 282.864 212.947L287.769 210.086C287.974 209.984 287.974 209.78 287.769 209.677L282.047 206.407ZM210.82 273.444L215.726 270.582C215.93 270.48 215.93 270.276 215.726 270.174L210.003 266.904C209.799 266.801 209.39 266.801 209.185 266.904L204.28 269.765C204.076 269.867 204.076 270.072 204.28 270.174L210.003 273.444C210.207 273.546 210.616 273.546 210.82 273.444ZM299.112 222.451L304.017 219.59C304.222 219.488 304.222 219.283 304.017 219.181L298.295 215.911C298.09 215.809 297.682 215.809 297.477 215.911L292.572 218.772C292.368 218.874 292.368 219.079 292.572 219.181L298.295 222.451C298.601 222.553 298.908 222.553 299.112 222.451ZM283.784 221.94L288.689 219.079C288.893 218.977 288.893 218.772 288.689 218.67L282.966 215.4C282.762 215.298 282.353 215.298 282.149 215.4L277.244 218.261C277.039 218.364 277.039 218.568 277.244 218.67L282.966 221.94C283.273 222.042 283.58 222.042 283.784 221.94ZM290.222 211.108C290.017 211.006 289.609 211.006 289.404 211.108L284.499 213.969C284.295 214.072 284.295 214.276 284.499 214.378L290.222 217.648C290.426 217.75 290.835 217.75 291.039 217.648L295.944 214.787C296.149 214.685 296.149 214.48 295.944 214.378L290.222 211.108ZM291.755 210.291L305.55 218.261C305.755 218.364 306.163 218.364 306.368 218.261L311.273 215.4C311.477 215.298 311.477 215.093 311.273 214.991L297.477 207.02C297.273 206.918 296.864 206.918 296.66 207.02L291.755 209.882C291.55 209.984 291.55 210.188 291.755 210.291ZM274.996 219.488L270.09 222.349C269.886 222.451 269.886 222.655 270.09 222.758L275.813 226.028C276.017 226.13 276.426 226.13 276.631 226.028L281.536 223.166C281.74 223.064 281.74 222.86 281.536 222.758L275.813 219.488C275.609 219.385 275.2 219.385 274.996 219.488ZM220.835 250.758L215.93 253.619C215.726 253.721 215.726 253.926 215.93 254.028L221.653 257.298C221.857 257.4 222.266 257.4 222.47 257.298L227.375 254.437C227.58 254.334 227.58 254.13 227.375 254.028L221.653 250.758C221.346 250.655 221.039 250.655 220.835 250.758ZM291.142 226.641C291.346 226.743 291.755 226.743 291.959 226.641L296.864 223.78C297.069 223.677 297.069 223.473 296.864 223.371L291.142 220.101C290.937 219.999 290.528 219.999 290.324 220.101L285.419 222.962C285.215 223.064 285.215 223.269 285.419 223.371L291.142 226.641ZM227.988 246.568L223.083 249.429C222.879 249.531 222.879 249.736 223.083 249.838L228.806 253.108C229.01 253.21 229.419 253.21 229.623 253.108L234.528 250.247C234.733 250.145 234.733 249.94 234.528 249.838L228.806 246.568C228.601 246.466 228.193 246.466 227.988 246.568ZM174.032 294.291C174.236 294.393 174.645 294.393 174.85 294.291L179.755 291.429C179.959 291.327 179.959 291.123 179.755 291.02L174.032 287.75C173.828 287.648 173.419 287.648 173.215 287.75L168.309 290.612C168.105 290.714 168.105 290.918 168.309 291.02L174.032 294.291ZM163.098 284.072L158.193 286.933C157.988 287.035 157.988 287.239 158.193 287.342L163.915 290.612C164.12 290.714 164.528 290.714 164.733 290.612L169.638 287.75C169.842 287.648 169.842 287.444 169.638 287.342L163.915 284.072C163.711 283.969 163.302 283.969 163.098 284.072ZM182.003 290.101L186.908 287.239C187.112 287.137 187.112 286.933 186.908 286.831L181.185 283.561C180.981 283.458 180.572 283.458 180.368 283.561L175.463 286.422C175.258 286.524 175.258 286.728 175.463 286.831L181.185 290.101C181.39 290.203 181.799 290.203 182.003 290.101ZM189.156 285.911L194.061 283.05C194.266 282.947 194.266 282.743 194.061 282.641L188.339 279.371C188.134 279.269 187.726 279.269 187.521 279.371L182.616 282.232C182.412 282.334 182.412 282.539 182.616 282.641L188.339 285.911C188.645 286.013 188.952 286.115 189.156 285.911ZM196.412 281.823L201.317 278.962C201.521 278.86 201.521 278.655 201.317 278.553L195.594 275.283C195.39 275.181 194.981 275.181 194.777 275.283L189.871 278.145C189.667 278.247 189.667 278.451 189.871 278.553L195.594 281.823C195.798 281.926 196.207 281.926 196.412 281.823ZM170.353 279.882L165.448 282.743C165.244 282.845 165.244 283.05 165.448 283.152L171.171 286.422C171.375 286.524 171.784 286.524 171.988 286.422L176.893 283.561C177.098 283.458 177.098 283.254 176.893 283.152L171.171 279.882C170.864 279.78 170.558 279.78 170.353 279.882ZM177.507 275.692L172.601 278.553C172.397 278.655 172.397 278.86 172.601 278.962L178.324 282.232C178.528 282.334 178.937 282.334 179.142 282.232L184.047 279.371C184.251 279.269 184.251 279.064 184.047 278.962L178.324 275.692C178.12 275.59 177.813 275.59 177.507 275.692ZM206.426 259.137L201.521 261.999C201.317 262.101 201.317 262.305 201.521 262.407L207.244 265.677C207.448 265.78 207.857 265.78 208.061 265.677L212.966 262.816C213.171 262.714 213.171 262.509 212.966 262.407L207.244 259.137C206.937 258.933 206.631 258.933 206.426 259.137ZM199.171 263.225L194.266 266.086C194.061 266.188 194.061 266.393 194.266 266.495L199.988 269.765C200.193 269.867 200.601 269.867 200.806 269.765L205.711 266.904C205.915 266.801 205.915 266.597 205.711 266.495L199.988 263.225C199.784 263.123 199.375 263.123 199.171 263.225ZM213.58 254.947L208.674 257.809C208.47 257.911 208.47 258.115 208.674 258.218L214.397 261.488C214.601 261.59 215.01 261.59 215.215 261.488L220.12 258.626C220.324 258.524 220.324 258.32 220.12 258.218L214.397 254.947C214.193 254.845 213.784 254.845 213.58 254.947ZM184.762 271.604L179.857 274.466C179.653 274.568 179.653 274.772 179.857 274.874L185.58 278.145C185.784 278.247 186.193 278.247 186.397 278.145L191.302 275.283C191.507 275.181 191.507 274.977 191.302 274.874L185.58 271.604C185.273 271.502 184.966 271.502 184.762 271.604ZM191.915 267.415L187.01 270.276C186.806 270.378 186.806 270.582 187.01 270.685L192.733 273.955C192.937 274.057 193.346 274.057 193.55 273.955L198.455 271.093C198.66 270.991 198.66 270.787 198.455 270.685L192.733 267.415C192.528 267.312 192.222 267.312 191.915 267.415ZM186.704 296.743L191.609 293.882C191.813 293.78 191.813 293.575 191.609 293.473L185.886 290.203C185.682 290.101 185.273 290.101 185.069 290.203L180.163 293.064C179.959 293.166 179.959 293.371 180.163 293.473L185.886 296.743C186.193 296.845 186.499 296.947 186.704 296.743ZM144.397 292.553L138.674 289.283C138.47 289.181 138.061 289.181 137.857 289.283L132.952 292.145C132.747 292.247 132.747 292.451 132.952 292.553L138.674 295.823C138.879 295.926 139.288 295.926 139.492 295.823L144.397 292.962C144.704 292.86 144.601 292.655 144.397 292.553ZM155.229 295.721L149.507 292.451C149.302 292.349 148.893 292.349 148.689 292.451L141.127 296.845C140.923 296.947 140.923 297.152 141.127 297.254L146.85 300.524C147.054 300.626 147.463 300.626 147.667 300.524L155.229 296.13C155.434 296.028 155.434 295.823 155.229 295.721ZM135.711 286.115L129.988 282.845C129.784 282.743 129.375 282.743 129.171 282.845L123.142 286.32C122.937 286.422 122.937 286.626 123.142 286.728L128.864 289.999C129.069 290.101 129.477 290.101 129.682 289.999L135.711 286.524C135.915 286.524 135.915 286.32 135.711 286.115ZM140.309 283.458C140.514 283.561 140.923 283.561 141.127 283.458L146.032 280.597C146.236 280.495 146.236 280.291 146.032 280.188L140.309 276.918C140.105 276.816 139.696 276.816 139.492 276.918L134.587 279.78C134.382 279.882 134.382 280.086 134.587 280.188L140.309 283.458ZM165.244 299.298L159.521 296.028C159.317 295.926 158.908 295.926 158.704 296.028L149.2 301.546C148.996 301.648 148.996 301.853 149.2 301.955L154.923 305.225C155.127 305.327 155.536 305.327 155.74 305.225L165.244 299.707C165.448 299.604 165.448 299.4 165.244 299.298ZM169.944 305.94L164.222 302.67C164.017 302.568 163.609 302.568 163.404 302.67L157.375 306.145C157.171 306.247 157.171 306.451 157.375 306.553L163.098 309.823C163.302 309.926 163.711 309.926 163.915 309.823L169.944 306.349C170.251 306.247 170.251 306.042 169.944 305.94ZM193.857 252.495C194.061 252.597 194.47 252.597 194.674 252.495L199.58 249.634C199.784 249.531 199.784 249.327 199.58 249.225L193.857 245.955C193.653 245.853 193.244 245.853 193.039 245.955L188.134 248.816C187.93 248.918 187.93 249.123 188.134 249.225L193.857 252.495ZM179.448 260.874C179.653 260.977 180.061 260.977 180.266 260.874L185.171 258.013C185.375 257.911 185.375 257.707 185.171 257.604L179.448 254.334C179.244 254.232 178.835 254.232 178.631 254.334L173.726 257.196C173.521 257.298 173.521 257.502 173.726 257.604L179.448 260.874ZM147.565 279.269C147.769 279.371 148.178 279.371 148.382 279.269L153.288 276.407C153.492 276.305 153.492 276.101 153.288 275.999L147.565 272.728C147.361 272.626 146.952 272.626 146.747 272.728L141.842 275.59C141.638 275.692 141.638 275.896 141.842 275.999L147.565 279.269ZM186.704 256.685C186.908 256.787 187.317 256.787 187.521 256.685L192.426 253.823C192.631 253.721 192.631 253.517 192.426 253.415L186.704 250.145C186.499 250.042 186.09 250.042 185.886 250.145L180.981 253.006C180.777 253.108 180.777 253.312 180.981 253.415L186.704 256.685ZM172.295 264.962C172.499 265.064 172.908 265.064 173.112 264.962L178.017 262.101C178.222 261.999 178.222 261.794 178.017 261.692L172.295 258.422C172.09 258.32 171.682 258.32 171.477 258.422L166.572 261.283C166.368 261.385 166.368 261.59 166.572 261.692L172.295 264.962ZM173.93 306.451C173.726 306.349 173.317 306.349 173.112 306.451L165.55 310.845C165.346 310.947 165.346 311.152 165.55 311.254L171.273 314.524C171.477 314.626 171.886 314.626 172.09 314.524L179.653 310.13C179.857 310.028 179.857 309.823 179.653 309.721L173.93 306.451ZM161.974 270.991C162.178 271.093 162.587 271.093 162.791 270.991L167.696 268.13C167.901 268.028 167.901 267.823 167.696 267.721L161.974 264.451C161.769 264.349 161.361 264.349 161.156 264.451L156.251 267.312C156.047 267.415 156.047 267.619 156.251 267.721L161.974 270.991ZM154.718 275.181C154.923 275.283 155.331 275.283 155.536 275.181L160.441 272.32C160.645 272.218 160.645 272.013 160.441 271.911L154.718 268.641C154.514 268.539 154.105 268.539 153.901 268.641L148.996 271.502C148.791 271.604 148.791 271.809 148.996 271.911L154.718 275.181ZM307.492 229.4C307.288 229.298 306.879 229.298 306.674 229.4L294.514 236.451C294.309 236.553 294.309 236.758 294.514 236.86L300.236 240.13C300.441 240.232 300.85 240.232 301.054 240.13L313.215 233.079C313.419 232.977 313.419 232.772 313.215 232.67L307.492 229.4ZM291.55 238.597C291.346 238.495 290.937 238.495 290.733 238.597L285.828 241.458C285.623 241.561 285.623 241.765 285.828 241.867L291.55 245.137C291.755 245.239 292.163 245.239 292.368 245.137L297.273 242.276C297.477 242.174 297.477 241.969 297.273 241.867L291.55 238.597ZM193.959 292.655L198.864 289.794C199.069 289.692 199.069 289.488 198.864 289.385L193.142 286.115C192.937 286.013 192.528 286.013 192.324 286.115L187.419 288.977C187.215 289.079 187.215 289.283 187.419 289.385L193.142 292.655C193.346 292.758 193.653 292.758 193.959 292.655ZM277.142 246.977C276.937 246.874 276.528 246.874 276.324 246.977L271.419 249.838C271.215 249.94 271.215 250.145 271.419 250.247L277.142 253.517C277.346 253.619 277.755 253.619 277.959 253.517L282.864 250.655C283.069 250.553 283.069 250.349 282.864 250.247L277.142 246.977ZM314.645 225.312C314.441 225.21 314.032 225.21 313.828 225.312L308.923 228.174C308.718 228.276 308.718 228.48 308.923 228.582L314.645 231.853C314.85 231.955 315.258 231.955 315.463 231.853L320.368 228.991C320.572 228.889 320.572 228.685 320.368 228.582L314.645 225.312ZM327.521 224.393L313.725 216.422C313.521 216.32 313.112 216.32 312.908 216.422L308.003 219.283C307.798 219.385 307.798 219.59 308.003 219.692L321.901 227.663C322.105 227.765 322.514 227.765 322.718 227.663L327.623 224.801C327.828 224.699 327.828 224.495 327.521 224.393ZM250.163 262.51C249.959 262.407 249.55 262.407 249.346 262.51L243.317 265.984C243.112 266.086 243.112 266.291 243.317 266.393L249.039 269.663C249.244 269.765 249.653 269.765 249.857 269.663L255.886 266.188C256.09 266.086 256.09 265.882 255.886 265.78L250.163 262.51ZM268.353 251.984C268.149 251.882 267.74 251.882 267.536 251.984L259.974 256.378C259.769 256.48 259.769 256.685 259.974 256.787L265.696 260.057C265.901 260.159 266.309 260.159 266.514 260.057L274.076 255.663C274.28 255.561 274.28 255.356 274.076 255.254L268.353 251.984ZM233.507 272.115C233.302 272.013 232.893 272.013 232.689 272.115L192.12 295.517C191.915 295.619 191.915 295.823 192.12 295.926L197.842 299.196C198.047 299.298 198.455 299.298 198.66 299.196L239.229 275.794C239.434 275.692 239.434 275.488 239.229 275.385L233.507 272.115ZM190.689 296.845C190.485 296.743 190.076 296.743 189.871 296.845L183.842 300.32C183.638 300.422 183.638 300.626 183.842 300.728L189.565 303.999C189.769 304.101 190.178 304.101 190.382 303.999L196.412 300.524C196.616 300.422 196.616 300.218 196.412 300.115L190.689 296.845ZM241.886 267.312C241.682 267.21 241.273 267.21 241.069 267.312L235.039 270.787C234.835 270.889 234.835 271.093 235.039 271.196L240.762 274.466C240.966 274.568 241.375 274.568 241.58 274.466L247.609 270.991C247.813 270.889 247.813 270.685 247.609 270.582L241.886 267.312ZM182.309 301.648C182.105 301.546 181.696 301.546 181.492 301.648L175.463 305.123C175.258 305.225 175.258 305.429 175.463 305.531L181.185 308.801C181.39 308.904 181.799 308.904 182.003 308.801L188.032 305.327C188.236 305.225 188.236 305.02 188.032 304.918L182.309 301.648ZM258.543 257.707C258.339 257.604 257.93 257.604 257.725 257.707L251.696 261.181C251.492 261.283 251.492 261.488 251.696 261.59L257.419 264.86C257.623 264.962 258.032 264.962 258.236 264.86L264.266 261.385C264.47 261.283 264.47 261.079 264.266 260.977L258.543 257.707ZM284.295 242.787C284.09 242.685 283.682 242.685 283.477 242.787L278.572 245.648C278.368 245.75 278.368 245.955 278.572 246.057L284.295 249.327C284.499 249.429 284.908 249.429 285.112 249.327L290.017 246.466C290.222 246.364 290.222 246.159 290.017 246.057L284.295 242.787ZM300.134 231.342L305.039 228.48C305.244 228.378 305.244 228.174 305.039 228.072L299.317 224.801C299.112 224.699 298.704 224.699 298.499 224.801L293.594 227.663C293.39 227.765 293.39 227.969 293.594 228.072L299.317 231.342C299.521 231.444 299.93 231.444 300.134 231.342ZM267.842 231.137L272.747 228.276C272.952 228.174 272.952 227.969 272.747 227.867L267.025 224.597C266.82 224.495 266.412 224.495 266.207 224.597L261.302 227.458C261.098 227.561 261.098 227.765 261.302 227.867L267.025 231.137C267.331 231.239 267.638 231.239 267.842 231.137ZM251.594 259.342L266.003 251.064C266.207 250.962 266.207 250.758 266.003 250.655L260.28 247.385C260.076 247.283 259.667 247.283 259.463 247.385L245.054 255.663C244.85 255.765 244.85 255.969 245.054 256.072L250.777 259.342C250.981 259.444 251.39 259.444 251.594 259.342ZM292.061 235.429C292.266 235.531 292.674 235.531 292.879 235.429L297.784 232.568C297.988 232.466 297.988 232.261 297.784 232.159L292.061 228.889C291.857 228.787 291.448 228.787 291.244 228.889L286.339 231.75C286.134 231.853 286.134 232.057 286.339 232.159L292.061 235.429ZM284.704 230.728L289.609 227.867C289.813 227.765 289.813 227.561 289.609 227.458L283.886 224.188C283.682 224.086 283.273 224.086 283.069 224.188L278.163 227.05C277.959 227.152 277.959 227.356 278.163 227.458L283.886 230.728C284.193 230.933 284.499 230.933 284.704 230.728ZM244.339 263.531L249.244 260.67C249.448 260.568 249.448 260.364 249.244 260.261L243.521 256.991C243.317 256.889 242.908 256.889 242.704 256.991L237.799 259.853C237.594 259.955 237.594 260.159 237.799 260.261L243.521 263.531C243.828 263.634 244.134 263.634 244.339 263.531ZM276.222 244.626C276.426 244.728 276.835 244.728 277.039 244.626L281.944 241.765C282.149 241.663 282.149 241.458 281.944 241.356L276.222 238.086C276.017 237.984 275.609 237.984 275.404 238.086L270.499 240.947C270.295 241.05 270.295 241.254 270.499 241.356L276.222 244.626ZM208.368 284.276L213.273 281.415C213.477 281.312 213.477 281.108 213.273 281.006L207.55 277.736C207.346 277.634 206.937 277.634 206.733 277.736L201.828 280.597C201.623 280.699 201.623 280.904 201.828 281.006L207.55 284.276C207.755 284.378 208.163 284.378 208.368 284.276ZM215.521 280.188L220.426 277.327C220.631 277.225 220.631 277.02 220.426 276.918L214.704 273.648C214.499 273.546 214.09 273.546 213.886 273.648L208.981 276.509C208.777 276.612 208.777 276.816 208.981 276.918L214.704 280.188C215.01 280.291 215.317 280.291 215.521 280.188ZM201.112 288.466L206.017 285.604C206.222 285.502 206.222 285.298 206.017 285.196L200.295 281.823C200.09 281.721 199.682 281.721 199.477 281.823L194.572 284.685C194.368 284.787 194.368 284.991 194.572 285.093L200.295 288.364C200.601 288.568 200.908 288.568 201.112 288.466ZM229.93 271.809L234.835 268.947C235.039 268.845 235.039 268.641 234.835 268.539L229.112 265.269C228.908 265.166 228.499 265.166 228.295 265.269L223.39 268.13C223.185 268.232 223.185 268.437 223.39 268.539L229.112 271.809C229.419 271.911 229.726 271.911 229.93 271.809ZM222.777 275.999L227.682 273.137C227.886 273.035 227.886 272.831 227.682 272.728L221.959 269.458C221.755 269.356 221.346 269.356 221.142 269.458L216.236 272.32C216.032 272.422 216.032 272.626 216.236 272.728L221.959 275.999C222.163 276.101 222.572 276.101 222.777 275.999ZM237.185 267.619L242.09 264.758C242.295 264.655 242.295 264.451 242.09 264.349L236.368 261.079C236.163 260.977 235.755 260.977 235.55 261.079L230.645 263.94C230.441 264.042 230.441 264.247 230.645 264.349L236.368 267.619C236.572 267.823 236.981 267.823 237.185 267.619ZM270.09 206.101C270.295 206.203 270.704 206.203 270.908 206.101L275.813 203.239C276.017 203.137 276.017 202.933 275.813 202.831L274.28 201.911C274.076 201.809 273.667 201.809 273.463 201.911L268.558 204.772C268.353 204.874 268.353 205.079 268.558 205.181L270.09 206.101ZM234.631 228.991C234.835 229.093 235.244 229.093 235.448 228.991L240.353 226.13C240.558 226.028 240.558 225.823 240.353 225.721L234.631 222.451C234.426 222.349 234.017 222.349 233.813 222.451L228.908 225.312C228.704 225.415 228.704 225.619 228.908 225.721L234.631 228.991ZM249.039 220.714C249.244 220.816 249.653 220.816 249.857 220.714L254.762 217.853C254.966 217.75 254.966 217.546 254.762 217.444L249.039 214.174C248.835 214.072 248.426 214.072 248.222 214.174L243.317 217.035C243.112 217.137 243.112 217.342 243.317 217.444L249.039 220.714ZM225.842 234.101C226.047 234.203 226.455 234.203 226.66 234.101L231.565 231.239C231.769 231.137 231.769 230.933 231.565 230.831L225.842 227.561C225.638 227.458 225.229 227.458 225.025 227.561L220.12 230.422C219.915 230.524 219.915 230.728 220.12 230.831L225.842 234.101ZM241.886 224.801C242.09 224.904 242.499 224.904 242.704 224.801L247.609 221.94C247.813 221.838 247.813 221.634 247.609 221.531L241.886 218.261C241.682 218.159 241.273 218.159 241.069 218.261L236.163 221.123C235.959 221.225 235.959 221.429 236.163 221.531L241.886 224.801ZM211.434 242.378C211.638 242.48 212.047 242.48 212.251 242.378L217.156 239.517C217.361 239.415 217.361 239.21 217.156 239.108L211.434 235.838C211.229 235.736 210.82 235.736 210.616 235.838L205.711 238.699C205.507 238.801 205.507 239.006 205.711 239.108L211.434 242.378ZM218.689 238.291C218.893 238.393 219.302 238.393 219.507 238.291L224.412 235.429C224.616 235.327 224.616 235.123 224.412 235.02L218.689 231.75C218.485 231.648 218.076 231.648 217.871 231.75L212.966 234.612C212.762 234.714 212.762 234.918 212.966 235.02L218.689 238.291ZM255.682 214.48C255.886 214.582 256.295 214.582 256.499 214.48L261.404 211.619C261.609 211.517 261.609 211.312 261.404 211.21L259.871 210.291C259.667 210.188 259.258 210.188 259.054 210.291L254.149 213.152C253.944 213.254 253.944 213.458 254.149 213.561L255.682 214.48ZM277.346 201.911C277.55 202.013 277.959 202.013 278.163 201.911L283.069 199.05C283.273 198.947 283.273 198.743 283.069 198.641L281.536 197.721C281.331 197.619 280.923 197.619 280.718 197.721L275.813 200.582C275.609 200.685 275.609 200.889 275.813 200.991L277.346 201.911ZM289.302 208.86C289.507 208.962 289.915 208.962 290.12 208.86L295.025 205.999C295.229 205.896 295.229 205.692 295.025 205.59L289.302 202.32C289.098 202.218 288.689 202.218 288.485 202.32L283.58 205.181C283.375 205.283 283.375 205.488 283.58 205.59L289.302 208.86ZM307.288 227.152L312.193 224.291C312.397 224.188 312.397 223.984 312.193 223.882L306.47 220.612C306.266 220.51 305.857 220.51 305.653 220.612L300.747 223.473C300.543 223.575 300.543 223.78 300.747 223.882L306.47 227.152C306.777 227.254 307.083 227.254 307.288 227.152ZM262.937 210.291C263.142 210.393 263.55 210.393 263.755 210.291L268.66 207.429C268.864 207.327 268.864 207.123 268.66 207.02L267.127 206.101C266.923 205.999 266.514 205.999 266.309 206.101L261.404 208.962C261.2 209.064 261.2 209.269 261.404 209.371L262.937 210.291ZM204.28 246.568C204.485 246.67 204.893 246.67 205.098 246.568L210.003 243.707C210.207 243.604 210.207 243.4 210.003 243.298L204.28 240.028C204.076 239.926 203.667 239.926 203.463 240.028L198.558 242.889C198.353 242.991 198.353 243.196 198.558 243.298L204.28 246.568Z" fill="#455A64"/>
<path d="M233.504 291.328L287.46 260.16L320.672 279.371L266.716 310.539L233.504 291.328Z" fill="#263238"/>
<path d="M113.636 134.57L274.483 41.7819C277.65 39.9425 280.205 41.4753 280.205 45.0519V169.621C280.205 171.256 278.979 173.402 277.548 174.22L112.716 269.461C111.286 270.278 110.059 269.563 110.059 267.928V140.906C109.957 138.556 111.592 135.694 113.636 134.57Z" fill="#F5F5F5"/>
<g clip-path="url(#clip1)">
<path d="M161.084 157.604L161.885 157.142C164.663 155.608 167.396 155.317 169.36 156.462C168.635 157.733 167.895 158.977 167.185 160.239C166.083 159.728 164.754 159.608 163.304 160.132C161.16 160.848 158.849 162.652 157.052 165.098C155.089 167.71 153.761 170.982 153.474 173.826C153.156 176.653 153.806 179.06 155.301 180.25C156.735 181.422 158.925 181.41 161.19 180.189C163.304 179.108 165.509 177.087 167.049 174.493C168.257 172.595 168.816 170.447 168.997 168.568C166.49 170.015 163.984 171.48 161.477 172.91V169.327L172.032 163.233C172.576 166.763 171.791 171.547 169.254 175.76C167.563 178.684 165.222 181.183 162.836 182.787C160.526 184.382 158.14 185.255 156.086 185.153C153.625 185.061 151.662 183.638 150.695 181.187C149.789 178.945 149.774 175.823 150.62 172.551C151.39 169.567 152.87 166.469 154.772 163.805C156.599 161.203 158.819 159.069 161.084 157.604Z" fill="#02BBA9"/>
<path d="M221.637 123.547L224.868 121.681V146.518C223.796 147.137 222.709 147.783 221.637 148.367C221.652 140.096 221.637 131.826 221.637 123.547Z" fill="#02BBA9"/>
<path d="M179.219 156.649C181.212 155.064 183.372 154.304 185.018 154.728C186.512 155.082 187.554 156.394 187.872 158.298C188.279 160.48 187.766 163.42 186.407 166.118C184.942 169.103 182.541 171.637 180.2 172.815C178.056 173.914 175.972 173.882 174.704 172.597C173.269 171.198 172.922 168.338 173.707 165.276C174.492 162.022 176.712 158.601 179.219 156.649ZM179.672 159.692C178.856 160.407 178.101 161.382 177.558 162.461C176.093 165.324 176.184 168.559 177.799 169.505C178.721 170.051 180.11 169.754 181.393 168.717C182.586 167.785 183.628 166.261 184.202 164.712C185.199 162.067 184.912 159.38 183.387 158.643C182.405 158.167 180.971 158.56 179.672 159.692Z" fill="#02BBA9"/>
<path d="M195.226 147.403C197.506 145.582 199.998 144.874 201.704 145.733C204.483 146.999 204.785 152.199 202.414 156.872C200.979 159.788 198.654 162.278 196.358 163.482C194.169 164.676 192.009 164.671 190.711 163.351C189.246 161.918 188.929 158.97 189.759 155.829C190.59 152.637 192.764 149.311 195.226 147.403ZM195.679 150.446C194.863 151.161 194.108 152.136 193.565 153.198C192.115 156.017 192.175 159.218 193.731 160.215C194.652 160.814 196.087 160.542 197.415 159.462C198.593 158.521 199.65 157.007 200.224 155.458C201.206 152.804 200.919 150.117 199.379 149.389C198.397 148.912 196.962 149.323 195.679 150.446Z" fill="#02BBA9"/>
<path d="M208.801 140.575C210.538 138.32 212.848 136.638 214.721 136.635C215.31 136.591 215.793 136.816 216.261 137.05C216.276 136.572 216.261 136.094 216.276 135.598C217.288 135.031 218.299 134.43 219.326 133.854V149.195C219.311 151.517 218.798 154.266 217.348 156.79C215.763 159.566 213.331 161.544 211.142 162.426C208.801 163.377 206.763 162.588 205.856 160.624C206.763 159.597 207.714 158.647 208.65 157.637C209.179 158.758 210.251 159.357 211.595 158.859C212.939 158.362 214.494 157.081 215.37 155.288C216.306 153.426 216.306 151.617 216.261 150.026C215.566 151.209 214.766 152.367 213.799 153.186C211.7 155.076 209.39 155.575 207.774 154.873C206.143 154.18 205.177 152.216 205.268 149.659C205.313 146.798 206.702 143.265 208.801 140.575ZM211.927 140.996C211.006 141.702 210.145 142.79 209.556 143.948C208.137 146.715 208.137 149.829 209.571 150.914C210.387 151.573 211.7 151.441 212.969 150.552C214.162 149.724 215.264 148.218 215.853 146.678C216.85 144.068 216.684 141.398 215.34 140.4C214.509 139.784 213.18 140.012 211.927 140.996Z" fill="#02BBA9"/>
<path d="M228.751 129.947C230.563 126.953 233.356 124.679 235.682 124.362C237.886 124.046 239.291 125.653 240.001 127.73C236.724 131.188 233.462 134.619 230.185 138.076C230.638 138.806 231.333 139.309 232.269 139.134C233.583 138.915 235.153 137.817 236.256 136.172C236.693 135.536 237.041 134.831 237.373 134.152C238.204 134.316 239.034 134.463 239.865 134.627C238.687 137.342 236.709 139.91 234.579 141.366C232.224 143.056 229.717 143.46 228.192 142.219C225.685 140.326 225.927 134.586 228.751 129.947ZM230.366 132.232C229.853 133.38 229.641 134.546 229.657 135.564C231.846 133.256 234.036 130.948 236.225 128.623C235.863 127.858 234.987 127.773 234.096 128.13C232.662 128.663 231.167 130.413 230.366 132.232Z" fill="#02BBA9"/>
</g>
<path d="M280.104 47.8103V44.8468C280.104 41.168 277.549 39.7373 274.381 41.5768L113.534 134.365C111.491 135.489 109.855 138.35 109.855 140.701V146.015L280.104 47.8103Z" fill="#27DEBF"/>
<path d="M256.192 54.5549C255.068 55.168 254.25 56.7008 254.25 57.9271C254.25 59.1534 255.17 59.6643 256.192 59.0512C257.316 58.4381 258.133 56.9052 258.133 55.6789C258.133 54.4527 257.214 53.9417 256.192 54.5549Z" fill="white"/>
<path d="M263.957 50.0586C262.833 50.6718 262.016 52.2046 262.016 53.4309C262.016 54.6572 262.935 55.1681 263.957 54.555C265.081 53.9418 265.899 52.409 265.899 51.1827C266.001 49.9564 265.081 49.4455 263.957 50.0586Z" fill="white"/>
<path d="M271.828 45.5635C270.704 46.1767 269.887 47.7095 269.887 48.9358C269.887 50.1621 270.806 50.673 271.828 50.0599C272.952 49.4467 273.77 47.9139 273.77 46.6876C273.77 45.4613 272.85 44.9504 271.828 45.5635Z" fill="white"/>
<path d="M149.639 206.994L143.355 203.366L128.027 229.915L134.31 233.543L149.639 206.994Z" fill="#37474F"/>
<path d="M149.578 206.975L146.48 205.187L131.152 231.735L134.249 233.524L149.578 206.975Z" fill="#263238"/>
<path d="M111.283 281.823C108.422 286.728 94.933 278.86 97.7944 274.057L133.05 219.181C133.254 218.874 133.663 218.772 133.97 218.976L141.021 223.064C141.327 223.268 141.429 223.677 141.327 223.984L111.283 281.823Z" fill="#27DEBF"/>
<path opacity="0.1" d="M111.283 281.825L141.225 223.883C141.429 223.577 141.225 223.168 140.918 222.963L137.648 221.124L103.312 282.131C106.48 283.664 109.955 284.073 111.283 281.825Z" fill="black"/>
<path d="M214.699 152.554C214.699 152.146 214.699 151.737 214.597 151.328C214.597 150.919 214.495 150.511 214.495 150.102C214.495 149.795 214.392 149.591 214.392 149.284C214.29 148.569 214.188 147.854 214.086 147.241C213.984 146.934 213.984 146.627 213.881 146.321C213.779 146.014 213.779 145.708 213.677 145.503C213.473 144.788 213.37 143.971 213.064 143.357C212.962 143.051 212.86 142.642 212.757 142.335C212.757 142.233 212.757 142.233 212.655 142.131C212.553 141.825 212.451 141.518 212.246 141.211C212.144 140.803 211.94 140.496 211.838 140.189C211.735 139.883 211.633 139.679 211.429 139.474C211.327 139.27 211.224 139.065 211.122 138.963C211.02 138.759 210.918 138.554 210.816 138.35L210.714 138.248C210.611 138.044 210.509 137.839 210.407 137.737C210.305 137.635 210.203 137.533 210.203 137.43C209.692 136.613 209.078 135.795 208.465 135.08C208.363 134.978 208.261 134.876 208.159 134.671C208.057 134.569 207.954 134.467 207.852 134.365C207.75 134.262 207.648 134.16 207.443 134.058C207.137 133.752 206.728 133.343 206.422 133.138C206.217 132.934 206.115 132.832 205.911 132.73C205.706 132.627 205.502 132.423 205.4 132.321C205.093 132.116 204.787 131.912 204.48 131.708C204.378 131.708 204.276 131.606 204.276 131.503H204.173L189.662 123.124H189.56C186.903 121.591 183.838 120.773 180.465 120.773C175.765 120.773 170.349 122.306 164.728 125.576C145.21 136.817 129.473 164.204 129.473 186.686C129.473 197.927 133.356 205.795 139.692 209.474H139.794L154.305 217.854H154.407C154.509 217.854 154.509 217.956 154.611 217.956C154.918 218.16 155.122 218.262 155.429 218.365C155.735 218.569 156.144 218.671 156.451 218.876C156.757 218.978 157.064 219.182 157.37 219.284C157.575 219.387 157.677 219.387 157.881 219.387C158.086 219.489 158.29 219.489 158.495 219.591C158.699 219.693 158.903 219.693 159.108 219.693C159.21 219.693 159.414 219.795 159.516 219.795C159.721 219.898 160.027 219.898 160.334 219.898C160.436 219.898 160.436 219.898 160.538 219.898C160.845 220 161.151 220 161.458 220C166.67 220.511 172.801 219.08 179.341 215.299C198.86 204.058 214.597 176.671 214.597 154.189C214.801 153.576 214.801 153.065 214.699 152.554ZM191.093 136.613C192.013 139.781 192.217 143.051 192.217 145.197C192.217 165.022 177.706 190.16 160.538 200.073C157.779 201.708 155.02 202.832 152.465 203.445C151.546 200.277 151.341 197.007 151.341 194.861C151.341 175.036 165.852 149.898 183.02 139.985C185.881 138.35 188.538 137.226 191.093 136.613Z" fill="#27DEBF"/>
<path opacity="0.1" d="M153.997 217.445L139.997 209.27C133.661 205.591 129.676 197.62 129.676 186.481C129.676 176.467 132.844 165.43 138.055 155.313L152.566 163.693C147.355 173.81 144.187 184.744 144.187 194.861C144.187 205.795 147.968 213.664 153.997 217.445Z" fill="black"/>
<path opacity="0.4" d="M214.7 152.554C214.7 152.146 214.7 151.737 214.598 151.328C214.598 150.919 214.495 150.511 214.495 150.102C214.495 149.795 214.393 149.591 214.393 149.284C214.291 148.569 214.189 147.854 214.087 147.241C213.984 146.934 213.984 146.627 213.882 146.321C213.78 146.014 213.78 145.708 213.678 145.503C213.473 144.788 213.371 143.971 213.065 143.357C212.962 143.051 212.86 142.642 212.758 142.335C212.758 142.233 212.758 142.233 212.656 142.131C212.554 141.825 212.452 141.518 212.247 141.211C212.145 140.803 211.941 140.496 211.838 140.189C211.736 139.883 211.634 139.679 211.43 139.474C211.327 139.27 211.225 139.065 211.123 138.963C211.021 138.759 210.919 138.554 210.816 138.35L210.714 138.248C210.612 138.044 210.51 137.839 210.408 137.737C210.306 137.635 210.203 137.533 210.203 137.43C209.692 136.613 209.079 135.795 208.466 135.08C208.364 134.978 208.262 134.876 208.16 134.671C208.057 134.569 207.955 134.467 207.853 134.365C207.751 134.262 207.649 134.16 207.444 134.058C207.138 133.752 206.729 133.343 206.422 133.138C206.218 132.934 206.116 132.832 205.911 132.73C205.707 132.627 205.503 132.423 205.4 132.321C205.094 132.116 204.787 131.912 204.481 131.708C198.043 127.825 189.152 128.233 179.24 133.956C159.722 145.197 143.984 172.584 143.984 195.065C143.984 206.408 148.072 214.379 154.612 218.058C154.919 218.262 155.123 218.365 155.43 218.467C155.736 218.671 156.145 218.773 156.452 218.978C156.758 219.08 157.065 219.284 157.371 219.387C157.576 219.489 157.678 219.489 157.882 219.489C158.087 219.591 158.291 219.591 158.495 219.693C158.7 219.795 158.904 219.795 159.108 219.795C159.211 219.795 159.415 219.898 159.517 219.898C159.722 220 160.028 220 160.335 220C160.437 220 160.437 220 160.539 220C160.846 220.102 161.152 220.102 161.459 220.102C166.671 220.613 172.802 219.182 179.342 215.401C198.86 204.16 214.598 176.773 214.598 154.292C214.802 153.576 214.802 153.065 214.7 152.554ZM175.868 209.065C171.473 211.62 167.284 212.949 163.707 212.949C156.962 212.949 153.795 208.35 152.466 203.547C151.546 200.379 151.342 197.109 151.342 194.963C151.342 175.138 165.853 150 183.021 140.087C185.78 138.452 188.539 137.328 191.094 136.715C192.525 136.408 193.955 136.204 195.181 136.204C206.32 136.204 207.546 148.773 207.546 154.292C207.649 174.014 193.138 199.153 175.868 209.065Z" fill="white"/>
<path opacity="0.1" d="M207.651 154.087C207.651 173.912 193.14 199.05 175.972 208.963C171.578 211.518 167.388 212.846 163.811 212.846C157.067 212.846 153.899 208.248 152.57 203.445C155.125 202.831 157.782 201.707 160.643 200.072C177.811 190.16 192.322 165.021 192.322 145.196C192.322 143.05 192.118 139.78 191.198 136.613C192.629 136.306 194.059 136.102 195.286 136.102C206.424 136.102 207.651 148.671 207.651 154.087Z" fill="black"/>
<path opacity="0.7" d="M201.413 150.613C201.413 170.438 186.902 195.577 169.734 205.489C165.34 208.044 161.15 209.372 157.573 209.372C156.858 209.372 156.143 209.27 155.427 209.168C153.997 207.533 153.077 205.489 152.464 203.343C151.544 200.175 151.34 196.905 151.34 194.759C151.34 174.934 165.851 149.796 183.019 139.883C185.778 138.248 188.537 137.124 191.092 136.511C192.522 136.205 193.953 136 195.179 136C195.997 136 196.61 136.102 197.325 136.204C200.902 140.394 201.413 147.139 201.413 150.613Z" fill="white"/>
<path d="M226.145 89.9707V112.555C226.145 114.292 227.371 114.905 228.801 114.087L377.079 28.5546C378.51 27.7371 379.736 25.6933 379.736 23.9561V1.37216C379.736 -0.365069 378.51 -0.978208 377.079 -0.160689L228.801 85.4743C227.371 86.1897 226.145 88.2335 226.145 89.9707Z" fill="#E6E6E6"/>
<path d="M228.801 85.3722L255.269 70.1459V98.8612L228.801 114.087C227.371 114.905 226.145 114.292 226.145 112.555V89.9707C226.145 88.2335 227.371 86.1897 228.801 85.3722Z" fill="#27DEBF"/>
<path d="M246.479 82.7157C244.844 81.796 242.698 81.8982 240.552 83.1244C236.669 85.3726 233.603 90.6865 233.603 95.285C233.603 97.1244 234.114 98.5551 235.034 99.6792L232.275 104.584C231.866 105.3 232.07 106.219 232.786 106.628C232.99 106.73 233.297 106.832 233.501 106.832C234.012 106.832 234.523 106.526 234.829 106.015L237.691 101.11C237.997 101.212 238.304 101.212 238.611 101.212C239.735 101.212 240.961 100.905 242.187 100.19C246.07 97.942 249.136 92.6281 249.136 88.0295C249.136 85.577 248.216 83.6354 246.479 82.7157ZM240.552 97.5332C239.428 98.1463 238.304 98.3507 237.691 97.9419C236.975 97.5332 236.669 96.6135 236.669 95.285C236.669 91.9128 239.121 87.5186 242.085 85.7814C242.8 85.3726 243.516 85.1682 244.129 85.1682C244.435 85.1682 244.742 85.2704 244.946 85.3726C245.662 85.7814 245.968 86.7011 245.968 88.0295C246.07 91.504 243.516 95.796 240.552 97.5332Z" fill="white"/>
<path d="M366.836 81.6029C366.576 80.9955 366.229 80.6485 365.795 80.3882L363.192 78.9131C362.064 78.3058 360.676 78.9131 359.982 79.347L358.333 78.3925C356.337 77.1778 353.648 79.694 353.04 80.3014L352.346 79.8676C351.392 79.347 350.177 79.694 349.049 80.2146V70.8438C349.049 69.8026 348.702 69.1085 348.094 68.7614C348.094 68.7614 348.094 68.7614 348.008 68.7614L345.491 67.2864C344.884 66.9393 344.103 67.0261 343.149 67.5467C341.327 68.5879 339.852 71.1909 339.852 73.2733V102.08C339.678 101.993 339.591 101.993 339.418 101.906C337.162 100.345 334.732 99.3901 332.65 99.7372C330.654 100.084 328.832 101.82 328.312 102.687C327.184 104.596 329.006 105.811 331.348 108.501C333.691 111.104 335.687 114.314 337.769 116.31C339.852 118.305 341.413 118.826 341.413 118.826V122.557L344.016 124.032L363.539 112.752V109.021C363.539 109.021 365.968 99.3901 366.749 95.3121C367.617 91.234 368.311 84.6398 366.836 81.6029Z" fill="#02BBA9"/>
<path opacity="0.8" d="M366.836 81.6029C366.576 80.9955 366.229 80.6485 365.795 80.3882L363.192 78.9131C362.064 78.3058 360.676 78.9131 359.982 79.347L358.333 78.3925C356.337 77.1778 353.648 79.694 353.04 80.3014L352.346 79.8676C351.392 79.347 350.177 79.694 349.049 80.2146V70.8438C349.049 69.8026 348.702 69.1085 348.094 68.7614C348.094 68.7614 348.094 68.7614 348.008 68.7614L345.491 67.2864C344.884 66.9393 344.103 67.0261 343.149 67.5467C341.327 68.5879 339.852 71.1909 339.852 73.2733V102.08C339.678 101.993 339.591 101.993 339.418 101.906C337.162 100.345 334.732 99.3901 332.65 99.7372C330.654 100.084 328.832 101.82 328.312 102.687C327.184 104.596 329.006 105.811 331.348 108.501C333.691 111.104 335.687 114.314 337.769 116.31C339.852 118.305 341.413 118.826 341.413 118.826V122.557L344.016 124.032L363.539 112.752V109.021C363.539 109.021 365.968 99.3901 366.749 95.3121C367.617 91.234 368.311 84.6398 366.836 81.6029Z" fill="white"/>
<path opacity="0.2" d="M349.135 80.3014V83.5118C349.222 83.425 350.35 82.4706 351.652 81.7764L349.135 80.3014ZM360.936 78.9131C360.589 79.0867 360.242 79.1734 360.068 79.347L360.936 79.8676C361.37 80.1279 361.803 80.5617 362.151 81.1691C362.151 81.1691 362.758 80.6485 363.626 80.3014L360.936 78.9131ZM354.862 78.9131C354.081 79.4337 353.387 80.0411 353.127 80.3014L354.775 81.2558C354.775 81.2558 354.862 81.2558 354.862 81.3426C355.122 81.4294 355.296 81.6897 355.556 81.95C355.643 81.8632 356.337 81.0823 357.378 80.4749L354.862 78.9131ZM339.938 73.1865V101.993C340.806 102.427 341.673 102.948 342.541 103.555V74.6616L339.938 73.1865ZM340.546 117.698C338.463 115.702 336.381 112.579 334.125 109.889C331.956 107.373 330.22 106.158 330.914 104.423L328.311 102.948C327.617 104.683 329.353 105.898 331.522 108.414C333.864 111.017 335.86 114.227 337.943 116.223C340.025 118.219 341.587 118.739 341.587 118.739V122.47L344.19 123.945V120.214C344.19 120.214 342.628 119.694 340.546 117.698Z" fill="#02BBA9"/>
<path opacity="0.1" d="M349.135 80.3014V83.5118C349.222 83.425 350.35 82.4706 351.652 81.7764L349.135 80.3014ZM360.936 78.9131C360.589 79.0867 360.242 79.1734 360.068 79.347L360.936 79.8676C361.37 80.1279 361.803 80.5617 362.151 81.1691C362.151 81.1691 362.758 80.6485 363.626 80.3014L360.936 78.9131ZM354.862 78.9131C354.081 79.4337 353.387 80.0411 353.127 80.3014L354.775 81.2558C354.775 81.2558 354.862 81.2558 354.862 81.3426C355.122 81.4294 355.296 81.6897 355.556 81.95C355.643 81.8632 356.337 81.0823 357.378 80.4749L354.862 78.9131ZM339.938 73.1865V101.993C340.806 102.427 341.673 102.948 342.541 103.555V74.6616L339.938 73.1865ZM340.546 117.698C338.463 115.702 336.381 112.579 334.125 109.889C331.956 107.373 330.22 106.158 330.914 104.423L328.311 102.948C327.617 104.683 329.353 105.898 331.522 108.414C333.864 111.017 335.86 114.227 337.943 116.223C340.025 118.219 341.587 118.739 341.587 118.739V122.47L344.19 123.945V120.214C344.19 120.214 342.628 119.694 340.546 117.698Z" fill="black"/>
<path d="M344.191 123.944V120.213C344.191 120.213 342.629 119.692 340.547 117.696C338.464 115.701 336.382 112.577 334.126 109.887C331.783 107.198 329.961 105.983 331.089 104.074C331.61 103.12 333.432 101.471 335.427 101.124C337.683 100.69 340.199 101.818 342.542 103.553V74.66C342.542 72.5776 344.017 69.9746 345.839 68.9334C347.661 67.8922 349.136 68.7598 349.136 70.8423V83.4235C349.136 83.4235 353.735 79.3454 355.557 81.8617C355.557 81.8617 360.069 77.1762 362.065 81.1675C362.065 81.1675 365.362 78.4777 366.837 81.6014C368.312 84.725 367.618 91.2325 366.837 95.2238C366.056 99.215 363.627 108.933 363.627 108.933V112.664L344.191 123.944Z" fill="#02BBA9"/>
<path opacity="0.65" d="M344.191 123.944V120.213C344.191 120.213 342.629 119.692 340.547 117.696C338.464 115.701 336.382 112.577 334.126 109.887C331.783 107.198 329.961 105.983 331.089 104.074C331.61 103.12 333.432 101.471 335.427 101.124C337.683 100.69 340.199 101.818 342.542 103.553V74.66C342.542 72.5776 344.017 69.9746 345.839 68.9334C347.661 67.8922 349.136 68.7598 349.136 70.8423V83.4235C349.136 83.4235 353.735 79.3454 355.557 81.8617C355.557 81.8617 360.069 77.1762 362.065 81.1675C362.065 81.1675 365.362 78.4777 366.837 81.6014C368.312 84.725 367.618 91.2325 366.837 95.2238C366.056 99.215 363.627 108.933 363.627 108.933V112.664L344.191 123.944Z" fill="white"/>
<g opacity="0.1">
<path opacity="0.1" d="M349.137 88.8883C349.137 88.8883 349.571 83.1617 351.653 81.7734C351.653 81.7734 351.653 81.7734 351.566 81.7734C350.178 82.4676 349.137 83.422 349.137 83.422V83.3352C349.137 83.422 349.137 83.422 349.137 83.422V88.8883Z" fill="black"/>
<path opacity="0.1" d="M355.559 81.8618V87.1545C355.559 87.1545 356.166 81.775 357.381 80.3867C356.34 81.0809 355.559 81.8618 355.559 81.8618Z" fill="black"/>
<path opacity="0.1" d="M362.066 81.1676V86.4604C362.066 86.4604 362.413 81.1676 363.541 80.3867C362.674 80.647 362.066 81.1676 362.066 81.1676Z" fill="black"/>
</g>
<path opacity="0.15" d="M300.894 272.493C285.883 279.955 279.115 287.764 286.837 293.317C294.56 298.783 315.731 306.245 315.731 306.245L317.811 315.548L349.136 297.829V287.33C349.136 287.33 330.221 274.315 322.846 271.799C315.471 269.196 309.657 268.068 300.894 272.493Z" fill="black"/>
<path d="M343.15 319.953C343.15 319.953 338.551 331.32 338.291 335.745C338.03 340.43 336.902 341.992 337.683 347.025C337.857 348.153 338.464 350.322 338.551 351.276C338.638 352.057 338.377 352.751 337.336 352.925C335.341 353.359 331.957 349.541 330.308 345.376C328.746 341.211 326.404 331.927 326.317 330.799C326.143 329.758 326.577 328.37 326.924 327.502C327.618 326.027 327.879 325.854 327.879 325.854C328.573 323.858 328.833 319.953 329.44 317.264L343.15 319.953Z" fill="#FFA8A7"/>
<path d="M322.414 335.139C322.414 335.139 321.893 336.094 321.893 336.701C321.806 337.655 323.976 340.692 324.756 341.82C325.624 342.948 326.405 344.336 326.232 347.113C326.145 350.063 327.446 352.926 329.355 355.443C331.264 357.872 334.648 360.562 339.507 362.124C344.453 363.599 346.188 361.169 346.188 361.169C346.188 361.169 347.75 358.827 346.795 357.785C345.928 356.744 322.414 335.139 322.414 335.139Z" fill="#263238"/>
<path d="M327.967 325.855C327.794 325.855 327.533 325.768 327.186 326.289C327.013 326.462 326.145 328.718 325.364 329.846C324.583 331.061 322.674 333.23 322.414 335.052C323.542 338.697 327.013 341.213 327.447 344.683C327.967 348.154 328.054 352.145 333.347 356.31C338.639 360.562 344.106 360.996 346.015 359.868C348.01 358.74 347.75 356.657 345.06 352.666C342.197 348.414 340.201 339.304 340.201 339.304C339.941 338.002 339.767 336.701 339.681 335.399C339.594 334.185 339.941 332.796 340.028 331.582C340.114 330.974 340.114 330.367 339.767 329.846C339.42 329.326 338.9 329.065 338.292 328.805C337.425 328.458 336.557 328.024 335.603 327.851C334.648 327.677 333.607 327.764 332.826 328.198C332.219 328.545 331.698 329.065 331.091 329.326C330.223 329.673 329.182 329.499 328.488 328.892C327.447 327.937 327.62 327.157 327.794 326.462L327.967 325.855Z" fill="#455A64"/>
<path d="M330.309 353.014C330.309 353.014 332.391 348.85 337.944 348.85C343.584 348.85 345.493 351.713 346.361 353.448C347.402 355.444 348.443 359.088 346.1 360.129C343.584 361.257 340.721 360.91 336.122 358.654C331.61 356.312 330.309 353.014 330.309 353.014Z" fill="#FAFAFA"/>
<path d="M331.265 336.096C331.439 336.182 331.613 336.182 331.786 336.096C332.654 335.662 337.252 334.707 339.942 337.137C340.289 336.877 340.202 336.356 339.769 335.662C336.645 333.666 332.307 334.534 331.265 335.054C331.005 335.228 330.918 335.488 331.005 335.835C331.092 335.922 331.179 336.009 331.265 336.096Z" fill="#FAFAFA"/>
<path d="M340.55 340.434C340.723 339.913 340.463 339.132 340.203 338.872C337.079 337.223 333.088 338.004 332.047 338.525C331.786 338.698 331.7 338.959 331.786 339.306C331.873 339.392 331.96 339.479 332.047 339.566C332.22 339.653 332.394 339.653 332.567 339.566C333.435 339.132 337.86 338.178 340.55 340.434Z" fill="#FAFAFA"/>
<path d="M342.806 347.983C342.806 347.289 342.545 346.595 342.112 345.987C338.988 344.079 334.736 344.946 333.695 345.467C333.435 345.64 333.348 345.901 333.435 346.248C333.522 346.334 333.608 346.421 333.695 346.508C333.869 346.595 334.042 346.595 334.216 346.508C335.17 345.987 340.203 344.946 342.806 347.983Z" fill="#FAFAFA"/>
<path d="M332.914 343.037C333.087 343.124 333.261 343.124 333.435 343.037C334.302 342.603 338.814 341.649 341.504 344.078C341.591 343.558 341.504 343.037 341.07 342.43C337.946 340.781 333.955 341.562 332.914 342.083C332.654 342.256 332.567 342.516 332.654 342.864C332.74 342.864 332.827 342.95 332.914 343.037Z" fill="#FAFAFA"/>
<path d="M348.181 333.923C348.181 333.923 350.437 347.806 353.04 353.186C355.556 358.565 356.944 361.168 360.415 365.246C361.196 366.114 362.931 367.763 363.538 368.457C364.059 369.064 364.146 369.845 363.365 370.626C361.803 372.101 355.209 372.448 351.478 369.671C347.747 366.895 344.363 360.995 342.194 358.739C341.326 357.871 340.545 357.003 339.851 356.136C339.157 355.268 339.33 354.4 339.244 353.446C339.244 353.012 339.244 351.624 339.244 351.624C338.723 349.281 337.335 345.637 336.641 343.381L348.181 333.923Z" fill="#FFA8A7"/>
<path d="M337.944 362.037C337.944 362.037 337.857 363.165 338.117 363.685C338.464 364.553 341.848 366.549 343.15 367.243C344.451 367.937 345.839 368.891 346.967 371.581C348.182 374.444 350.698 376.614 353.648 378.089C356.598 379.564 360.937 380.605 366.23 379.824C371.522 379.043 372.13 375.919 372.13 375.919C372.13 375.919 372.477 372.969 371.175 372.449C369.787 372.015 337.944 362.037 337.944 362.037Z" fill="#263238"/>
<path d="M339.071 350.845C338.898 350.932 338.637 351.019 338.464 351.626C338.377 351.887 338.551 354.316 338.377 355.791C338.204 357.353 337.336 360.216 337.943 362.038C340.633 364.988 345.058 365.856 347.054 368.893C349.05 371.93 350.958 375.661 357.813 377.309C364.668 378.958 370.047 376.876 371.349 374.967C372.737 373.058 371.609 371.149 367.271 368.546C362.672 365.856 356.685 358.047 356.685 358.047C355.904 357.006 355.123 355.791 354.429 354.576C353.735 353.448 353.561 351.973 353.041 350.759C352.78 350.151 352.52 349.544 352 349.197C351.479 348.85 350.785 348.85 350.177 348.937C349.136 348.937 348.182 349.023 347.227 349.284C346.273 349.544 345.319 350.064 344.711 350.845C344.277 351.453 344.017 352.147 343.583 352.667C342.889 353.362 341.848 353.709 340.893 353.362C339.505 352.928 339.332 352.06 339.158 351.453L339.071 350.845Z" fill="#455A64"/>
<path d="M353.301 375.4C353.301 375.4 353.388 370.541 358.68 368.025C363.973 365.509 367.097 367.331 368.659 368.546C370.481 370.021 373.17 372.971 371.435 374.967C369.526 377.136 366.663 378.09 361.37 378.003C356.077 377.917 353.301 375.4 353.301 375.4Z" fill="#FAFAFA"/>
<path d="M346.708 359.001C346.881 359.001 347.055 358.914 347.229 358.741C347.836 357.96 351.74 355.01 355.385 356.138C355.558 355.704 355.298 355.27 354.517 354.75C350.699 354.229 346.968 357.006 346.187 358.047C346.014 358.307 346.014 358.654 346.274 358.828C346.534 358.914 346.621 359.001 346.708 359.001Z" fill="#FAFAFA"/>
<path d="M357.38 359.003C357.38 358.482 356.773 357.788 356.426 357.701C352.782 357.528 349.311 360.131 348.617 360.998C348.444 361.259 348.444 361.606 348.704 361.779C348.791 361.866 348.964 361.866 349.051 361.866C349.224 361.866 349.398 361.779 349.571 361.606C350.179 360.912 353.823 358.048 357.38 359.003Z" fill="#FAFAFA"/>
<path d="M362.937 365.161C362.676 364.467 362.156 363.947 361.375 363.6C357.557 363.253 354 365.942 353.219 366.897C353.045 367.157 353.045 367.504 353.305 367.678C353.392 367.764 353.566 367.764 353.652 367.764C353.826 367.764 353.999 367.678 354.173 367.504C354.867 366.637 359.206 363.426 362.937 365.161Z" fill="#FAFAFA"/>
<path d="M351.391 364.816C351.564 364.816 351.738 364.729 351.911 364.556C352.519 363.775 356.336 360.825 359.981 361.953C359.894 361.432 359.46 360.912 358.766 360.565C355.122 360.391 351.651 362.994 350.957 363.862C350.783 364.122 350.783 364.469 351.044 364.643C351.13 364.816 351.217 364.816 351.391 364.816Z" fill="#FAFAFA"/>
<path d="M317.554 255.053C323.194 259.218 342.976 270.584 351.046 278.046C353.388 280.215 354.169 282.992 353.562 289.152C352.781 297.482 346.187 326.028 346.187 326.028C345.319 327.677 343.671 324.553 343.671 324.553L312.348 284.814L317.554 255.053Z" fill="#02BBA9"/>
<path opacity="0.3" d="M317.554 255.053C323.194 259.218 342.976 270.584 351.046 278.046C353.388 280.215 354.169 282.992 353.562 289.152C352.781 297.482 346.187 326.028 346.187 326.028C345.319 327.677 343.671 324.553 343.671 324.553L312.348 284.814L317.554 255.053Z" fill="#02BBA9"/>
<path opacity="0.3" d="M344.887 317.178C337.598 311.104 314.258 274.142 314.258 274.142C317.468 271.452 319.117 262.081 319.117 262.081C320.418 265.725 319.03 271.105 318.076 273.1C319.898 274.662 330.31 283.252 337.598 288.979C339.42 290.454 341.242 292.189 341.85 295.486C343.325 303.382 345.06 315.616 344.887 317.178Z" fill="black"/>
<path d="M317.554 255.053L277.207 263.99C279.203 271.365 279.723 275.183 281.806 279.087C283.888 282.992 286.144 287.156 296.643 292.363C306.708 297.308 319.115 302.427 321.545 303.642C323.367 304.51 324.321 308.241 325.102 313.1C325.97 318.132 326.057 322.124 331.089 332.709C335.948 343.121 336.989 345.377 336.989 345.377C336.989 345.377 344.538 346.158 349.571 341.733C349.571 341.733 342.716 306.072 341.241 299.651C340.46 296.093 340.373 294.185 335.948 290.28C332.131 286.896 315.124 274.055 315.124 274.055C315.124 274.055 321.979 264.857 317.554 255.053Z" fill="#02BBA9"/>
<path opacity="0.3" d="M317.554 255.053L277.207 263.99C279.203 271.365 279.723 275.183 281.806 279.087C283.888 282.992 286.144 287.156 296.643 292.363C306.708 297.308 319.115 302.427 321.545 303.642C323.367 304.51 324.321 308.241 325.102 313.1C325.97 318.132 326.057 322.124 331.089 332.709C335.948 343.121 336.989 345.377 336.989 345.377C336.989 345.377 344.538 346.158 349.571 341.733C349.571 341.733 342.716 306.072 341.241 299.651C340.46 296.093 340.373 294.185 335.948 290.28C332.131 286.896 315.124 274.055 315.124 274.055C315.124 274.055 321.979 264.857 317.554 255.053Z" fill="#02BBA9"/>
<path d="M363.972 188.068C363.278 187.981 362.584 188.154 361.976 188.502C361.282 188.849 360.588 189.369 359.894 189.803C358.853 190.584 357.898 191.278 356.77 191.885C355.816 192.493 354.861 193.1 353.733 193.36C353.386 193.447 352.605 193.447 352.952 192.84C353.473 192.059 354.08 191.365 354.514 190.584C354.948 189.803 355.122 188.762 354.774 187.981C354.688 187.721 354.514 187.46 354.254 187.374C353.907 187.2 353.733 187.374 353.56 187.634C353.386 187.894 353.126 188.068 352.866 188.328C352.345 188.762 351.824 189.196 351.391 189.63C348.527 192.233 344.97 194.575 343.755 198.393C343.582 198.914 342.714 201.43 342.714 205.595C342.714 209.759 342.454 224.336 342.454 224.336C342.454 224.336 330.914 214.618 325.881 210.454C323.452 208.458 320.068 205.942 316.337 205.595C313.734 205.334 312.172 205.334 312.172 205.334L320.068 224.423C320.068 224.423 334.992 235.529 342.107 239.347C348.527 242.818 351.651 240.301 352.432 238.479C353.733 235.442 355.035 234.054 353.213 217.308C353.039 216.007 352.952 212.276 352.779 210.974C352.605 208.284 352.866 205.508 353.907 204.9C355.816 203.859 357.725 202.645 359.373 201.17C360.501 200.215 361.456 199.174 362.236 197.959C362.584 197.439 363.191 196.744 363.191 196.05C363.278 195.443 363.017 194.749 363.191 194.141C363.364 193.708 363.625 193.36 363.711 192.927C363.972 191.972 363.885 190.931 364.406 190.15C364.753 189.716 365.273 189.282 365.187 188.762C365.1 188.328 364.666 188.068 364.232 187.981C364.232 188.068 364.059 188.068 363.972 188.068Z" fill="#FFA8A7"/>
<path d="M352.174 195.358C351.826 197.614 350.265 200.391 349.137 201.345C349.137 201.345 350.959 200.304 351.74 198.742C352.521 197.007 352.434 196.139 352.174 195.358Z" fill="#F28F8F"/>
<path d="M311.305 204.901C315.296 205.074 318.42 205.161 321.89 207.156C325.361 209.152 340.632 221.994 340.632 221.994C340.632 221.994 340.805 215.486 341.152 212.015C341.413 209.673 341.847 208.892 342.541 208.979C342.541 208.979 343.842 210.974 347.66 211.321C351.391 211.582 352.693 210.02 352.693 210.02C352.693 210.02 353.82 209.759 354.168 211.321C354.601 212.883 355.296 229.542 354.601 234.315C353.907 239.087 351.738 241.343 348.875 242.037C346.011 242.731 339.33 238.653 331.261 233.273C323.192 227.894 314.515 222.861 314.515 222.861L311.305 204.901Z" fill="#02BBA9"/>
<path opacity="0.7" d="M311.305 204.901C315.296 205.074 318.42 205.161 321.89 207.156C325.361 209.152 340.632 221.994 340.632 221.994C340.632 221.994 340.805 215.486 341.152 212.015C341.413 209.673 341.847 208.892 342.541 208.979C342.541 208.979 343.842 210.974 347.66 211.321C351.391 211.582 352.693 210.02 352.693 210.02C352.693 210.02 353.82 209.759 354.168 211.321C354.601 212.883 355.296 229.542 354.601 234.315C353.907 239.087 351.738 241.343 348.875 242.037C346.011 242.731 339.33 238.653 331.261 233.273C323.192 227.894 314.515 222.861 314.515 222.861L311.305 204.901Z" fill="white"/>
<path opacity="0.1" d="M340.632 221.993C339.938 226.505 340.979 231.364 340.979 231.364C340.979 231.364 338.029 225.724 338.983 220.518L340.632 221.993Z" fill="black"/>
<path d="M278.156 208.46C277.462 212.017 270.781 245.336 278.417 270.324C292.126 271.973 316.16 265.639 319.718 256.615C319.718 256.615 317.288 248.025 316.247 243.861C316.507 237.006 316.247 223.817 316.073 219.739C315.813 211.67 314.512 205.423 310.52 204.815C310.52 204.815 302.451 204.468 297.592 204.729C293.427 204.902 290.217 204.989 290.217 204.989L278.156 208.46Z" fill="#FAFAFA"/>
<path d="M298.285 261.559C297.417 259.564 281.192 249.586 281.192 249.586C281.192 249.586 281.452 244.9 282.407 236.397C283.361 227.894 283.621 217.655 280.585 212.449L277.461 212.536C275.726 222.861 272.168 249.499 278.502 270.236C285.791 271.104 296.029 269.715 304.532 266.852C302.884 265.898 298.979 263.121 298.285 261.559Z" fill="#F0F0F0"/>
<path d="M288.912 197.006C288.912 195.271 285.615 190.152 284.14 186.074C281.623 179.219 281.45 173.145 287.61 170.456C287.61 170.456 291.515 163.775 301.233 163.428C310.951 163.08 318.499 171.323 315.289 182.343L288.912 197.006Z" fill="#455A64"/>
<path d="M291.341 186.506C290.04 186.506 289.606 184.684 288.738 183.73C287.87 182.775 284.834 181.647 282.925 184.424C281.103 187.027 282.838 190.758 284.834 192.233C287.35 194.055 288.998 192.32 288.998 192.32L288.738 206.116C288.738 206.116 289.172 209.152 294.812 210.975C301.319 213.057 306.612 209.586 302.708 205.335L302.881 201.691C304.703 202.124 307.219 202.298 309.128 202.038C311.297 201.691 313.033 200.042 314.161 196.745C316.33 190.237 315.723 181.474 313.467 173.578C311.297 175.313 301.406 178.437 292.469 175.313C292.816 180.693 292.556 186.506 291.341 186.506Z" fill="#FFA8A7"/>
<path d="M287.781 190.761C287.781 191.195 287.433 191.542 287 191.542C286.566 191.542 286.219 191.195 286.219 190.761C286.219 190.327 286.566 189.98 287 189.98C287.433 189.893 287.781 190.327 287.781 190.761Z" fill="#263238"/>
<path d="M302.881 201.605C302.881 201.605 297.415 200.044 295.332 198.482C293.77 197.354 292.382 195.618 292.035 194.664C292.035 194.664 292.816 197.614 294.291 199.263C296.894 202.213 302.794 203.601 302.794 203.601L302.881 201.605Z" fill="#F28F8F"/>
<path d="M302.448 186.419C302.448 187.2 301.84 187.808 301.146 187.808C300.365 187.808 299.758 187.2 299.758 186.419C299.758 185.638 300.365 185.031 301.059 185.031C301.84 185.031 302.448 185.638 302.448 186.419Z" fill="#263238"/>
<path d="M300.971 181.822L298.021 183.384C297.587 182.516 297.934 181.562 298.715 181.128C299.583 180.608 300.624 180.955 300.971 181.822Z" fill="#263238"/>
<path d="M302.012 193.536L306.697 195.011C306.264 196.312 304.788 197.007 303.574 196.659C302.272 196.226 301.578 194.837 302.012 193.536Z" fill="#F28F8F"/>
<path d="M313.464 181.734L310.254 180.866C310.427 179.998 311.382 179.391 312.25 179.651C313.204 179.912 313.725 180.866 313.464 181.734Z" fill="#263238"/>
<path d="M312.686 185.378C312.686 186.159 312.078 186.767 311.384 186.767C310.603 186.767 309.996 186.159 309.996 185.378C309.996 184.597 310.603 183.99 311.298 183.99C312.078 183.99 312.686 184.597 312.686 185.378Z" fill="#263238"/>
<path d="M314.16 173.491C317.197 171.322 318.845 168.459 318.065 164.554C316.937 165.769 313.639 165.943 310.776 164.554C307.739 163.079 302.88 161.084 296.026 162.385C290.733 163.426 287.609 167.418 287.609 170.368C288.651 172.45 290.039 173.578 292.555 175.14C292.555 175.14 297.674 179.305 305.31 178.784C310.256 178.437 312.859 176.094 312.859 176.094C312.859 176.094 310.082 176.355 308.78 175.487C308.78 175.487 311.904 175.053 314.16 173.491Z" fill="#37474F"/>
<path d="M306.87 191.799L311.035 189.89L305.742 182.602L306.87 191.799Z" fill="#F28F8F"/>
<path opacity="0.15" d="M352.347 279.522C352 279.002 351.567 278.481 351.133 278.047C346.274 273.622 337.25 267.722 329.528 262.776L294.474 282.993C294.3 283.08 294.3 283.427 294.474 283.514L319.897 298.177L352.347 279.522Z" fill="black"/>
<path d="M362.934 269.284V269.892C362.934 270.759 362.5 271.453 361.806 271.887L321.112 295.401C320.765 295.575 320.331 295.748 319.984 295.748C319.55 295.748 319.203 295.661 318.856 295.401L296.644 282.646C295.949 282.212 295.516 281.432 295.516 280.651V279.87C295.516 279.957 295.602 280.043 295.689 280.13L320.071 294.186L362.934 269.284Z" fill="#37474F"/>
<path d="M319.895 294.099V295.661C320.328 295.661 320.675 295.574 321.023 295.314L361.716 271.8C362.41 271.366 362.844 270.586 362.844 269.805V269.197L319.895 294.099Z" fill="#263238"/>
<path d="M362.931 269.284L338.81 255.314C338.376 255.054 337.855 255.054 337.421 255.314L295.513 279.522C295.339 279.609 295.339 279.956 295.513 280.043L319.894 294.099L362.931 269.284Z" fill="#455A64"/>
<path d="M319.723 292.017L306.621 284.555L344.712 262.603L357.814 270.064L319.723 292.017Z" fill="#37474F"/>
<path d="M357.813 270.064L357.292 270.325L344.711 263.123L307.141 284.815L306.707 284.555L344.711 262.603L357.813 270.064Z" fill="#263238"/>
<path d="M313.301 271.195L313.561 271.281L319.895 275.012L331.262 268.418L331.522 268.331L324.841 264.514L313.301 271.195Z" fill="#263238"/>
<path d="M313.562 271.282L319.896 275.013L331.263 268.419L324.842 264.774L313.562 271.282Z" fill="#37474F"/>
<path d="M325.617 275.707C323.795 273.885 321.105 271.368 318.936 270.674C318.676 270.587 318.242 270.414 317.374 270.154C318.155 269.98 318.936 269.98 319.63 269.72C320.411 269.459 321.105 269.026 321.539 268.418C321.713 268.158 321.886 267.811 321.626 267.551C321.539 267.464 321.452 267.464 321.279 267.464C319.63 267.377 318.329 267.117 316.767 267.03C316.073 266.943 315.379 266.856 314.685 267.03C314.077 267.203 313.47 267.377 312.862 267.551C310.086 268.505 307.57 269.373 303.665 268.418L296.637 264.687C296.637 264.687 295.162 264.34 292.906 268.071C290.65 271.802 291.952 273.885 291.952 273.885L299.847 276.574C299.847 276.574 299.934 276.574 299.934 276.661C300.802 277.008 301.583 277.702 303.665 278.31C306.095 279.091 309.305 278.136 311.474 278.049C313.643 277.963 317.288 278.917 319.196 279.698C321.192 280.479 323.535 277.442 324.576 277.789C325.704 278.31 327.439 277.529 325.617 275.707Z" fill="#FFA8A7"/>
<path d="M316.424 269.025C314.949 268.851 313.387 269.546 313.387 269.546C313.387 269.546 315.209 269.546 317.378 270.24C318.159 270.066 318.94 270.066 319.634 269.806C320.328 269.546 320.935 269.198 321.369 268.765C320.241 269.459 317.899 269.112 316.424 269.025Z" fill="#F28F8F"/>
<path d="M278.159 208.46C280.154 209.241 282.757 217.57 281.195 225.64L277.464 250.802C277.464 250.802 282.063 253.492 288.484 257.483C292.909 260.26 296.727 262.776 296.727 264.772C293.777 265.813 291.174 271.192 292.041 273.969C290.046 276.312 271.651 266.16 265.317 261.735C262.367 259.739 260.805 258.872 262.02 249.674C263.321 239.523 264.189 228.243 266.098 220.694C268.18 212.885 270.436 209.848 278.159 208.46Z" fill="#02BBA9"/>
<path opacity="0.7" d="M278.159 208.46C280.154 209.241 282.757 217.57 281.195 225.64L277.464 250.802C277.464 250.802 282.063 253.492 288.484 257.483C292.909 260.26 296.727 262.776 296.727 264.772C293.777 265.813 291.174 271.192 292.041 273.969C290.046 276.312 271.651 266.16 265.317 261.735C262.367 259.739 260.805 258.872 262.02 249.674C263.321 239.523 264.189 228.243 266.098 220.694C268.18 212.885 270.436 209.848 278.159 208.46Z" fill="white"/>
<path d="M320.59 294.444C321.371 294.704 322.238 294.704 322.933 294.27L363.453 270.843C364.147 270.409 364.667 269.715 364.754 268.934L369.179 242.47C369.179 242.297 369.179 242.21 369.179 242.037C369.179 241.256 368.919 240.562 368.398 240.041L326.316 264.336C325.796 264.683 325.449 265.203 325.362 265.724L320.59 294.444Z" fill="#37474F"/>
<path d="M319.895 294.097L320.155 294.271C320.242 294.358 320.415 294.444 320.502 294.444L325.274 265.811C325.361 265.204 325.708 264.683 326.229 264.423L368.31 240.128C368.137 239.955 367.963 239.781 367.79 239.694L325.708 263.989C325.187 264.336 324.84 264.857 324.753 265.377L319.895 294.097Z" fill="#455A64"/>
<path d="M325.708 264.943L325.014 264.596C324.84 264.857 324.667 265.117 324.667 265.464L319.895 294.184L320.155 294.357C320.242 294.444 320.415 294.531 320.502 294.531L325.274 265.898C325.448 265.464 325.534 265.204 325.708 264.943Z" fill="#263238"/>
<path d="M343.409 269.976C343.669 268.241 345.578 265.811 347.487 264.683C349.482 263.555 350.784 264.076 350.524 265.811C350.263 267.547 348.354 269.976 346.446 271.104C344.45 272.319 343.062 271.798 343.409 269.976Z" fill="#02BBA9"/>
</g>
<defs>
<clipPath id="clip0">
<rect width="420" height="400" fill="white"/>
</clipPath>
<clipPath id="clip1">
<rect width="103.923" height="33.8354" fill="white" transform="matrix(0.866025 -0.5 0 1 150 164)"/>
</clipPath>
</defs>
</svg>
