<svg width="60" height="58" viewBox="0 0 60 58" fill="none" xmlns="http://www.w3.org/2000/svg">
<path d="M57.9982 54.2581H54.1584V8.41935C54.1584 7.386 53.2867 6.54839 52.2112 6.54839H26.7739V1.87097C26.7739 0.837609 25.9022 0 24.8267 0H11.3181C10.2426 0 9.37086 0.837609 9.37086 1.87097V6.54839H7.78877C6.71331 6.54839 5.84157 7.386 5.84157 8.41935V54.2581H2.00182C0.953015 54.2581 0.0509763 55.0329 0.00217467 56.0395C-0.0499128 57.114 0.840442 58 1.94718 58H15.8209C16.3586 58 16.7945 57.5811 16.7945 57.0645V46.3065H15.9977C14.9492 46.3065 14.0471 45.5322 13.9976 44.526C13.945 43.4516 14.836 42.5645 15.9427 42.5645C16.5306 42.5645 33.6554 42.5645 33.169 42.5645C34.2174 42.5645 35.1196 43.3387 35.169 44.345C35.2217 45.4194 34.3308 46.3065 33.224 46.3065H32.3721V57.0645C32.3721 57.5811 32.808 58 33.3457 58H58.0528C59.1596 58 60.0499 57.114 59.9978 56.0395C59.949 55.0329 59.047 54.2581 57.9982 54.2581ZM19.837 38.7056H17.6464C16.5711 38.7056 15.6993 37.8679 15.6993 36.8347C15.6993 35.8014 16.5711 34.9637 17.6464 34.9637H19.837C20.9124 34.9637 21.7842 35.8014 21.7842 36.8347C21.7842 37.8679 20.9124 38.7056 19.837 38.7056ZM19.837 31.6895H17.6464C16.5711 31.6895 15.6993 30.8518 15.6993 29.8185C15.6993 28.7853 16.5711 27.9476 17.6464 27.9476H19.837C20.9124 27.9476 21.7842 28.7853 21.7842 29.8185C21.7842 30.8518 20.9124 31.6895 19.837 31.6895ZM19.837 24.6734H17.6464C16.5711 24.6734 15.6993 23.8357 15.6993 22.8024C15.6993 21.7692 16.5711 20.9315 17.6464 20.9315H19.837C20.9124 20.9315 21.7842 21.7692 21.7842 22.8024C21.7842 23.8357 20.9124 24.6734 19.837 24.6734ZM19.837 17.6573H17.6464C16.5711 17.6573 15.6993 16.8195 15.6993 15.7863C15.6993 14.753 16.5711 13.9153 17.6464 13.9153H19.837C20.9124 13.9153 21.7842 14.753 21.7842 15.7863C21.7842 16.8195 20.9124 17.6573 19.837 17.6573ZM31.3985 38.7056H29.2079C28.1325 38.7056 27.2607 37.8679 27.2607 36.8347C27.2607 35.8014 28.1325 34.9637 29.2079 34.9637H31.3985C32.474 34.9637 33.3457 35.8014 33.3457 36.8347C33.3457 37.8679 32.474 38.7056 31.3985 38.7056ZM31.3985 31.6895H29.2079C28.1325 31.6895 27.2607 30.8518 27.2607 29.8185C27.2607 28.7853 28.1325 27.9476 29.2079 27.9476H31.3985C32.474 27.9476 33.3457 28.7853 33.3457 29.8185C33.3457 30.8518 32.474 31.6895 31.3985 31.6895ZM31.3985 24.6734H29.2079C28.1325 24.6734 27.2607 23.8357 27.2607 22.8024C27.2607 21.7692 28.1325 20.9315 29.2079 20.9315H31.3985C32.474 20.9315 33.3457 21.7692 33.3457 22.8024C33.3457 23.8357 32.474 24.6734 31.3985 24.6734ZM31.3985 17.6573H29.2079C28.1325 17.6573 27.2607 16.8195 27.2607 15.7863C27.2607 14.753 28.1325 13.9153 29.2079 13.9153H31.3985C32.474 13.9153 33.3457 14.753 33.3457 15.7863C33.3457 16.8195 32.474 17.6573 31.3985 17.6573ZM20.6889 57.0645V47.2419C20.6889 46.7253 21.1249 46.3065 21.6625 46.3065H27.5041C28.0418 46.3065 28.4777 46.7253 28.4777 47.2419V57.0645C28.4777 57.5811 28.0418 58 27.5041 58H21.6625C21.1249 58 20.6889 57.5811 20.6889 57.0645Z" fill="#02BBA9"/>
</svg>
