<svg width="20" height="20" viewBox="0 0 20 20" fill="none" xmlns="http://www.w3.org/2000/svg">
<path d="M17.9442 5.98749C17.9569 6.16248 17.9569 6.33751 17.9569 6.5125C17.9569 11.85 13.8326 18 6.29444 18C3.97209 18 1.81473 17.3375 0 16.1875C0.329962 16.225 0.64719 16.2375 0.989848 16.2375C2.90607 16.2375 4.67006 15.6 6.0787 14.5125C4.27666 14.475 2.7665 13.3125 2.24618 11.7125C2.50001 11.75 2.7538 11.775 3.02032 11.775C3.38833 11.775 3.75638 11.725 4.099 11.6375C2.22083 11.2625 0.812152 9.63749 0.812152 7.67499V7.62501C1.35782 7.92501 1.99239 8.11251 2.66493 8.13748C1.56087 7.41247 0.837542 6.17498 0.837542 4.77497C0.837542 4.02499 1.04055 3.33749 1.3959 2.73748C3.41369 5.18748 6.4467 6.78745 9.8477 6.96248C9.78426 6.66248 9.74617 6.35001 9.74617 6.03751C9.74617 3.81248 11.5736 2 13.8452 2C15.0254 2 16.0914 2.4875 16.8401 3.275C17.7665 3.10001 18.6548 2.76249 19.4416 2.3C19.137 3.23752 18.4898 4.02502 17.6396 4.52499C18.4645 4.43753 19.264 4.21248 20 3.90001C19.4417 4.69998 18.7437 5.41245 17.9442 5.98749Z" fill="#02BBA9"/>
</svg>
