<svg width="36" height="36" viewBox="0 0 36 36" fill="none" xmlns="http://www.w3.org/2000/svg">
<path d="M0 2C0 0.895431 0.895431 0 2 0H22C23.1046 0 24 0.895431 24 2V6C24 7.10457 23.1046 8 22 8H2C0.89543 8 0 7.10457 0 6V2Z" fill="#02BBA9"/>
<path d="M26 1.5C26 0.671573 26.6716 0 27.5 0C28.3284 0 29 0.671573 29 1.5V6.5C29 7.32843 28.3284 8 27.5 8C26.6716 8 26 7.32843 26 6.5V1.5Z" fill="#02BBA9"/>
<path d="M31 2C31 0.895431 31.8954 0 33 0H34C35.1046 0 36 0.895431 36 2V6C36 7.10457 35.1046 8 34 8H33C31.8954 8 31 7.10457 31 6V2Z" fill="#02BBA9"/>
<path fill-rule="evenodd" clip-rule="evenodd" d="M36 12C36 10.8954 35.1046 10 34 10H2C0.895431 10 0 10.8954 0 12V34C0 35.1046 0.895431 36 2 36H34C35.1046 36 36 35.1046 36 34V12ZM27 19.5C27 18.6716 26.3284 18 25.5 18H23.5C22.6716 18 22 18.6716 22 19.5C22 20.3284 22.6716 21 23.5 21H25.5C26.3284 21 27 20.3284 27 19.5ZM30.5 23C31.3284 23 32 23.6716 32 24.5C32 25.3284 31.3284 26 30.5 26H23.5C22.6716 26 22 25.3284 22 24.5C22 23.6716 22.6716 23 23.5 23H30.5ZM11.5 30C15.6421 30 19 26.6421 19 22.5C19 18.3579 15.6421 15 11.5 15C7.35786 15 4 18.3579 4 22.5C4 26.6421 7.35786 30 11.5 30Z" fill="#02BBA9" fill-opacity="0.4"/>
<path d="M6 21H10V17C7.98009 17.3849 6.38491 18.9801 6 21Z" fill="#02BBA9"/>
<path d="M13 17V21H17C16.6151 18.9801 15.0199 17.3849 13 17Z" fill="#02BBA9"/>
<path d="M10 28V24H6C6.38491 26.0199 7.98009 27.6151 10 28Z" fill="#02BBA9"/>
<path d="M13 28C15.0199 27.6151 16.6151 26.0199 17 24H13V28Z" fill="#02BBA9"/>
</svg>
