<svg width="20" height="20" viewBox="0 0 20 20" fill="none" xmlns="http://www.w3.org/2000/svg">
<path d="M20 2.14286V17.8571C20 19.0402 19.0402 20 17.8571 20H14.0491V12.0893H16.7545L17.1429 9.07143H14.0491V7.14286C14.0491 6.26786 14.2902 5.67411 15.5446 5.67411H17.1429V2.97768C16.8661 2.94196 15.9196 2.85714 14.8125 2.85714C12.5089 2.85714 10.9286 4.26339 10.9286 6.84821V9.07589H8.21429V12.0938H10.933V20H2.14286C0.959821 20 0 19.0402 0 17.8571V2.14286C0 0.959821 0.959821 0 2.14286 0H17.8571C19.0402 0 20 0.959821 20 2.14286Z" fill="#02BBA9"/>
</svg>
