<svg width="60" height="60" viewBox="0 0 60 60" fill="none" xmlns="http://www.w3.org/2000/svg">
<path d="M0 57.0035C0 58.6556 1.34445 60 2.99652 60H57.0035C58.656 60 60 58.6556 60 57.0035V16.8444H0V57.0035ZM27.1477 23.4403C27.1582 23.438 27.1692 23.4362 27.1797 23.4343C28.0948 23.2682 29.0369 23.1807 30 23.1807C30.9645 23.1807 31.9084 23.2686 32.8249 23.4348C32.8336 23.4366 32.8418 23.438 32.85 23.4398C40.0465 24.7582 45.5113 30.9746 45.5113 38.422C45.5113 46.8265 38.5529 53.6637 30 53.6637C21.4471 53.6637 14.4887 46.8265 14.4887 38.4224C14.4887 30.9755 19.9525 24.76 27.1477 23.4403Z" fill="#02BBA9" fill-opacity="0.4"/>
<path d="M35.6953 48.7413C38.9418 47.0224 41.291 43.8826 41.8628 40.1807H37.016C36.8924 43.3781 36.4314 46.3266 35.6953 48.7413Z" fill="#02BBA9"/>
<path d="M26.5078 40.1807C26.6841 44.2191 27.4577 47.8862 28.6012 50.0679C29.0608 50.1205 29.5281 50.1485 30.0019 50.1485C30.4757 50.1485 30.9426 50.1205 31.4022 50.0679C32.5462 47.8862 33.3198 44.2191 33.496 40.1807H26.5078Z" fill="#02BBA9"/>
<path d="M18.1406 40.1807C18.7124 43.8826 21.0616 47.0224 24.3081 48.7413C23.572 46.3266 23.111 43.3781 22.9874 40.1807H18.1406Z" fill="#02BBA9"/>
<path d="M41.8628 36.6622C41.291 32.9603 38.9418 29.82 35.6953 28.1016C36.4314 30.5163 36.8924 33.4647 37.016 36.6622H41.8628Z" fill="#02BBA9"/>
<path d="M33.496 36.6646C33.3198 32.6257 32.5462 28.9586 31.4022 26.7769C30.9426 26.7242 30.4757 26.6963 30.0019 26.6963C29.5281 26.6963 29.0612 26.7242 28.6016 26.7769C27.4577 28.9586 26.6841 32.6257 26.5078 36.6646H33.496Z" fill="#02BBA9"/>
<path d="M24.3081 28.1016C21.0616 29.82 18.7124 32.9603 18.1406 36.6622H22.9874C23.111 33.4647 23.572 30.5163 24.3081 28.1016Z" fill="#02BBA9"/>
<path d="M57.0035 0H2.99652C1.34445 0 0 1.34445 0 2.99652V13.3287H60V2.99652C60 1.34445 58.6555 0 57.0035 0ZM38.0168 9.05731C36.6953 9.05731 35.6236 7.98615 35.6236 6.66458C35.6236 5.34302 36.6953 4.27139 38.0168 4.27139C39.3384 4.27139 40.41 5.34302 40.41 6.66458C40.41 7.98615 39.3388 9.05731 38.0168 9.05731ZM45.1149 9.05731C43.7929 9.05731 42.7217 7.98615 42.7217 6.66458C42.7217 5.34302 43.7929 4.27139 45.1149 4.27139C46.4365 4.27139 47.5076 5.34302 47.5076 6.66458C47.5076 7.98615 46.4365 9.05731 45.1149 9.05731ZM52.2125 9.05731C50.891 9.05731 49.8193 7.98615 49.8193 6.66458C49.8193 5.34302 50.891 4.27139 52.2125 4.27139C53.5341 4.27139 54.6057 5.34302 54.6057 6.66458C54.6057 7.98615 53.5341 9.05731 52.2125 9.05731Z" fill="#02BBA9"/>
</svg>
