<svg xmlns="http://www.w3.org/2000/svg" width="300" height="300" viewBox="0 0 300 300">
  <defs>
    <style>
      .cls-1 {
        fill: #4d59a1;
      }

      .cls-2, .cls-3 {
        fill: #e8e8e8;
      }

      .cls-3 {
        fill-rule: evenodd;
      }
    </style>
  </defs>
  <circle id="Эллипс_1" data-name="Эллипс 1" class="cls-1" cx="150" cy="150" r="150"/>
  <circle id="Эллипс_2" data-name="Эллипс 2" class="cls-2" cx="105.406" cy="60.047" r="24.094"/>
  <circle id="Эллипс_2_копия" data-name="Эллипс 2 копия" class="cls-2" cx="44.094" cy="179.719" r="24.094"/>
  <circle id="Эллипс_2_копия_2" data-name="Эллипс 2 копия 2" class="cls-2" cx="200.016" cy="241.953" r="24.078"/>
  <path id="Эллипс_2_копия_3" data-name="Эллипс 2 копия 3" class="cls-3" d="M163.908,126.059a24.069,24.069,0,1,1-24.092,24.068A24.08,24.08,0,0,1,163.908,126.059Z"/>
  <circle id="Эллипс_2_копия_4" data-name="Эллипс 2 копия 4" class="cls-2" cx="262.328" cy="137.641" r="24.078"/>
  <path id="Фигура_1" data-name="Фигура 1" class="cls-3" d="M108.21,75.426l7.58-4.852,48,75-7.58,4.852Z"/>
  <path id="Фигура_2" data-name="Фигура 2" class="cls-3" d="M163.586,159.462l-1.172-8.924,99-13,1.172,8.924Z"/>
  <path id="Фигура_3" data-name="Фигура 3" class="cls-3" d="M104.008,68.035l3.984-8.07,160,79-3.984,8.07Z"/>
  <path id="Фигура_4" data-name="Фигура 4" class="cls-3" d="M100.988,62.961l8.024,4.077-62,122-8.023-4.078Z"/>
  <path id="Фигура_5" data-name="Фигура 5" class="cls-3" d="M46.126,188.357l-2.251-8.714,120-31,2.252,8.714Z"/>
  <path id="Фигура_6" data-name="Фигура 6" class="cls-3" d="M159.966,155.994l8.068-3.988,44,89-8.068,3.988Z"/>
  <path id="Фигура_7" data-name="Фигура 7" class="cls-3" d="M44.538,188.256l2.924-8.512,163,56-2.924,8.512Z"/>
  <path id="Фигура_8" data-name="Фигура 8" class="cls-3" d="M259.145,139.679l7.71,4.642-59,98-7.71-4.642Z"/>
</svg>
