<svg id="RUller" xmlns="http://www.w3.org/2000/svg" width="300" height="300" viewBox="0 0 300 300">
  <defs>
    <style>
      .cls-1, .cls-4 {
        fill: #83355e;
      }

      .cls-2 {
        fill: none;
      }

      .cls-2, .cls-4 {
        stroke: #fff;
        stroke-width: 13.4px;
      }

      .cls-2, .cls-3, .cls-4 {
        fill-rule: evenodd;
      }

      .cls-3 {
        fill: #fff;
      }
    </style>
  </defs>
  <circle id="Эллипс_1" data-name="Эллипс 1" class="cls-1" cx="150" cy="150" r="150"/>
  <path id="Прямоугольник_1" data-name="Прямоугольник 1" class="cls-2" d="M55.126,101.624l49.5-49.5,144.25,144.25-49.5,49.5Z"/>
  <path id="Фигура_1" data-name="Фигура 1" class="cls-3" d="M110.988,105.159L104.624,98.8l16.97-16.971,6.364,6.364Z"/>
  <path id="Фигура_1_копия" data-name="Фигура 1 копия" class="cls-3" d="M122.615,117.787l-6.364-6.364,16.971-16.971,6.364,6.364Z"/>
  <path id="Фигура_1_копия_2" data-name="Фигура 1 копия 2" class="cls-3" d="M190.243,185.414l-6.364-6.364,16.97-16.97,6.364,6.364Z"/>
  <path id="Фигура_1_копия_3" data-name="Фигура 1 копия 3" class="cls-3" d="M212.87,207.042l-6.364-6.364,16.971-16.971,6.364,6.364Z"/>
  <path id="Фигура_1_копия_4" data-name="Фигура 1 копия 4" class="cls-3" d="M201.5,195.669l-6.363-6.364,16.97-16.97,6.364,6.363Z"/>
  <path id="Прямоугольник_1_копия" data-name="Прямоугольник 1 копия" class="cls-4" d="M191.3,57.09l49.536,49.459L120.015,227.558,70.48,178.1Z"/>
  <path id="Многоугольник_1" data-name="Многоугольник 1" class="cls-2" d="M95.008,229l-13.062-1.212-12.17.5,0.468-12.2L69.005,203,81.6,216.406Z"/>
  <path id="Фигура_2" data-name="Фигура 2" class="cls-3" d="M180.727,98.817l6.369,6.359L101.6,190.8l-6.369-6.359Z"/>
  <path id="Фигура_2_копия" data-name="Фигура 2 копия" class="cls-3" d="M192.757,110.829l6.369,6.359-85.494,85.626-6.369-6.359Z"/>
</svg>
