<svg xmlns="http://www.w3.org/2000/svg" width="300" height="300" viewBox="0 0 300 300">
  <defs>
    <style>
      .cls-1, .cls-5 {
        fill: #d24a43;
      }

      .cls-2, .cls-3, .cls-4 {
        fill: #fff;
      }

      .cls-2, .cls-5 {
        fill-rule: evenodd;
      }

      .cls-4 {
        stroke: #d24a43;
        stroke-width: 5px;
      }
    </style>
  </defs>
  <circle id="Эллипс_1" data-name="Эллипс 1" class="cls-1" cx="150" cy="150" r="150"/>
  <path id="Прямоугольник_1" data-name="Прямоугольник 1" class="cls-2" d="M260.309,150L150,260.309,39.691,150,150,39.691Z"/>
  <circle id="Эллипс_2" data-name="Эллипс 2" class="cls-1" cx="172" cy="229" r="15"/>
  <circle id="Эллипс_2_копия" data-name="Эллипс 2 копия" class="cls-1" cx="228" cy="131" r="15"/>
  <circle id="Эллипс_2_копия_2" data-name="Эллипс 2 копия 2" class="cls-1" cx="128" cy="71" r="15"/>
  <circle id="Эллипс_2_копия_3" data-name="Эллипс 2 копия 3" class="cls-1" cx="72" cy="171" r="15"/>
  <circle id="Эллипс_2_копия_4" data-name="Эллипс 2 копия 4" class="cls-3" cx="239" cy="181" r="15"/>
  <circle id="Эллипс_2_копия_5" data-name="Эллипс 2 копия 5" class="cls-3" cx="182" cy="62" r="15"/>
  <circle id="Эллипс_2_копия_6" data-name="Эллипс 2 копия 6" class="cls-3" cx="63" cy="116" r="15"/>
  <circle id="Эллипс_2_копия_7" data-name="Эллипс 2 копия 7" class="cls-3" cx="118" cy="238" r="15"/>
  <circle id="Эллипс_2_копия_8" data-name="Эллипс 2 копия 8" class="cls-4" cx="118" cy="131" r="15"/>
  <circle id="Эллипс_2_копия_9" data-name="Эллипс 2 копия 9" class="cls-4" cx="171" cy="113" r="15"/>
  <circle id="Эллипс_2_копия_10" data-name="Эллипс 2 копия 10" class="cls-4" cx="189" cy="170" r="15"/>
  <circle id="Эллипс_2_копия_11" data-name="Эллипс 2 копия 11" class="cls-4" cx="133" cy="185" r="15"/>
  <path id="Фигура_1" data-name="Фигура 1" class="cls-5" d="M202.832,90.8l6.336,6.392-113,112L89.832,202.8Z"/>
  <path id="Фигура_1_копия" data-name="Фигура 1 копия" class="cls-5" d="M210.009,202.692l-6.372,6.32L91.991,96.308l6.372-6.319Z"/>
  <path id="Прямоугольник_2" data-name="Прямоугольник 2" class="cls-2" d="M112.51,122.715L122.59,113l14.043,14.572-10.081,9.714Z"/>
  <path id="Прямоугольник_2_копия" data-name="Прямоугольник 2 копия" class="cls-2" d="M165.51,119.715L175.59,110l14.043,14.572-10.081,9.714Z"/>
  <path id="Прямоугольник_2_копия_2" data-name="Прямоугольник 2 копия 2" class="cls-2" d="M167.51,116.715L177.59,107l14.043,14.572-10.081,9.714Z"/>
  <path id="Прямоугольник_2_копия_5" data-name="Прямоугольник 2 копия 5" class="cls-2" d="M112.51,175.715L122.59,166l14.043,14.572-10.081,9.714Z"/>
  <path id="Прямоугольник_2_копия_6" data-name="Прямоугольник 2 копия 6" class="cls-2" d="M114.51,174.715L124.59,165l14.043,14.572-10.081,9.714Z"/>
  <path id="Прямоугольник_2_копия_3" data-name="Прямоугольник 2 копия 3" class="cls-2" d="M174.492,190.183L164.886,180l14.721-13.885,9.606,10.184Z"/>
  <path id="Прямоугольник_2_копия_4" data-name="Прямоугольник 2 копия 4" class="cls-2" d="M179.492,191.183L169.886,181l14.721-13.885,9.606,10.184Z"/>
</svg>
