<svg version="1.1" viewBox="0.0 0.0 566.9291338582677 566.9291338582677" fill="none" stroke="none" stroke-linecap="square" stroke-miterlimit="10" xmlns:xlink="http://www.w3.org/1999/xlink" xmlns="http://www.w3.org/2000/svg"><clipPath id="p.0"><path d="m0 0l566.92914 0l0 566.92914l-566.92914 0l0 -566.92914z" clip-rule="nonzero"/></clipPath><g clip-path="url(#p.0)"><path fill="#000000" fill-opacity="0.0" d="m0 0l566.92914 0l0 566.92914l-566.92914 0z" fill-rule="evenodd"/><path fill="#453c3a" d="m-0.6633858 0l566.92914 0l0 566.92914l-566.92914 0z" fill-rule="evenodd"/><path stroke="#453c3a" stroke-width="1.0" stroke-linejoin="round" stroke-linecap="butt" d="m-0.6633858 0l566.92914 0l0 566.92914l-566.92914 0z" fill-rule="evenodd"/><path fill="#000000" fill-opacity="0.0" d="m-0.6614173 -11.448819l567.5906 0l0 589.8267l-567.5906 0z" fill-rule="evenodd"/><path fill="#ffffff" d="m261.80362 242.40305q0 25.265625 -7.8750153 44.734375q-7.875 19.46875 -22.9375 32.796875q-15.0625 13.328125 -36.96875 20.28125q-21.90625 6.953125 -51.5625 6.953125l-25.031242 0l0 95.71875q0 2.3125 -1.515625 4.171875q-1.5 1.859375 -4.984375 3.015625q-3.46875 1.15625 -9.265625 1.84375q-5.796875 0.703125 -14.828125 0.703125q-8.8125 0 -14.734375 -0.703125q-5.90625 -0.6875 -9.390629 -1.84375q-3.46875 -1.15625 -4.859375 -3.015625q-1.390625 -1.859375 -1.390625 -4.171875l0 -269.78125q0 -10.890625 5.671875 -16.328125q5.687504 -5.453125 14.968754 -5.453125l70.68749 0q10.65625 0 20.265625 0.8125q9.625 0.8125 23.0625 3.484375q13.453125 2.65625 27.234375 9.84375q13.796875 7.1875 23.53125 18.203125q9.734375 11.0 14.82814 25.71875q5.09375 14.71875 5.09375 33.015625zm-63.73439 4.40625q0 -15.75 -5.5625 -25.953125q-5.5625 -10.203125 -13.671875 -15.0625q-8.109375 -4.875 -17.03125 -6.140625q-8.921875 -1.28125 -18.421875 -1.28125l-25.953117 0l0 101.75l27.343742 0q14.59375 0 24.4375 -3.9375q9.859375 -3.9375 16.109375 -11.0q6.265625 -7.078125 9.5 -16.921875q3.25 -9.859375 3.25 -21.453125z" fill-rule="nonzero"/><path fill="#00e9d4" d="m526.2564 361.3093q0 15.984375 -4.40625 28.96875q-4.40625 12.984375 -12.171875 22.953125q-7.75 9.953125 -18.53125 17.140625q-10.78125 7.1875 -23.765625 11.828125q-12.96875 4.625 -27.6875 6.828125q-14.71875 2.203125 -32.796875 2.203125l-79.734375 0q-7.640625 0 -12.859375 -4.515625q-5.21875 -4.515625 -5.21875 -14.71875l0 -261.4375q0 -10.1875 5.21875 -14.703125q5.21875 -4.53125 12.859375 -4.53125l75.328125 0q27.578125 0 46.703125 4.640625q19.125 4.625 32.21875 14.015625q13.09375 9.390625 20.046875 23.765625q6.953125 14.359375 6.953125 33.828125q0 10.890625 -2.78125 20.515625q-2.78125 9.609375 -8.109375 17.5q-5.328125 7.875 -13.09375 13.90625q-7.765625 6.015625 -17.734375 9.734375q12.75 2.3125 23.515625 8.109375q10.78125 5.796875 18.78125 14.953125q8.0 9.15625 12.625 21.4375q4.640625 12.28125 4.640625 27.578125zm-78.796875 -126.3125q0 -9.046875 -2.78125 -16.21875q-2.78125 -7.1875 -8.34375 -11.9375q-5.5625 -4.75 -14.03125 -7.296875q-8.453125 -2.5625 -22.59375 -2.5625l-30.828125 0l0 77.875l34.078125 0q13.203125 0 21.078125 -3.125q7.890625 -3.125 13.09375 -8.578125q5.21875 -5.453125 7.765625 -12.75q2.5625 -7.296875 2.5625 -15.40625zm15.53125 128.39062q0 -10.421875 -3.484375 -18.640625q-3.46875 -8.234375 -10.203125 -13.796875q-6.71875 -5.5625 -17.15625 -8.578125q-10.421875 -3.015625 -27.109375 -3.015625l-36.15625 0l0 85.296875l44.046875 0q12.734375 0 21.421875 -2.671875q8.703125 -2.671875 15.078125 -7.875q6.375 -5.21875 9.96875 -12.984375q3.59375 -7.765625 3.59375 -17.734375z" fill-rule="nonzero"/></g></svg>