<svg width="36" height="37" viewBox="0 0 36 37" fill="none" xmlns="http://www.w3.org/2000/svg">
<path d="M20.76 19.0872H19.0547V20.8828H20.7601C21.2552 20.8829 21.6579 20.48 21.6579 19.985C21.6579 19.4899 21.2551 19.0872 20.76 19.0872Z" fill="#02BBA9" fill-opacity="0.4"/>
<path d="M12.0751 19.0874C11.3574 19.0874 10.7734 19.6713 10.7734 20.389V20.883H13.3767V20.389C13.3767 19.6712 12.7927 19.0874 12.0751 19.0874Z" fill="#02BBA9" fill-opacity="0.4"/>
<path d="M0 13.5115V28.6621C0 30.4068 1.4194 31.8262 3.16406 31.8262H32.8359C34.5806 31.8262 36 30.4068 36 28.6621V13.5115H0ZM15.4865 24.9917C15.4865 25.5742 15.0143 26.0464 14.4319 26.0464C13.8494 26.0464 13.3772 25.5742 13.3772 24.9917V22.9924H10.774V24.9917C10.774 25.5742 10.3018 26.0464 9.7193 26.0464C9.13683 26.0464 8.66461 25.5742 8.66461 24.9917V20.389H8.66454C8.66454 18.5082 10.1947 16.978 12.0755 16.978C13.9563 16.978 15.4865 18.5082 15.4865 20.389V24.9917ZM20.7601 22.9923H19.0547V24.9917C19.0547 25.5741 18.5825 26.0464 18 26.0464C17.4175 26.0464 16.9453 25.5741 16.9453 24.9917V18.0326C16.9453 17.4501 17.4175 16.9779 18 16.9779H20.7601C22.4183 16.9779 23.7674 18.3269 23.7674 19.9851C23.7674 21.6433 22.4183 22.9923 20.7601 22.9923ZM27.3355 24.9916C27.3355 25.5741 26.8632 26.0463 26.2808 26.0463C25.6983 26.0463 25.2261 25.5741 25.2261 24.9916V18.0326C25.2261 17.4501 25.6983 16.9779 26.2808 16.9779C26.8632 16.9779 27.3355 17.4501 27.3355 18.0326V24.9916Z" fill="#02BBA9" fill-opacity="0.4"/>
<path d="M32.8359 6.17041H3.16406C1.4194 6.17041 0 7.58981 0 9.33447V11.402H36V9.33447C36 7.58981 34.5806 6.17041 32.8359 6.17041Z" fill="#02BBA9"/>
</svg>
