<svg version="1.1" viewBox="0.0 0.0 336.37795275590554 83.14960629921259" fill="none" stroke="none" stroke-linecap="square" stroke-miterlimit="10" xmlns:xlink="http://www.w3.org/1999/xlink" xmlns="http://www.w3.org/2000/svg"><clipPath id="p.0"><path d="m0 0l336.37796 0l0 83.149605l-336.37796 0l0 -83.149605z" clip-rule="nonzero"/></clipPath><g clip-path="url(#p.0)"><path fill="#000000" fill-opacity="0.0" d="m0 0l336.37796 0l0 83.149605l-336.37796 0z" fill-rule="evenodd"/><path fill="#000000" fill-opacity="0.0" d="m-13.22578 -13.307087l361.22833 0l0 95.14961l-361.22833 0z" fill-rule="evenodd"/><path fill="#ffffff" d="m0.51196796 75.84022l0 -48.26563q0 -1.90625 0.109375 -2.8125q0.125 -0.90625 0.70312494 -2.0625q1.171875 -2.234375 5.546875 -2.234375q4.3749995 0 5.9062495 1.125q1.53125 1.109375 1.78125 3.265625q3.140626 -4.3125 9.875001 -4.3125q6.734375 0 12.765623 6.375q6.046875 6.359375 6.046875 14.796875q0 8.421875 -6.0 14.796875q-5.999998 6.359375 -12.781248 6.359375q-6.765625 0 -9.828126 -3.796875l0 16.687504q0 1.90625 -0.125 2.8125q-0.125 0.90625 -0.75 2.109375q-0.609375 1.203125 -2.09375 1.6875q-1.484375 0.5 -4.0468745 0.5q-2.5625 0 -4.09375 -0.5q-1.53125 -0.484375 -2.15625 -1.640625q-0.62499994 -1.15625 -0.74999994 -2.078125q-0.109375 -0.90625 -0.109375 -2.8125zm16.359375 -38.92188q-1.906251 2.234375 -1.906251 4.875q0 2.640625 1.937501 4.84375q1.953125 2.1875 4.96875 2.1875q3.015625 0 5.125 -2.140625q2.109375 -2.15625 2.109375 -4.890625q0 -2.734375 -1.984375 -4.921875q-1.984375 -2.1875 -5.171875 -2.1875q-3.171875 0 -5.078125 2.234375zm31.746504 -9.171875q0 -1.90625 0.109375 -2.859375q0.125 -0.953125 0.703125 -2.1875q1.171875 -2.15625 6.453125 -2.15625q3.96875 0 5.625 1.40625q1.40625 1.15625 1.484375 3.5625q0.078125 0.828125 0.078125 2.390625l0 28.9375q0 1.890625 -0.125 2.84375q-0.125 0.953125 -0.78125 2.1875q-1.078125 2.1562538 -6.359375 2.1562538q-5.203125 0 -6.375 -2.2343788q-0.578125 -1.234375 -0.703125 -2.140625q-0.109375 -0.921875 -0.109375 -2.90625l0 -29.0zm13.578125 -15.328125q-0.609375 1.1875 -2.1875 1.6875q-1.5625 0.5 -4.171875 0.5q-2.59375 0 -4.171875 -0.5q-1.5625 -0.5 -2.1875 -1.734375q-0.625 -1.25 -0.75 -2.1875q-0.109375 -0.953125 -0.109375 -2.8593745q0 -1.90625 0.109375 -2.84375q0.125 -0.95312524 0.703125 -2.1093752q1.171875 -2.234375 6.453125 -2.234375q5.203125 0 6.28125 2.234375q0.65625 1.234375 0.78125 2.1875002q0.125 0.953125 0.125 2.859375q0 1.8906245 -0.125 2.8437495q-0.125 0.953125 -0.75 2.15625zm37.655445 29.78125l9.1875 9.265625q2.96875 2.96875 2.96875 5.078125q0 2.109375 -2.984375 5.046875q-2.96875 2.9375038 -5.03125 2.9375038q-2.0625 0 -5.046875 -2.9843788l-9.09375 -9.171875l-9.171875 9.171875q-2.96875 2.9843788 -5.0 2.9843788q-2.015625 0 -5.046875 -2.9375038q-3.015625 -2.9375 -3.015625 -5.046875q0 -2.109375 2.984375 -5.078125l9.171875 -9.265625l-9.171875 -9.25q-2.984375 -2.96875 -2.984375 -5.078125q0 -2.109375 3.015625 -5.078125q3.03125 -2.984375 5.046875 -2.984375q2.03125 0 5.0 2.96875l9.171875 9.265625l9.09375 -9.265625q2.984375 -2.96875 5.046875 -2.96875q2.0625 0 5.03125 2.984375q2.984375 2.96875 2.984375 5.078125q0 2.109375 -2.96875 5.078125l-9.1875 9.25z" fill-rule="nonzero"/><path fill="#02bba9" d="m140.43619 20.543339q7.359375 0 13.515625 6.53125q6.15625 6.53125 6.15625 15.171875q0 8.640625 -6.109375 15.125q-6.109375 6.484375 -13.140625 6.484375q-7.03125 0 -10.0 -3.953125q-0.671875 4.046875 -7.1093674 4.046875q-5.203125 0 -6.375 -2.234375q-0.578125 -1.234375 -0.703125 -2.1875q-0.109375 -0.953125 -0.109375 -2.859375l0 -49.34375q0 -1.90625 0.109375 -2.84375q0.125 -0.95312524 0.703125 -2.1093752q1.171875 -2.234375 6.453125 -2.234375q5.2031174 0 6.2812424 2.234375q0.65625 1.234375 0.78125 2.1875002q0.125 0.953125 0.125 2.84375l0 17.203125q3.3125 -4.0625 9.421875 -4.0625zm-7.234375 26.703125q2.03125 2.234375 5.09375 2.234375q3.0625 0 5.203125 -2.234375q2.15625 -2.234375 2.15625 -4.953125q0 -2.734375 -1.984375 -5.0q-1.984375 -2.28125 -5.296875 -2.28125q-3.296875 0 -5.25 2.3125q-1.9375 2.3125 -1.9375 5.0q0 2.6875 2.015625 4.921875zm31.04181 -4.953125q0 -9.921875 6.9375 -16.359375q6.953125 -6.453125 15.875 -6.453125q8.9375 0 15.796875 6.40625q6.859375 6.40625 6.859375 16.3125q0 6.875 -3.5625 12.203125q-3.546875 5.328125 -8.640625 7.859375q-5.078125 2.5156288 -10.53125 2.5156288q-5.453125 0 -10.578125 -2.6875038q-5.125 -2.6875 -8.640625 -7.9375q-3.515625 -5.25 -3.515625 -11.859375zm17.28125 5.90625q2.640625 2.03125 5.359375 2.03125q2.734375 0 5.453125 -2.0625q2.734375 -2.078125 2.734375 -6.125q0 -4.046875 -2.5625 -6.03125q-2.5625 -1.984375 -5.53125 -1.984375q-2.96875 0 -5.53125 2.0625q-2.5625 2.0625 -2.5625 6.078125q0 4.0 2.640625 6.03125zm32.31244 -5.90625q0 -9.921875 6.9375 -16.359375q6.953125 -6.453125 15.875 -6.453125q8.937515 0 15.79689 6.40625q6.8593903 6.40625 6.8593903 16.3125q0 6.875 -3.5625153 12.203125q-3.546875 5.328125 -8.640625 7.859375q-5.0781403 2.5156288 -10.531265 2.5156288q-5.453125 0 -10.578125 -2.6875038q-5.125 -2.6875 -8.640625 -7.9375q-3.515625 -5.25 -3.515625 -11.859375zm17.28125 5.90625q2.640625 2.03125 5.359375 2.03125q2.734375 0 5.453125 -2.0625q2.7343903 -2.078125 2.7343903 -6.125q0 -4.046875 -2.5625153 -6.03125q-2.5625 -1.984375 -5.53125 -1.984375q-2.96875 0 -5.53125 2.0625q-2.5625 2.0625 -2.5625 6.078125q0 4.0 2.640625 6.03125zm33.890594 11.9375q-1.578125 -0.984375 -1.578125 -3.125q0 -2.15625 3.140625 -6.546875q0.90625 -1.390625 2.9375 -1.390625q2.03125 0 5.5 2.03125q3.46875 2.015625 6.28125 2.015625q5.046875 0 5.046875 -1.984375q0 -1.578125 -5.546875 -2.3125q-5.203125 -0.75 -10.328125 -3.890625q-2.40625 -1.484375 -3.984375 -4.671875q-1.5625 -3.1875 -1.5625 -7.5625q0 -13.0625 17.9375 -13.0625q5.875 0 12.078125 2.8125q2.890625 1.328125 2.890625 3.3125q0 1.984375 -1.828125 4.875q-1.8125 2.890625 -3.71875 2.890625q-0.984375 0 -3.671875 -1.234375q-2.6875 -1.25 -5.828125 -1.25q-4.875 0 -4.875 1.828125q0 2.46875 5.625 3.21875q5.453125 0.578125 10.578125 3.140625q2.390625 1.15625 4.0 4.015625q1.625 2.84375 1.625 7.140625q0 4.296875 -1.625 7.3125q-1.609375 3.015625 -4.5 4.515625q-5.28125 2.5625038 -13.265625 2.5625038q-7.96875 0 -15.328125 -4.640629zm64.04932 -25.03125l-5.375 -0.34375l0 11.40625q0 2.234375 0.703125 3.234375q0.703125 0.984375 2.640625 0.984375q1.953125 0 2.984375 0.125q1.03125 0.125 2.1875 0.78125q1.90625 1.078125 1.90625 5.546875q0 5.203125 -2.3125 6.359375q-1.234375 0.578125 -2.1875 0.703125q-0.953125 0.12500381 -2.765625 0.12500381q-8.609375 0 -13.078125 -3.8750038q-4.453125 -3.890625 -4.453125 -13.15625l0 -12.234375q-1.5625 0.25 -3.390625 0.25q-1.8125 0 -3.015625 -1.40625q-1.203125 -1.40625 -1.203125 -4.78125q0 -3.390625 0.40625 -4.921875q0.421875 -1.53125 1.171875 -2.1875q1.3125 -1.078125 3.296875 -1.078125l2.734375 0.328125l0 -8.515625q0 -1.90625 0.125 -2.8125q0.125 -0.90625 0.78125 -1.9843745q1.078125 -2.0625 6.375 -2.0625q5.609375 0 6.6875 3.0624995q0.40625 1.3125 0.40625 4.203125l0 8.109375q3.640625 -0.328125 5.5 -0.328125q1.859375 0 2.8125 0.125q0.953125 0.125 2.1875 0.78125q2.15625 1.078125 2.15625 6.359375q0 5.21875 -2.234375 6.375q-1.234375 0.578125 -2.1875 0.703125q-0.953125 0.125 -2.859375 0.125z" fill-rule="nonzero"/></g></svg>