<svg version="1.1" viewBox="0.0 0.0 415.748031496063 151.1811023622047" fill="none" stroke="none" stroke-linecap="square" stroke-miterlimit="10" xmlns:xlink="http://www.w3.org/1999/xlink" xmlns="http://www.w3.org/2000/svg"><clipPath id="p.0"><path d="m0 0l415.74802 0l0 151.1811l-415.74802 0l0 -151.1811z" clip-rule="nonzero"/></clipPath><g clip-path="url(#p.0)"><path fill="#000000" fill-opacity="0.0" d="m0 0l415.74802 0l0 151.1811l-415.74802 0z" fill-rule="evenodd"/><path fill="#000000" fill-opacity="0.0" d="m0 0l414.80316 0l0 151.1811l-414.80316 0z" fill-rule="evenodd"/><path fill="#02bba9" d="m13.975159 123.984924l0 -56.078125q0 -2.203125 0.140625 -3.25q0.140625 -1.0625 0.8125 -2.40625q1.34375 -2.59375 6.421875 -2.59375q5.09375 0 6.875 1.296875q1.78125 1.296875 2.0625 3.796875q3.65625 -5.0 11.46875 -5.0q7.828125 0 14.828125 7.390625q7.015625 7.390625 7.015625 17.1875q0 9.796875 -6.96875 17.1875q-6.953125 7.390625 -14.828125 7.390625q-7.859375 0 -11.421875 -4.421875l0 19.390625q0 2.21875 -0.140625 3.265625q-0.140625 1.0625 -0.859375 2.453125q-0.71875 1.390625 -2.453125 1.96875q-1.71875 0.578125 -4.703125 0.578125q-2.96875 0 -4.75 -0.578125q-1.78125 -0.578125 -2.5 -1.921875q-0.71875 -1.34375 -0.859375 -2.40625q-0.140625 -1.046875 -0.140625 -3.25zm19.0 -45.21875q-2.203125 2.59375 -2.203125 5.671875q0 3.0625 2.25 5.609375q2.265625 2.546875 5.765625 2.546875q3.5 0 5.953125 -2.5q2.453125 -2.5 2.453125 -5.65625q0 -3.171875 -2.3125 -5.71875q-2.296875 -2.546875 -6.0 -2.546875q-3.6875 0 -5.90625 2.59375zm36.87198 -10.65625q0 -2.21875 0.140625 -3.3125q0.140625 -1.109375 0.8125 -2.546875q1.34375 -2.5 7.484375 -2.5q4.609375 0 6.53125 1.640625q1.640625 1.34375 1.734375 4.125q0.09375 0.953125 0.09375 2.78125l0 33.59375q0 2.21875 -0.140625 3.328125q-0.140625 1.09375 -0.921875 2.53125q-1.234375 2.5 -7.390625 2.5q-6.046875 0 -7.390625 -2.59375q-0.671875 -1.4375 -0.8125 -2.484375q-0.140625 -1.0625 -0.140625 -3.375l0 -33.6875zm15.78125 -17.8125q-0.71875 1.390625 -2.546875 1.96875q-1.8125 0.578125 -4.84375 0.578125q-3.015625 0 -4.84375 -0.578125q-1.828125 -0.578125 -2.546875 -2.015625q-0.71875 -1.4375 -0.859375 -2.53125q-0.140625 -1.109375 -0.140625 -3.3125q0 -2.21875 0.140625 -3.3125q0.140625 -1.109375 0.8125 -2.453125q1.34375 -2.59375 7.484375 -2.59375q6.0625 0 7.296875 2.59375q0.78125 1.4375 0.921875 2.546875q0.140625 1.09375 0.140625 3.3125q0 2.203125 -0.140625 3.3125q-0.140625 1.09375 -0.875 2.484375zm43.729996 34.609375l10.65625 10.75q3.453125 3.453125 3.453125 5.90625q0 2.453125 -3.453125 5.859375q-3.453125 3.40625 -5.859375 3.40625q-2.390625 0 -5.84375 -3.453125l-10.5625 -10.65625l-10.65625 10.65625q-3.453125 3.453125 -5.8125 3.453125q-2.34375 0 -5.859375 -3.40625q-3.5 -3.40625 -3.5 -5.859375q0 -2.453125 3.453125 -5.90625l10.65625 -10.75l-10.65625 -10.75q-3.453125 -3.453125 -3.453125 -5.90625q0 -2.453125 3.5 -5.90625q3.515625 -3.453125 5.859375 -3.453125q2.359375 0 5.8125 3.453125l10.65625 10.75l10.5625 -10.75q3.453125 -3.453125 5.84375 -3.453125q2.40625 0 5.859375 3.453125q3.453125 3.453125 3.453125 5.90625q0 2.453125 -3.453125 5.90625l-10.65625 10.75z" fill-rule="nonzero"/><path fill="#ffffff" d="m176.49348 59.75055q8.546875 0 15.703125 7.59375q7.15625 7.578125 7.15625 17.609375q0 10.03125 -7.109375 17.578125q-7.109375 7.53125 -15.265625 7.53125q-8.15625 0 -11.609375 -4.609375q-0.765625 4.703125 -8.265625 4.703125q-6.046875 0 -7.390625 -2.59375q-0.671875 -1.4375 -0.8125 -2.546875q-0.140625 -1.109375 -0.140625 -3.3125l0 -57.3125q0 -2.203125 0.140625 -3.296875q0.140625 -1.109375 0.8125 -2.453125q1.34375 -2.59375 7.484375 -2.59375q6.0625 0 7.296875 2.59375q0.78125 1.4375 0.921875 2.546875q0.140625 1.09375 0.140625 3.296875l0 19.96875q3.84375 -4.703125 10.9375 -4.703125zm-8.40625 31.015625q2.359375 2.59375 5.90625 2.59375q3.5625 0 6.046875 -2.59375q2.5 -2.59375 2.5 -5.765625q0 -3.171875 -2.296875 -5.8125q-2.296875 -2.640625 -6.140625 -2.640625q-3.84375 0 -6.109375 2.703125q-2.25 2.6875 -2.25 5.8125q0 3.109375 2.34375 5.703125zm36.066345 -5.765625q0 -11.515625 8.0625 -19.0q8.0625 -7.5 18.421875 -7.5q10.375 0 18.34375 7.453125q7.9687347 7.4375 7.9687347 18.953125q0 7.96875 -4.1406097 14.171875q-4.125 6.1875 -10.03125 9.109375q-5.890625 2.921875 -12.234375 2.921875q-6.328125 0 -12.28125 -3.109375q-5.953125 -3.125 -10.03125 -9.21875q-4.078125 -6.09375 -4.078125 -13.78125zm20.046875 6.875q3.078125 2.34375 6.25 2.34375q3.171875 0 6.328125 -2.390625q3.171875 -2.40625 3.171875 -7.109375q0 -4.703125 -2.984375 -7.0q-2.96875 -2.3125 -6.421875 -2.3125q-3.453125 0 -6.4375 2.40625q-2.96875 2.390625 -2.96875 7.046875q0 4.65625 3.0625 7.015625zm37.553085 -6.875q0 -11.515625 8.0625 -19.0q8.0625 -7.5 18.421875 -7.5q10.375 0 18.34375 7.453125q7.96875 7.4375 7.96875 18.953125q0 7.96875 -4.140625 14.171875q-4.125 6.1875 -10.03125 9.109375q-5.890625 2.921875 -12.234375 2.921875q-6.328125 0 -12.28125 -3.109375q-5.953125 -3.125 -10.03125 -9.21875q-4.078125 -6.09375 -4.078125 -13.78125zm20.046875 6.875q3.078125 2.34375 6.25 2.34375q3.171875 0 6.328125 -2.390625q3.171875 -2.40625 3.171875 -7.109375q0 -4.703125 -2.984375 -7.0q-2.96875 -2.3125 -6.421875 -2.3125q-3.453125 0 -6.4375 2.40625q-2.96875 2.390625 -2.96875 7.046875q0 4.65625 3.0625 7.015625zm39.3656 13.859375q-1.8125 -1.140625 -1.8125 -3.640625q0 -2.5 3.640625 -7.59375q1.0625 -1.625 3.40625 -1.625q2.359375 0 6.390625 2.359375q4.03125 2.34375 7.296875 2.34375q5.84375 0 5.84375 -2.296875q0 -1.828125 -6.421875 -2.6875q-6.046875 -0.875 -12.0 -4.515625q-2.78125 -1.734375 -4.609375 -5.421875q-1.828125 -3.703125 -1.828125 -8.796875q0 -15.15625 20.828125 -15.15625q6.828125 0 14.015625 3.265625q3.375 1.53125 3.375 3.84375q0 2.296875 -2.125 5.65625q-2.109375 3.359375 -4.3125 3.359375q-1.15625 0 -4.28125 -1.4375q-3.109375 -1.4375 -6.765625 -1.4375q-5.65625 0 -5.65625 2.109375q0 2.875 6.53125 3.734375q6.328125 0.671875 12.28125 3.65625q2.78125 1.34375 4.65625 4.65625q1.875 3.3125 1.875 8.3125q0 4.984375 -1.875 8.484375q-1.875 3.5 -5.234375 5.234375q-6.140625 2.96875 -15.40625 2.96875q-9.265625 0 -17.8125 -5.375zm74.40802 -29.078125l-6.25 -0.390625l0 13.25q0 2.59375 0.8125 3.75q0.828125 1.140625 3.078125 1.140625q2.265625 0 3.453125 0.15625q1.203125 0.140625 2.546875 0.90625q2.21875 1.25 2.21875 6.421875q0 6.0625 -2.6875 7.40625q-1.453125 0.671875 -2.5625 0.8125q-1.09375 0.140625 -3.203125 0.140625q-9.984375 0 -15.171875 -4.515625q-5.1875 -4.515625 -5.1875 -15.265625l0 -14.203125q-1.8125 0.28125 -3.9375 0.28125q-2.109375 0 -3.5 -1.625q-1.390625 -1.625 -1.390625 -5.5625q0 -3.9375 0.484375 -5.71875q0.484375 -1.78125 1.34375 -2.546875q1.53125 -1.25 3.84375 -1.25l3.15625 0.390625l0 -9.890625q0 -2.203125 0.140625 -3.25q0.15625 -1.0625 0.921875 -2.3125q1.25 -2.40625 7.390625 -2.40625q6.53125 0 7.78125 3.5625q0.46875 1.53125 0.46875 4.890625l0 9.40625q4.234375 -0.390625 6.390625 -0.390625q2.15625 0 3.265625 0.15625q1.109375 0.140625 2.546875 0.90625q2.484375 1.25 2.484375 7.390625q0 6.046875 -2.578125 7.390625q-1.453125 0.671875 -2.5625 0.828125q-1.09375 0.140625 -3.296875 0.140625z" fill-rule="nonzero"/></g></svg>