<svg xmlns="http://www.w3.org/2000/svg" viewBox="0 0 202.7 53.8"><path d="M9.1 19c.4 0 .8-.1 1.2-.3.4-.2.7-.4 1-.7.3-.3.5-.6.7-1 .2-.4.2-.8.2-1.2 0-.4-.1-.8-.2-1.2-.2-.4-.4-.7-.7-1-.3-.3-.6-.5-1-.7-.4-.2-.8-.3-1.2-.3H4.6V19h4.5zM4.6 4.8v4h2.8c.3 0 .5-.1.7-.2.2-.1.4-.3.6-.5.1-.2.3-.4.4-.6.1-.3.2-.5.2-.8s-.1-.5-.2-.8c-.1-.2-.3-.4-.4-.6-.2-.2-.4-.3-.6-.4-.3-.1-.5-.1-.8-.1H4.6zm7.2 4.7c.7.1 1.4.4 2 .8.6.4 1.1.9 1.4 1.5.4.6.7 1.2.9 2 .2.7.3 1.4.3 2.1 0 1-.2 1.9-.6 2.8-.4.9-.9 1.6-1.6 2.3-.7.7-1.4 1.2-2.3 1.5-.9.4-1.8.6-2.8.6H.3V.6h7c.8 0 1.6.2 2.4.5.8.3 1.4.7 2 1.3.6.5 1 1.2 1.3 1.9.3.7.4 1.5.4 2.4 0 .5-.2 1-.4 1.5-.4.4-.7.9-1.2 1.3M18.9.6h4.3V19h7v4.1H18.9V.6zm24.2 5.9l-3 7.7h6l-3-7.7zM40.9.6h4.3l8.7 22.5h-4.5l-1.8-4.6h-9.2l-1.8 4.6h-4.5L40.9.6zm34.7 17.5c-.8.9-1.5 1.7-2.2 2.4-.7.7-1.5 1.3-2.3 1.7-.8.5-1.6.8-2.5 1-.9.2-1.9.3-3 .3-.8 0-1.6-.1-2.3-.2-.8-.2-1.5-.4-2.2-.7-1.4-.6-2.7-1.4-3.7-2.5-1.1-1.1-2-2.3-2.5-3.8-.6-1.5-.9-3-.9-4.6 0-1.1.1-2.1.4-3.1.3-1 .7-2 1.2-2.8.5-.9 1.1-1.7 1.9-2.4.7-.7 1.5-1.3 2.4-1.9.9-.5 1.8-.9 2.8-1.2 1-.3 2-.4 3.1-.4.9 0 1.8.1 2.7.3.9.2 1.8.5 2.6.9.4.2.8.4 1.2.7l1.2.9c.1.5.5.9.9 1.3s.8.9 1.2 1.5l-3.5 2.6-.6-.8c-.7-1-1.6-1.7-2.6-2.2-1-.5-2.1-.8-3.4-.8-1 0-2 .2-2.9.6-.9.4-1.7.9-2.4 1.6-.7.7-1.2 1.5-1.6 2.4-.4.9-.6 1.9-.6 2.9s.2 2 .6 2.9c.4.9.9 1.7 1.6 2.4.7.7 1.5 1.2 2.4 1.6.9.4 1.9.6 2.9.6 1.2 0 2.3-.3 3.3-.8s1.9-1.2 2.6-2.2l.6-.7 3.6 2.5zM78.8.6h4.3v7.8L89.2.6h5.1l-7.9 10L95 23.1h-5.1l-6.9-10v10h-4.3V.6zm23.6 0v8.5h7.5V.6h4.3v22.5h-4.3v-9.9h-7.5v9.9H98V.6h4.4zm29 0v4.2h-8.3v4.1h4.9V13h-4.9v5.9h8.3v4.2h-12.5V.6h12.5zm12.9 5.9l-3 7.7h6l-3-7.7zM142.1.6h4.3l8.7 22.5h-4.5l-1.8-4.6h-9.2l-1.8 4.6h-4.5L142.1.6zm19.5 8.8h1.5c1.4 0 2.3-.2 2.8-.5.5-.4.8-.9.8-1.8 0-.5-.1-.9-.4-1.3-.3-.4-.6-.6-1-.8-.4-.2-1.2-.2-2.4-.2h-1.3v4.6zM157.3.6h4.5c2.6 0 4.4.2 5.5.7 1.1.4 1.9 1.2 2.5 2.2.6 1 1 2.2 1 3.7s-.4 2.7-1.1 3.7c-.7 1-1.8 1.7-3.2 2.3l5.3 10h-4.7l-5.1-9.5h-.6v9.5h-4.3V.6zm15.7 0h14.3v4.2h-5v18.3H178V4.8h-5V.6zm29.3 3l-3.2 2.8c-1.1-1.5-2.2-2.3-3.4-2.3-.6 0-1 .2-1.4.5-.4.3-.5.6-.5 1s.1.7.4 1.1c.3.4 1.4 1.4 3.1 2.9 1.6 1.4 2.6 2.2 3 2.6.9.9 1.5 1.7 1.8 2.5.4.8.5 1.7.5 2.6 0 1.8-.6 3.4-1.9 4.6-1.3 1.2-2.9 1.8-5 1.8-1.6 0-3-.4-4.2-1.2-1.2-.8-2.2-2-3.1-3.7l3.6-2.2c1.1 2 2.3 3 3.7 3 .7 0 1.4-.2 1.9-.6.5-.4.7-.9.7-1.5 0-.5-.2-1-.6-1.5-.4-.5-1.2-1.3-2.5-2.3-2.4-2-4-3.5-4.7-4.6-.7-1.1-1.1-2.2-1.1-3.3 0-1.6.6-2.9 1.8-4 1.2-1.1 2.7-1.7 4.4-1.7 1.1 0 2.2.3 3.2.8 1.3.4 2.4 1.3 3.5 2.7m-184 42h-1.9c0 1.1-.2 2.2-.7 3.2-.4 1-1 1.9-1.8 2.6-.7.7-1.6 1.3-2.6 1.8-1 .4-2 .6-3.2.6-1.1 0-2.2-.2-3.2-.6-1-.4-1.9-1-2.6-1.8S1 49.8.5 48.8c-.4-1-.6-2.1-.6-3.2 0-.7.1-1.4.3-2 .2-.7.5-1.3.8-1.9.4-.6.8-1.1 1.3-1.6.5-.4 1-.8 1.6-1-.2-.1-.4-.3-.6-.5-.2-.2-.4-.5-.5-.8-.2-.3-.3-.6-.4-.9-.1-.3-.1-.6-.1-.9 0-.8.2-1.5.5-2.2.3-.7.7-1.3 1.2-1.8s1.1-.9 1.8-1.2c.7-.3 1.5-.5 2.2-.5.8 0 1.5.2 2.2.5.7.3 1.3.7 1.8 1.2s.9 1.1 1.2 1.8c.3.7.5 1.5.5 2.2H9.6c0-.2 0-.4-.1-.6-.1-.2-.2-.3-.3-.5-.1-.1-.3-.2-.5-.3-.2-.1-.4-.1-.6-.1-.2 0-.4 0-.6.1-.2.1-.3.2-.5.3-.1.1-.2.3-.3.5-.1.2-.1.4-.1.6 0 .2 0 .4.1.6.1.2.2.4.3.5.1.2.3.3.5.4.2.1.4.1.6.1v4c-.5 0-1 .1-1.5.3-.5.2-.9.5-1.2.9-.3.4-.6.8-.8 1.3-.2.5-.3 1-.3 1.5s.1 1 .3 1.5c.2.5.5.9.8 1.2.3.3.8.6 1.2.8.5.2 1 .3 1.5.3s1-.1 1.5-.3c.5-.2.9-.5 1.2-.8.4-.3.6-.8.8-1.2.2-.5.3-1 .3-1.5H10v-3.9h8.1v3.9zM39 33.8l-3.2 2.8c-1.1-1.5-2.2-2.3-3.4-2.3-.6 0-1 .2-1.4.5-.4.3-.5.6-.5 1s.1.7.4 1.1c.3.4 1.4 1.4 3.1 2.9 1.6 1.4 2.6 2.2 3 2.6.9.9 1.5 1.7 1.8 2.5.4.8.5 1.7.5 2.6 0 1.8-.6 3.4-1.9 4.6-1.3 1.2-2.9 1.8-5 1.8-1.6 0-3-.4-4.2-1.2-1.2-.8-2.2-2-3.1-3.7l3.6-2.2c1.1 2 2.3 3 3.7 3 .7 0 1.4-.2 1.9-.6.5-.4.7-.9.7-1.5 0-.5-.2-1-.6-1.5-.4-.5-1.2-1.3-2.5-2.3-2.4-2-4-3.5-4.7-4.6-.7-1.1-1.1-2.2-1.1-3.3 0-1.6.6-2.9 1.8-4 1.2-1.1 2.7-1.7 4.4-1.7 1.1 0 2.2.3 3.2.8 1.2.4 2.3 1.3 3.5 2.7m7.6 5.7h1.5c1.1 0 1.8-.1 2.2-.2.4-.2.7-.4 1-.8.2-.4.4-.8.4-1.3 0-.9-.3-1.5-1-1.9-.5-.3-1.4-.4-2.7-.4h-1.4v4.6zm-4.3-8.8H47c2.5 0 4.2.2 5.3.7 1.1.5 1.9 1.2 2.6 2.2.6 1 .9 2.2.9 3.6 0 1.6-.4 2.9-1.2 3.9-.8 1-1.9 1.8-3.3 2.2-.8.2-2.4.4-4.7.4v9.5h-4.3V30.7zm22.2 6l-3 7.7h6l-3-7.7zm-2.2-6h4.3l8.7 22.5h-4.5L69 48.6h-9.2L58 53.2h-4.5l8.8-22.5zm19.4 8.8h1.5c1.4 0 2.3-.2 2.8-.5.5-.4.8-.9.8-1.8 0-.5-.1-.9-.4-1.3-.3-.4-.6-.6-1-.8-.4-.1-1.2-.2-2.4-.2h-1.3v4.6zm-4.3-8.8H82c2.6 0 4.4.2 5.5.7 1.1.4 1.9 1.2 2.5 2.2.6 1 1 2.2 1 3.7s-.4 2.7-1.1 3.7c-.7 1-1.8 1.7-3.2 2.3l5.3 10h-4.7l-5.1-9.5h-.6v9.5h-4.3V30.7zm22.2 8.8h1.5c1.4 0 2.3-.2 2.8-.5.5-.4.8-.9.8-1.8 0-.5-.1-.9-.4-1.3-.3-.4-.6-.6-1-.8-.4-.2-1.2-.2-2.4-.2h-1.3v4.6zm-4.3-8.8h4.5c2.6 0 4.4.2 5.5.7 1.1.4 1.9 1.2 2.5 2.2.6 1 1 2.2 1 3.7s-.4 2.7-1.1 3.7c-.7 1-1.8 1.7-3.2 2.3l5.3 10h-4.7l-5.1-9.5h-.6v9.5h-4.3V30.7zm28 18.7c1 0 2-.2 2.9-.6.9-.4 1.7-.9 2.4-1.6.7-.7 1.2-1.5 1.6-2.4.4-.9.6-1.9.6-2.9s-.2-2-.6-2.9c-.4-.9-.9-1.7-1.6-2.4-.7-.7-1.5-1.2-2.4-1.6-.9-.4-1.9-.6-2.9-.6s-1.9.2-2.8.6c-.9.4-1.7.9-2.4 1.6-.7.7-1.2 1.5-1.6 2.4-.4.9-.6 1.9-.6 2.9s.2 2 .6 2.9c.4.9.9 1.7 1.6 2.4.7.7 1.5 1.2 2.4 1.6.9.4 1.8.6 2.8.6m10.9-12c.6 1.5.9 3 .9 4.6 0 1.6-.3 3.1-.9 4.6-.3.7-.7 1.4-1.1 2-.4.6-.9 1.2-1.4 1.8-1.1 1.1-2.3 1.9-3.8 2.5-1.5.6-3 .9-4.6.9-1.6 0-3.1-.3-4.6-.9-1.4-.6-2.7-1.4-3.8-2.5-1.1-1.1-1.9-2.3-2.5-3.7-.6-1.5-.9-3-.9-4.6 0-1.6.3-3.1.9-4.6.3-.7.7-1.4 1.1-2 .4-.6.9-1.2 1.5-1.8.6-.6 1.1-1 1.8-1.5.6-.4 1.3-.8 2-1.1.7-.3 1.5-.6 2.2-.7.8-.2 1.5-.2 2.3-.2 1.6 0 3.2.3 4.6.9.7.3 1.4.7 2 1.1.6.4 1.2.9 1.8 1.5 1.1 1 1.9 2.3 2.5 3.7m2.4-6.7h4.2l3.3 14.4 4-14.4h3.6l4.1 14.4 3.2-14.4h4.2l-5.1 22.5H154l-4.1-14.5-4.1 14.5h-4.1l-5.1-22.5zm41.5 3.1l-3.2 2.8c-1.1-1.5-2.2-2.3-3.4-2.3-.6 0-1 .2-1.4.5-.4.3-.5.6-.5 1s.1.7.4 1.1c.3.4 1.4 1.4 3.1 2.9 1.6 1.4 2.6 2.2 3 2.6.9.9 1.5 1.7 1.8 2.5.4.8.5 1.7.5 2.6 0 1.8-.6 3.4-1.9 4.6-1.3 1.2-2.9 1.8-5 1.8-1.6 0-3-.4-4.2-1.2-1.2-.8-2.2-2-3.1-3.7l3.6-2.2c1.1 2 2.3 3 3.7 3 .7 0 1.4-.2 1.9-.6.5-.4.7-.9.7-1.5 0-.5-.2-1-.6-1.5-.4-.5-1.2-1.3-2.5-2.3-2.4-2-4-3.5-4.7-4.6-.7-1.1-1.1-2.2-1.1-3.3 0-1.6.6-2.9 1.8-4 1.2-1.1 2.7-1.7 4.4-1.7 1.1 0 2.2.3 3.2.8 1.2.4 2.3 1.3 3.5 2.7"></path></svg>