<svg id="Layer_1" data-name="Layer 1" xmlns="http://www.w3.org/2000/svg" viewBox="0 0 1000 896.69"><defs><style>.cls-1{fill:#231f20;}</style></defs><path class="cls-1" d="M2.5,296.34l2.7-63.61c.59-14.11,6.17-65.64,10.15-81,2.64-8.52,5.23-26,28.31-36.29s41.86-5.36,47.92,6.28c3,7.15,22.23,45.56,24.45,52.32.37,1.13,5.42,15.74,6.1,15.8.66,1.16,5,13.26,6.24,15.67.27-.82.59-1.64.81-2.48,4.14-15.42,8.15-30.88,12.47-46.25,1.42-5,3.76-9.83,5.49-14.79,5.6-16,13.47-31,21.14-46.12,12.89-27.91,36.48-35.4,49.58-37.32A27.4,27.4,0,0,1,237.77,63c16.35,11.63,16.87,36,19.1,53.53,2.65,20.74,7.36,192.24,7.27,212.44-.08,15.9-39.06,23.72-43.48,25.11-4,1-20.33,8.4-20.19-28.63-1.22-18.23-8-148.95-8.79-148.61.12-1.49-17.92,123.46-22.66,141-5.08,18.77-23.26,23.56-26.06,24.87-2.58,1.21-26.41,9.46-38.07-10.33s-36-112-36.81-112.81c-.37,2.64-4.84,155.39-4.84,170.06s-23.51,23.16-38.33,27.22S3.8,408.72,2.9,403.4C1.56,395.49.13,392.05.3,373.06c-.83-7.71.35-32.74,0-34.8,0-2,1.79-32.15,2.2-41.92"/><path class="cls-1" d="M366.49,133.8c.27.07,22-12.87,27.68-18.32,23.67-18.41,22.51-35.91,16.7-44.39s-23.56-7.77-36-2c-8.17,3.81-6.67,12.55-7.41,22.09-.73,9.37-1.23,40.7-1,42.58m111.66-80c8,78.42-65.5,111.22-64.86,111.73l26.35,21.22a18.85,18.85,0,0,0,2.27,1.63c9.72,5.48,18.57,12.17,27.52,18.73,13.92,10.2,21.93,15.78,35.73,26.14,34.14,23.51-39.58,44.3-56.09,31.84-7.86-5-8.79-5.33-16.57-10.49-12-7.95-56-39.77-63-45.47-.76-.62-1.58-1.19-2.74-2.06-.11,3.74-.23,7-.29,10.3-.35,20.39-.42,65.22-.74,74s-11.25,17.25-30.14,24.87c-2.82.83-28.29,11.38-37.15-1.26-7.69-11-4.55-55.35-4.17-84.42q.32-24.34.67-48.71c.31-24.18.51-48.35,1-72.52.1-5,1-54.87,1.58-57.69.38-10.37,11-21.25,14.95-24.42,7.28-5.92,39.65-20.35,62.68-24.53,52.14-9.47,98.43,6,103,51.16"/><path class="cls-1" d="M493.46,604.5c29.72-9.56,24.51-137.58,24.74-140.42,1.42-17.3,2.9-96.49,5.55-118.66,3.43-28.66,6.91-48.44,33.69-58.92,28-11,46.16-6.82,57.17,8.32s2.92,101.84,2.65,108.29c-.24,5.81-.78,11.61-.79,17.42,0,8.35-4.27,79.3-5.68,86.77s-6.25,153.6-55.61,181.5c-12.77,12.48-84.35,46.67-126.29,11.24s-39.69-60.43-45.08-72.9c-.55-1.26-10.67-79.26-11-90.3-.64-22.23-1.27-73-1.74-95.25-.09-4.22.42-32,.9-41.41.53-10.31.72-29.08,3.2-39,9.14-32.6,63.77-37,73.23-20.58A99.36,99.36,0,0,1,454.23,352c4.13,8.28,7.27,59.92,7.19,65.62-.21,15.23,5.28,109.78,5.92,117.87.08.92,1.1,25.79,1.66,32.12.12,1.28-.72,45,24.46,36.9"/><path class="cls-1" d="M866,739.16C839.36,745.49,746.82,770.1,650,801.48c-98.13,31.79-214.17,81.35-226.51,86.64-50.79,21.77-54.49-4.23-57.17-9.11-.48-.87-15.19-44.7,8.41-60.81,23.45-16.7,157.52-71,235.19-95.63,80.24-25.5,243-69.86,267.07-60.29,15.68,6.22,11.91,26.57,10.92,48.5C887.42,720.59,886.83,734.21,866,739.16Z"/><path class="cls-1" d="M347.16,394.38c2.64,14.79-55.2,156.7-61.79,177.56-4.43,14-8.24,28.17-12.32,42.27-.8,2.75-3.3,12.71-2.65,15,0,.09-.66,16.94-.62,18.11.21,5.44,5.44,101.94,6.83,113.29,4.28,29.08-40.51,39.81-43.29,40.47-.69.16-42,17.28-48-28.21-1.19-14.9-2.23-29.81-3.31-44.72-.84-11.5-1.62-23-2.47-34.51-1-14.08-2.29-28.14-3-42.24a18.37,18.37,0,0,0-4.35-11q-31.29-39.54-62.4-79.23c-4.59-5.83-9.3-11.59-13.75-17.53-3.06-4.08-5.82-8.38-8.61-12.64q-16-24.43-31.93-48.91c-2.56-3.93-8-25.26,3.25-32.39s1-4.39,26.29-12.84,42.51-2.86,49,6.67,2.15,3.47,3.34,5.12c21,29.11,43.14,61.62,64.18,90.72.48.66,1,1.29,1.78,2.23.58-1.3,1.06-2.34,1.51-3.39,10.19-23.91,18.42-48.54,27.67-72.79,6.19-16.23,12.8-32.3,19.38-48.38,1.32-3.23,3.36-6.17,5.06-9.25.18-.32.35-.66.55-1,3.16-5,5.2-10.69,9.28-15.1,14.34-23.12,47.56-23.45,56.64-20.74,5.8,1.73,21.1,8.57,23.75,23.37"/><path class="cls-1" d="M250.53,290.85c.75-.6,1.49-1.21,2.54-2.07C252,291,252,291,250.53,290.85"/><path class="cls-1" d="M642.83,488.45q1.84-43.41,3.68-86.81c.82-19.25,8.42-89.57,13.86-110.54,3.6-11.63,7.13-35.56,38.63-49.53s57.13-7.31,65.4,8.58c4.12,9.76,29,64.39,32,73.61.51,1.55,16.59,37.44,18.24,40.74.37-1.13.8-2.24,1.11-3.38,5.65-21.05,11.12-42.15,17-63.12,1.93-6.89,5.12-13.42,7.49-20.2,7.63-21.86,18.37-42.33,28.84-62.93,18.76-40.63,54.14-49.54,71-51.37a33,33,0,0,1,18.72,3.34C986.13,181.05,986.71,217.42,990,243c3.49,27.35,10.51,246.77,10,286.43a20.57,20.57,0,0,1-2.68,10.28c-11.27,19-51.3,25.76-56.73,27.48-5.45,1.39-27.74,11.46-27.55-39.07-1.67-24.88-10.93-203.29-12-202.82.16-2-24.46,168.49-30.93,192.41-6.92,25.63-32.84,32.63-35.55,33.95-3.51,1.7-36,12.91-52-14.1s-49.15-152.91-50.23-153.95c-.51,3.6-6.61,212.06-6.61,232.08s-32.07,31.6-52.31,37.15-28.8-11-30-18.28c-1.83-10.8-3.78-15.48-3.55-41.41-1.13-10.51.48-44.68,0-47.49,0-2.77,2.44-43.87,3-57.21"/></svg>