<svg xmlns="http://www.w3.org/2000/svg" width="102.614" height="46.843" viewBox="0 0 27.15 12.394">
  <path d="M12.506.003a.693.693 0 00-.165.04s-.065.044-.075.056c-.166.193.015.316.127.507.15.261.187.516.211.776l.01.152c.058.994-.152 1.847-.264 2.678a2.116 2.116 0 00-.44.04c-.631.147-1.138.582-1.52 1.307a4.082 4.082 0 00-.478 1.691v.013c-.173.182-.316.273-.428.274-.213.001-.317-.19-.31-.576.01-.558.048-1.06.117-1.502.027-.149.076-.378.147-.691-.054-.139-.18-.261-.377-.366a1.371 1.371 0 00-.667-.153 1.489 1.489 0 00-.328.04c-.631.144-1.138.58-1.52 1.305a4.078 4.078 0 00-.478 1.69c-.018.387.021.714.117.984.132.376.362.567.69.573.225.006.474-.078.748-.253a2.11 2.11 0 00.59-.547c-.01.55.171.822.546.82.385-.004.768-.245 1.148-.725l.067-.09c.016.065.033.128.055.188.131.377.362.567.69.572.225.006.474-.087.749-.278.245-.166.44-.361.587-.583-.003.59.18.885.548.88.386-.002.769-.244 1.148-.723.054-.07.105-.14.154-.213.02.11.046.214.08.309.132.376.362.566.69.572.225.007.475-.078.749-.253.245-.158.442-.34.589-.547-.01.55.172.822.546.82.386-.004.769-.245 1.149-.724l.067-.09c.016.065.033.128.054.188.132.376.362.566.69.572.225.006.475-.078.748-.253.247-.16.442-.34.59-.547-.01.55.172.823.546.82.385-.004.768-.245 1.148-.725a4.158 4.158 0 00.594-1.043 4.15 4.15 0 00.246-.536c.267-.714.58-1.105 1.197-.992.115.03.21.043.283.039l-1.73 2.416c-.147.207-.22.355-.218.445-.005.156.086.233.271.231.052 0 .168-.036.347-.108.181-.07.3-.107.358-.107.173-.002.405.045.697.14.293.097.548.144.767.142.335-.003.667-.187.998-.548a.027.027 0 01.002.005l.017-.02a.969.969 0 00.11-.137c.025-.036.047-.074.069-.115.142-.208.212-.464.174-.77a.927.927 0 00-.07-.3c-.01-.027-.018-.055-.03-.083-.227-.594-.796-.032-.663.33.076.21-.055.326-.25.387a1.735 1.735 0 01-.09.005c-.304.003-.638-.106-.997-.326l1.695-2.41a.596.596 0 00.082-.37c-.007-.1-.045-.172-.112-.217-.067-.045-.123-.05-.169-.017-.244.216-.497.325-.755.327a.974.974 0 01-.239-.033c-.493-.325-1.12-.535-1.507.007l-.008.015c-.25.324-.397.848-.49 1.3-.127.616-.423 1.248-.811 1.66a1.218 1.218 0 01-.105.066.275.275 0 01-.087.018c-.213.002-.316-.19-.309-.576.01-.557.048-1.059.117-1.502.027-.148.075-.378.145-.69-.052-.14-.178-.262-.375-.367a1.373 1.373 0 00-.668-.154 1.55 1.55 0 00-.328.04c-.63.146-1.138.581-1.519 1.307a4.084 4.084 0 00-.479 1.69v.013c-.173.18-.315.273-.427.274-.213.002-.317-.19-.31-.575.008-.559.048-1.06.118-1.504a16.473 16.473 0 01.145-.69c-.054-.14-.18-.261-.376-.367a1.378 1.378 0 00-.667-.153 1.512 1.512 0 00-.328.04c-.632.145-1.138.58-1.52 1.306a4.112 4.112 0 00-.468 1.568l-.054.062c-.204.231-.37.347-.496.348-.213.002-.317-.19-.31-.575.005-.427.094-1.256.269-2.489.167-1.207.246-1.951.245-2.23a13.039 13.039 0 000-.17c0-.34-.005-.77-.09-1.1-.018-.069-.065-.207-.065-.207-.17-.454-.495-.767-.872-.727zM4.72.481C3.646.483 2.557.566 1.579.893c-.58.194-1.1.497-1.426 1.056-.25.43-.212 1.04.254 1.368.556.39 1.338.142 1.86-.04.676-.234 1.308-.563 1.918-.93-.434 2.032.242 4.226.407 6.387.057.734 1.14-.015 1.101-.524-.163-2.12-1.02-4.566-.34-6.552l.158.006c1.146.047 2.362.117 3.499.488.49.16 1.297-.934.782-1.103C8.487.624 7.098.544 5.784.5 5.434.488 5.077.48 4.72.48zM3.625 1.648c-.078.042-.155.086-.235.127-.524.27-1.117.566-1.73.58-.187.003-.366-.031-.503-.198a.245.245 0 01-.038-.065c.182-.09.3-.119.538-.18a9.514 9.514 0 011.968-.264zm16.125 3.58c.103-.008.173.04.21.146.016.065.025.18.021.345-.007.295-.106.64-.297 1.036-.202.42-.403.631-.605.634-.178 0-.267-.17-.266-.515.002-.27.095-.595.28-.976.208-.427.427-.651.657-.67zm-3.845.035c.104-.01.174.04.21.145.018.067.026.181.022.345-.007.296-.106.64-.296 1.037-.201.42-.403.63-.605.632-.18.002-.268-.17-.267-.514.002-.27.096-.595.281-.975.208-.428.426-.652.655-.67zm-3.955.035c.104-.009.173.04.209.146.018.066.026.18.022.345-.008.295-.106.641-.297 1.036-.202.42-.403.632-.605.633-.178.001-.267-.17-.266-.514.002-.271.095-.596.28-.975.208-.429.427-.652.657-.67zm-3.845.035c.104-.01.174.04.21.146.018.065.025.18.022.344-.008.296-.107.641-.297 1.037-.202.42-.403.632-.605.634-.179.001-.267-.17-.266-.515.002-.27.095-.596.28-.975.208-.429.426-.652.656-.671zm18.592 2.382a.461.461 0 00-.392.226.452.452 0 00-.001.453.428.428 0 00.168.167c.072.04.147.06.225.06a.46.46 0 00.225-.06.424.424 0 00.168-.167.46.46 0 000-.453.42.42 0 00-.17-.167.464.464 0 00-.223-.059zm0 .075a.386.386 0 01.186.05.35.35 0 01.141.14.382.382 0 01.001.376.383.383 0 01-.517.14.363.363 0 01-.139-.14.375.375 0 01.001-.377.345.345 0 01.142-.14.385.385 0 01.185-.049zm-.199.141v.488h.079v-.207h.046c.028 0 .049.006.063.017.02.015.048.052.083.113l.043.077h.096l-.06-.096a.518.518 0 00-.072-.096.137.137 0 00-.041-.026.15.15 0 00.101-.044.131.131 0 00.038-.093.121.121 0 00-.023-.072.12.12 0 00-.06-.047.408.408 0 00-.125-.014zm.079.066h.09a.258.258 0 01.079.008.067.067 0 01.045.064.065.065 0 01-.026.054c-.016.014-.047.02-.092.02h-.096zm-15.982 2.07a49.394 49.394 0 00-5.014.197c-.51.048-.927.73-.37.678 3.33-.316 7.269-.122 10.602.062 3.458.19 6.45.891 9.796 1.387.498.073.95-1.179.353-1.246-3.441-.385-6.892-.7-10.35-.896-1.666-.094-3.341-.17-5.017-.182z" fill="#679d86"/>
</svg>
